<?xml version="1.0" encoding="UTF-8"?>
<svg xmlns="http://www.w3.org/2000/svg" xmlns:xlink="http://www.w3.org/1999/xlink" viewBox="0 0 60 60" width="60px" height="60px">
<g id="surface14307232">
<path style=" stroke:none;fill-rule:nonzero;fill:rgb(40.000001%,40.000001%,40.000001%);fill-opacity:1;" d="M 30.007812 6 C 16.75 6 6 16.746094 6 30 C 6 43.253906 16.75 54 30.007812 54 C 50.027344 54 54.539062 35.414062 52.660156 26 L 30 26 L 30 34 L 45.476562 34 C 43.699219 40.898438 37.453125 46 30 46 C 21.164062 46 14 38.835938 14 30 C 14 21.164062 21.164062 14 30 14 C 34.019531 14 37.679688 15.492188 40.488281 17.9375 L 46.171875 12.257812 C 41.902344 8.371094 36.234375 6 30.007812 6 Z M 30.007812 6 "/>
</g>
</svg>
