<?xml version="1.0" encoding="UTF-8"?>
<svg xmlns="http://www.w3.org/2000/svg" xmlns:xlink="http://www.w3.org/1999/xlink" viewBox="0 0 100 100" width="100px" height="100px">
<g id="surface14277575">
<path style=" stroke:none;fill-rule:nonzero;fill:rgb(40.000001%,40.000001%,40.000001%);fill-opacity:1;" d="M 65.359375 16 C 59.839844 16 54.621094 17.300781 50 19.621094 C 45.359375 17.300781 40.160156 16 34.640625 16 C 15.5 16 0 31.679688 0 51 C 0 70.320312 15.5 86 34.640625 86 C 40.140625 86 45.378906 84.679688 50 82.378906 C 54.621094 84.699219 59.839844 86 65.359375 86 C 84.5 86 100 70.320312 100 51 C 100 31.679688 84.5 16 65.359375 16 Z M 65.359375 77.101562 C 63.878906 77.101562 62.421875 76.960938 60.980469 76.71875 C 66.941406 70.539062 70.558594 62.660156 71.21875 54.160156 L 71.398438 52 L 52 52 L 52 62.761719 L 57.699219 62.761719 C 55.878906 66.378906 53.238281 69.558594 50.019531 71.980469 C 46.78125 69.539062 44.121094 66.359375 42.300781 62.761719 L 48 62.761719 L 48 52 L 28.601562 52 L 28.78125 54.160156 C 29.460938 62.71875 33.019531 70.621094 38.898438 76.738281 C 37.5 76.980469 36.078125 77.101562 34.640625 77.101562 C 20.421875 77.101562 8.839844 65.378906 8.839844 51 C 8.839844 36.621094 20.421875 24.898438 34.640625 24.898438 C 36.140625 24.898438 37.601562 25.019531 39 25.261719 C 34.5 29.960938 31.300781 35.738281 30.039062 41.578125 L 29.519531 44 L 40.441406 44 L 40.898438 42.640625 C 42.558594 37.640625 45.761719 33.21875 49.980469 30.039062 C 54.21875 33.21875 57.441406 37.640625 59.101562 42.640625 L 59.558594 44 L 70.480469 44 L 69.960938 41.578125 C 68.679688 35.621094 65.558594 29.960938 61.039062 25.28125 C 62.460938 25.039062 63.898438 24.898438 65.359375 24.898438 C 79.578125 24.898438 91.160156 36.621094 91.160156 51 C 91.160156 65.378906 79.578125 77.101562 65.359375 77.101562 Z M 65.359375 77.101562 "/>
<path style=" stroke:none;fill-rule:nonzero;fill:rgb(40.000001%,40.000001%,40.000001%);fill-opacity:1;" d="M 42.050781 91.535156 L 42.050781 94.582031 C 41.773438 94.988281 41.378906 95.289062 40.871094 95.488281 C 40.367188 95.691406 39.78125 95.792969 39.109375 95.792969 C 38.433594 95.792969 37.832031 95.632812 37.304688 95.3125 C 36.78125 94.992188 36.375 94.539062 36.085938 93.957031 C 35.800781 93.371094 35.652344 92.691406 35.644531 91.914062 L 35.644531 91.191406 C 35.644531 89.9375 35.9375 88.96875 36.519531 88.277344 C 37.105469 87.589844 37.925781 87.25 38.984375 87.25 C 39.851562 87.25 40.550781 87.46875 41.082031 87.910156 C 41.613281 88.355469 41.9375 88.984375 42.050781 89.796875 L 40.953125 89.796875 C 40.75 88.699219 40.09375 88.148438 38.988281 88.148438 C 38.253906 88.148438 37.699219 88.40625 37.320312 88.921875 C 36.945312 89.441406 36.753906 90.1875 36.75 91.167969 L 36.75 91.84375 C 36.75 92.777344 36.960938 93.515625 37.386719 94.066406 C 37.8125 94.617188 38.386719 94.890625 39.117188 94.890625 C 39.527344 94.890625 39.886719 94.847656 40.191406 94.757812 C 40.503906 94.664062 40.761719 94.507812 40.960938 94.296875 L 40.960938 92.425781 L 39.035156 92.425781 L 39.035156 91.535156 Z M 48.632812 87.359375 L 49.730469 87.359375 L 49.730469 93.015625 C 49.726562 93.796875 49.480469 94.441406 48.996094 94.9375 C 48.503906 95.4375 47.839844 95.71875 47.003906 95.78125 L 46.714844 95.792969 C 45.800781 95.792969 45.074219 95.546875 44.539062 95.054688 C 43.996094 94.5625 43.722656 93.886719 43.714844 93.027344 L 43.714844 87.359375 L 44.800781 87.359375 L 44.800781 92.992188 C 44.800781 93.589844 44.96875 94.058594 45.296875 94.394531 C 45.625 94.726562 46.097656 94.890625 46.714844 94.890625 C 47.332031 94.890625 47.808594 94.726562 48.132812 94.394531 C 48.464844 94.0625 48.632812 93.597656 48.632812 92.996094 Z M 56.480469 93.039062 L 57.578125 93.039062 C 57.476562 93.914062 57.152344 94.59375 56.609375 95.074219 C 56.058594 95.550781 55.332031 95.792969 54.425781 95.792969 C 53.445312 95.792969 52.65625 95.441406 52.0625 94.734375 C 51.472656 94.027344 51.175781 93.085938 51.175781 91.902344 L 51.175781 91.109375 C 51.175781 90.335938 51.3125 89.65625 51.589844 89.066406 C 51.867188 88.484375 52.257812 88.03125 52.765625 87.714844 C 53.273438 87.40625 53.859375 87.25 54.527344 87.25 C 55.40625 87.25 56.113281 87.496094 56.648438 87.984375 C 57.183594 88.480469 57.492188 89.164062 57.578125 90.03125 L 56.480469 90.03125 C 56.382812 89.371094 56.175781 88.890625 55.859375 88.59375 C 55.539062 88.296875 55.09375 88.148438 54.527344 88.148438 C 53.824219 88.148438 53.273438 88.410156 52.878906 88.925781 C 52.480469 89.445312 52.28125 90.183594 52.28125 91.136719 L 52.28125 91.9375 C 52.28125 92.84375 52.46875 93.558594 52.847656 94.089844 C 53.222656 94.625 53.75 94.890625 54.425781 94.890625 C 55.035156 94.890625 55.503906 94.753906 55.832031 94.476562 C 56.152344 94.203125 56.371094 93.722656 56.480469 93.039062 Z M 64.085938 93.039062 L 65.191406 93.039062 C 65.089844 93.914062 64.765625 94.59375 64.214844 95.074219 C 63.671875 95.550781 62.945312 95.792969 62.039062 95.792969 C 61.058594 95.792969 60.269531 95.441406 59.679688 94.734375 C 59.085938 94.027344 58.789062 93.085938 58.789062 91.902344 L 58.789062 91.109375 C 58.789062 90.335938 58.929688 89.65625 59.203125 89.066406 C 59.480469 88.484375 59.875 88.03125 60.378906 87.714844 C 60.886719 87.40625 61.472656 87.25 62.132812 87.25 C 63.019531 87.25 63.730469 87.496094 64.261719 87.984375 C 64.792969 88.480469 65.101562 89.164062 65.191406 90.03125 L 64.085938 90.03125 C 63.996094 89.371094 63.789062 88.890625 63.46875 88.59375 C 63.152344 88.296875 62.707031 88.148438 62.132812 88.148438 C 61.4375 88.148438 60.890625 88.410156 60.492188 88.925781 C 60.09375 89.445312 59.894531 90.183594 59.894531 91.136719 L 59.894531 91.9375 C 59.894531 92.84375 60.082031 93.558594 60.457031 94.089844 C 60.835938 94.625 61.363281 94.890625 62.039062 94.890625 C 62.648438 94.890625 63.117188 94.753906 63.445312 94.476562 C 63.769531 94.203125 63.984375 93.722656 64.085938 93.039062 Z M 67.867188 87.359375 L 67.867188 95.675781 L 66.765625 95.675781 L 66.765625 87.359375 Z M 67.867188 87.359375 "/>
</g>
</svg>
