<?xml version="1.0" encoding="UTF-8"?>
<svg xmlns="http://www.w3.org/2000/svg" xmlns:xlink="http://www.w3.org/1999/xlink" viewBox="0 0 100 100" width="100px" height="100px">
<g id="surface14799303">
<path style=" stroke:none;fill-rule:evenodd;fill:rgb(40.000001%,40.000001%,40.000001%);fill-opacity:1;" d="M 12.8125 33.601562 C 6.304688 41.242188 0 50.46875 0 57.804688 C 0 62.039062 3.5625 67.992188 12.265625 67.992188 C 16.96875 67.992188 21.640625 66.101562 25.296875 64.640625 C 31.460938 62.171875 99.578125 32.59375 99.578125 32.59375 C 100.234375 32.265625 100.117188 31.851562 99.289062 32.054688 C 98.960938 32.140625 25.132812 52.148438 25.132812 52.148438 C 23.710938 52.546875 22.257812 52.765625 20.84375 52.765625 C 14.460938 52.765625 10.15625 49.703125 10.15625 43.007812 C 10.15625 40.414062 10.96875 37.28125 12.8125 33.601562 Z M 12.8125 33.601562 "/>
<path style=" stroke:none;fill-rule:nonzero;fill:rgb(40.000001%,40.000001%,40.000001%);fill-opacity:1;" d="M 41.535156 73.511719 L 41.535156 88.476562 L 39.550781 88.476562 L 32.015625 76.945312 L 32.015625 88.476562 L 30.03125 88.476562 L 30.03125 73.511719 L 32.015625 73.511719 L 39.570312 85.097656 L 39.570312 73.511719 Z M 47.160156 73.511719 L 47.160156 88.476562 L 45.183594 88.476562 L 45.183594 73.511719 Z M 59.875 88.476562 L 54.570312 81.515625 L 52.738281 83.417969 L 52.738281 88.476562 L 50.769531 88.476562 L 50.769531 73.511719 L 52.738281 73.511719 L 52.738281 80.910156 L 59.390625 73.511719 L 61.773438 73.511719 L 55.886719 80.121094 L 62.238281 88.476562 Z M 72.425781 79.945312 L 72.425781 81.558594 L 65.9375 81.558594 L 65.9375 86.863281 L 73.476562 86.863281 L 73.476562 88.476562 L 63.96875 88.476562 L 63.96875 73.511719 L 73.371094 73.511719 L 73.371094 75.132812 L 65.9375 75.132812 L 65.9375 79.945312 Z M 72.425781 79.945312 "/>
</g>
</svg>
