<svg xmlns="http://www.w3.org/2000/svg" version="1.1" xmlns:xlink="http://www.w3.org/1999/xlink" xmlns:svgjs="http://svgjs.com/svgjs" width="500" height="700" preserveAspectRatio="none" viewBox="0 0 500 700"><g mask="url(&quot;#SvgjsMask3738&quot;)" fill="none"><rect width="500" height="700" x="0" y="0" fill="rgba(249, 249, 249, 1)"></rect><rect width="264" height="264" clip-path="url(&quot;#SvgjsClipPath3739&quot;)" x="242.08" y="-130.68" fill="url(#SvgjsPattern3740)" transform="rotate(2.2, 374.08, 1.32)"></rect><rect width="240" height="240" clip-path="url(&quot;#SvgjsClipPath3741&quot;)" x="229.57" y="160.07" fill="url(#SvgjsPattern3742)" transform="rotate(60.75, 349.57, 280.07)"></rect><path d="M421.9 381.88a5.6 5.6 0 1 0-0.15 11.2 5.6 5.6 0 1 0 0.15-11.2zM421.69 397.88a5.6 5.6 0 1 0-0.16 11.2 5.6 5.6 0 1 0 0.16-11.2zM421.47 413.88a5.6 5.6 0 1 0-0.15 11.2 5.6 5.6 0 1 0 0.15-11.2zM421.25 429.88a5.6 5.6 0 1 0-0.15 11.2 5.6 5.6 0 1 0 0.15-11.2z" stroke="rgba(211, 211, 211, 1)" stroke-width="2.28" stroke-dasharray="3, 3"></path><rect width="189" height="189" clip-path="url(&quot;#SvgjsClipPath3743&quot;)" x="357.14" y="538.36" fill="url(#SvgjsPattern3744)" transform="rotate(330.65, 451.64, 632.86)"></rect><rect width="95.2" height="95.2" clip-path="url(&quot;#SvgjsClipPath3745&quot;)" x="-45.13" y="-5.25" fill="url(#SvgjsPattern3746)" transform="rotate(143.3, 2.47, 42.35)"></rect><rect width="252" height="252" clip-path="url(&quot;#SvgjsClipPath3747&quot;)" x="344.81" y="46.25" fill="url(#SvgjsPattern3748)" transform="rotate(234.29, 470.81, 172.25)"></rect><rect width="176.16" height="176.16" clip-path="url(&quot;#SvgjsClipPath3749&quot;)" x="164.59" y="427.89" fill="url(#SvgjsPattern3750)" transform="rotate(86.52, 252.67, 515.97)"></rect></g><defs><mask id="SvgjsMask3738"><rect width="500" height="700" fill="#ffffff"></rect></mask><pattern x="0" y="0" width="6" height="6" patternUnits="userSpaceOnUse" id="SvgjsPattern3740"><path d="M3 1L3 5M1 3L5 3" stroke="rgba(39, 42, 49, 1)" fill="none" stroke-width="1.33"></path></pattern><clipPath id="SvgjsClipPath3739"><circle r="66" cx="374.08" cy="1.32"></circle></clipPath><pattern x="0" y="0" width="6" height="6" patternUnits="userSpaceOnUse" id="SvgjsPattern3742"><path d="M3 1L3 5M1 3L5 3" stroke="rgba(211, 211, 211, 1)" fill="none" stroke-width="1.85"></path></pattern><clipPath id="SvgjsClipPath3741"><circle r="60" cx="349.57" cy="280.07"></circle></clipPath><pattern x="0" y="0" width="13.5" height="13.5" patternUnits="userSpaceOnUse" id="SvgjsPattern3744"><path d="M6.75 1L6.75 12.5M1 6.75L12.5 6.75" stroke="rgba(211, 211, 211, 1)" fill="none" stroke-width="2.98"></path></pattern><clipPath id="SvgjsClipPath3743"><circle r="47.25" cx="451.64" cy="632.86"></circle></clipPath><pattern x="0" y="0" width="9.52" height="9.52" patternUnits="userSpaceOnUse" id="SvgjsPattern3746"><path d="M4.76 1L4.76 8.52M1 4.76L8.52 4.76" stroke="rgba(211, 211, 211, 1)" fill="none" stroke-width="3.21"></path></pattern><clipPath id="SvgjsClipPath3745"><circle r="23.8" cx="2.47" cy="42.35"></circle></clipPath><pattern x="0" y="0" width="6" height="6" patternUnits="userSpaceOnUse" id="SvgjsPattern3748"><path d="M3 1L3 5M1 3L5 3" stroke="rgba(236, 82, 66, 1)" fill="none" stroke-width="1.31"></path></pattern><clipPath id="SvgjsClipPath3747"><circle r="63" cx="470.81" cy="172.25"></circle></clipPath><pattern x="0" y="0" width="176.16" height="7.34" patternUnits="userSpaceOnUse" id="SvgjsPattern3750"><rect width="176.16" height="3.67" x="0" y="0" fill="rgba(236, 82, 66, 1)"></rect><rect width="176.16" height="3.67" x="0" y="3.67" fill="rgba(0, 0, 0, 0)"></rect></pattern><clipPath id="SvgjsClipPath3749"><circle r="44.04" cx="252.67" cy="515.97"></circle></clipPath></defs></svg>