<svg xmlns="http://www.w3.org/2000/svg" xmlns:xlink="http://www.w3.org/1999/xlink" width="750" zoomAndPan="magnify" viewBox="0 0 750 449.999984" height="449.999984" preserveAspectRatio="xMidYMid meet" version="1.0"><defs><filter x="0%" y="0%" width="100%" xlink:type="simple" xlink:actuate="onLoad" height="100%" id="id1" xlink:show="other"><feColorMatrix values="0 0 0 0 1 0 0 0 0 1 0 0 0 0 1 0 0 0 1 0" color-interpolation-filters="sRGB"/></filter><mask id="id2"><g filter="url(#id1)"><rect x="-75" width="900" fill="rgb(0%, 0%, 0%)" y="-44.999998" height="539.99998" fill-opacity="0.8667"/></g></mask><clipPath id="id3"><rect x="0" width="104" y="0" height="105"/></clipPath><clipPath id="id4"><path d="M 706 234 L 707.722656 234 L 707.722656 235 L 706 235 Z M 706 234 " clip-rule="nonzero"/></clipPath><clipPath id="id5"><path d="M 677 209.109375 L 679 209.109375 L 679 210 L 677 210 Z M 677 209.109375 " clip-rule="nonzero"/></clipPath><clipPath id="id6"><path d="M 682 209.109375 L 683 209.109375 L 683 210 L 682 210 Z M 682 209.109375 " clip-rule="nonzero"/></clipPath><clipPath id="id7"><path d="M 686 209.109375 L 687 209.109375 L 687 210 L 686 210 Z M 686 209.109375 " clip-rule="nonzero"/></clipPath><clipPath id="id8"><path d="M 707 229 L 707.722656 229 L 707.722656 231 L 707 231 Z M 707 229 " clip-rule="nonzero"/></clipPath><clipPath id="id9"><path d="M 707 238 L 707.722656 238 L 707.722656 239 L 707 239 Z M 707 238 " clip-rule="nonzero"/></clipPath><clipPath id="id10"><path d="M 707 242 L 707.722656 242 L 707.722656 244 L 707 244 Z M 707 242 " clip-rule="nonzero"/></clipPath><clipPath id="id11"><path d="M 652.972656 238 L 654 238 L 654 239 L 652.972656 239 Z M 652.972656 238 " clip-rule="nonzero"/></clipPath><clipPath id="id12"><path d="M 652.972656 234 L 654 234 L 654 235 L 652.972656 235 Z M 652.972656 234 " clip-rule="nonzero"/></clipPath><clipPath id="id13"><path d="M 690 209.109375 L 691 209.109375 L 691 210 L 690 210 Z M 690 209.109375 " clip-rule="nonzero"/></clipPath><clipPath id="id14"><path d="M 673 209.109375 L 675 209.109375 L 675 210 L 673 210 Z M 673 209.109375 " clip-rule="nonzero"/></clipPath><clipPath id="id15"><path d="M 707 225 L 707.722656 225 L 707.722656 227 L 707 227 Z M 707 225 " clip-rule="nonzero"/></clipPath><clipPath id="id16"><path d="M 677 263 L 679 263 L 679 263.859375 L 677 263.859375 Z M 677 263 " clip-rule="nonzero"/></clipPath><clipPath id="id17"><path d="M 682 263 L 683 263 L 683 263.859375 L 682 263.859375 Z M 682 263 " clip-rule="nonzero"/></clipPath><clipPath id="id18"><path d="M 686 263 L 687 263 L 687 263.859375 L 686 263.859375 Z M 686 263 " clip-rule="nonzero"/></clipPath><clipPath id="id19"><path d="M 669 209.109375 L 671 209.109375 L 671 210 L 669 210 Z M 669 209.109375 " clip-rule="nonzero"/></clipPath><clipPath id="id20"><path d="M 707 246 L 707.722656 246 L 707.722656 248 L 707 248 Z M 707 246 " clip-rule="nonzero"/></clipPath><clipPath id="id21"><path d="M 673 263 L 675 263 L 675 263.859375 L 673 263.859375 Z M 673 263 " clip-rule="nonzero"/></clipPath><clipPath id="id22"><path d="M 406 305 L 484 305 L 484 362 L 406 362 Z M 406 305 " clip-rule="nonzero"/></clipPath><clipPath id="id23"><path d="M 402.355469 355.285156 L 478.75 299.660156 L 503.03125 333.003906 L 426.636719 388.632812 Z M 402.355469 355.285156 " clip-rule="nonzero"/></clipPath><clipPath id="id24"><path d="M 402.355469 355.285156 L 478.75 299.660156 L 503.03125 333.003906 L 426.636719 388.632812 Z M 402.355469 355.285156 " clip-rule="nonzero"/></clipPath><clipPath id="id25"><path d="M 412 313 L 490 313 L 490 371 L 412 371 Z M 412 313 " clip-rule="nonzero"/></clipPath><clipPath id="id26"><path d="M 402.355469 355.285156 L 478.75 299.660156 L 503.03125 333.003906 L 426.636719 388.632812 Z M 402.355469 355.285156 " clip-rule="nonzero"/></clipPath><clipPath id="id27"><path d="M 402.355469 355.285156 L 478.75 299.660156 L 503.03125 333.003906 L 426.636719 388.632812 Z M 402.355469 355.285156 " clip-rule="nonzero"/></clipPath><clipPath id="id28"><path d="M 418 322 L 496 322 L 496 380 L 418 380 Z M 418 322 " clip-rule="nonzero"/></clipPath><clipPath id="id29"><path d="M 402.355469 355.285156 L 478.75 299.660156 L 503.03125 333.003906 L 426.636719 388.632812 Z M 402.355469 355.285156 " clip-rule="nonzero"/></clipPath><clipPath id="id30"><path d="M 402.355469 355.285156 L 478.75 299.660156 L 503.03125 333.003906 L 426.636719 388.632812 Z M 402.355469 355.285156 " clip-rule="nonzero"/></clipPath><clipPath id="id31"><path d="M 425 330 L 503 330 L 503 388 L 425 388 Z M 425 330 " clip-rule="nonzero"/></clipPath><clipPath id="id32"><path d="M 402.355469 355.285156 L 478.75 299.660156 L 503.03125 333.003906 L 426.636719 388.632812 Z M 402.355469 355.285156 " clip-rule="nonzero"/></clipPath><clipPath id="id33"><path d="M 402.355469 355.285156 L 478.75 299.660156 L 503.03125 333.003906 L 426.636719 388.632812 Z M 402.355469 355.285156 " clip-rule="nonzero"/></clipPath></defs><path fill="rgb(92.549133%, 32.159424%, 25.878906%)" d="M 84.46875 231.730469 C 84.269531 231.191406 84.101562 230.621094 83.933594 230.085938 L 129.953125 184.066406 C 130.488281 184.234375 131.0625 184.402344 131.597656 184.601562 Z M 124.578125 182.890625 C 123.941406 182.789062 123.269531 182.722656 122.628906 182.65625 L 82.488281 222.796875 C 82.554688 223.433594 82.625 224.105469 82.722656 224.742188 Z M 140.230469 189.070312 C 139.792969 188.769531 139.359375 188.464844 138.921875 188.195312 L 88.03125 239.085938 C 88.300781 239.523438 88.601562 239.960938 88.90625 240.398438 Z M 134.6875 185.878906 C 134.183594 185.644531 133.679688 185.410156 133.175781 185.207031 L 85.074219 233.308594 C 85.277344 233.8125 85.511719 234.316406 85.746094 234.820312 Z M 137.542969 187.390625 C 137.074219 187.121094 136.605469 186.855469 136.132812 186.617188 L 86.417969 236.332031 C 86.652344 236.804688 86.921875 237.273438 87.191406 237.742188 Z M 104.390625 185.578125 C 102.8125 186.28125 101.265625 187.089844 99.789062 187.996094 L 87.828125 199.953125 C 86.890625 201.433594 86.082031 202.976562 85.410156 204.554688 Z M 118.398438 182.488281 L 82.320312 218.5625 C 82.320312 219.300781 82.320312 220.007812 82.355469 220.746094 L 120.546875 182.519531 C 119.839844 182.488281 119.101562 182.488281 118.398438 182.488281 Z M 156.050781 219.167969 L 119.003906 256.21875 C 119.742188 256.21875 120.511719 256.21875 121.253906 256.152344 L 155.984375 221.417969 C 156.019531 220.679688 156.050781 219.90625 156.050781 219.167969 Z M 142.71875 190.984375 C 142.3125 190.648438 141.910156 190.3125 141.507812 190.011719 L 89.84375 241.671875 C 90.148438 242.078125 90.484375 242.480469 90.820312 242.882812 Z M 116.078125 182.621094 C 115.238281 182.6875 114.433594 182.789062 113.59375 182.921875 L 82.757812 213.757812 C 82.625 214.597656 82.523438 215.40625 82.457031 216.246094 Z M 110.90625 183.425781 C 109.898438 183.664062 108.890625 183.929688 107.882812 184.265625 L 84.066406 208.050781 C 83.765625 209.058594 83.464844 210.03125 83.226562 211.074219 Z M 128.207031 183.59375 C 127.601562 183.460938 127.03125 183.328125 126.425781 183.191406 L 83.027344 226.589844 C 83.160156 227.195312 83.296875 227.765625 83.429688 228.371094 Z M 155.378906 226.390625 C 155.546875 225.515625 155.683594 224.675781 155.785156 223.804688 L 123.636719 255.949219 C 124.511719 255.847656 125.382812 255.714844 126.222656 255.546875 Z M 155.984375 217.050781 C 155.953125 216.378906 155.882812 215.707031 155.816406 215.035156 L 114.871094 255.949219 C 115.542969 256.015625 116.214844 256.085938 116.886719 256.117188 Z M 155.515625 213.121094 C 155.414062 212.515625 155.28125 211.914062 155.144531 211.308594 L 111.109375 255.3125 C 111.710938 255.445312 112.316406 255.582031 112.921875 255.679688 Z M 145 193.035156 C 144.632812 192.664062 144.261719 192.328125 143.894531 191.960938 L 91.828125 244.023438 C 92.164062 244.394531 92.53125 244.765625 92.902344 245.132812 Z M 147.152344 243.351562 C 149 241.203125 150.542969 238.917969 151.820312 236.5 L 136.335938 251.984375 C 138.753906 250.710938 141.039062 249.164062 143.1875 247.316406 Z M 154.710938 209.5625 C 154.542969 208.988281 154.375 208.453125 154.207031 207.882812 L 107.714844 254.371094 C 108.285156 254.539062 108.824219 254.707031 109.394531 254.875 Z M 153.632812 232.535156 C 154.039062 231.460938 154.40625 230.386719 154.710938 229.277344 L 129.113281 254.875 C 130.222656 254.574219 131.296875 254.203125 132.371094 253.800781 Z M 149.066406 197.738281 C 148.761719 197.332031 148.460938 196.898438 148.125 196.492188 L 96.328125 248.257812 C 96.730469 248.59375 97.167969 248.894531 97.570312 249.199219 Z M 153.632812 206.269531 C 153.433594 205.730469 153.230469 205.226562 152.996094 204.722656 L 104.523438 253.195312 C 105.027344 253.429688 105.566406 253.632812 106.070312 253.832031 Z M 147.117188 195.285156 C 146.78125 194.882812 146.445312 194.511719 146.078125 194.144531 L 93.976562 246.242188 C 94.347656 246.613281 94.75 246.949219 95.117188 247.285156 Z M 150.777344 200.355469 C 150.511719 199.921875 150.242188 199.449219 149.9375 199.011719 L 98.847656 250.105469 C 99.285156 250.40625 99.722656 250.675781 100.191406 250.945312 Z M 152.324219 203.210938 C 152.089844 202.742188 151.855469 202.238281 151.585938 201.769531 L 101.601562 251.75 C 102.074219 252.019531 102.542969 252.253906 103.046875 252.488281 Z M 152.324219 203.210938 " fill-opacity="1" fill-rule="nonzero"/><g mask="url(#id2)"><g transform="matrix(1, 0, 0, 1, 67, 167)"><g clip-path="url(#id3)"><path fill="rgb(10.978699%, 12.939453%, 12.548828%)" d="M 16.839844 41.699219 C 17 41.148438 17.203125 40.589844 17.386719 40.058594 L 81.757812 30.410156 C 82.089844 30.863281 82.449219 31.339844 82.761719 31.820312 Z M 78.132812 26.269531 C 77.679688 25.808594 77.179688 25.355469 76.707031 24.921875 L 20.558594 33.335938 C 20.234375 33.890625 19.890625 34.46875 19.589844 35.042969 Z M 87.046875 40.546875 C 86.875 40.042969 86.707031 39.539062 86.515625 39.066406 L 15.332031 49.734375 C 15.289062 50.242188 15.269531 50.773438 15.253906 51.304688 Z M 84.488281 34.683594 C 84.222656 34.195312 83.957031 33.707031 83.671875 33.246094 L 16.390625 43.328125 C 16.25 43.855469 16.140625 44.398438 16.03125 44.945312 Z M 85.886719 37.597656 C 85.667969 37.101562 85.449219 36.605469 85.210938 36.136719 L 15.671875 46.558594 C 15.582031 47.078125 15.519531 47.617188 15.453125 48.152344 Z M 60.300781 16.425781 C 58.613281 16.054688 56.890625 15.785156 55.164062 15.636719 L 38.4375 18.144531 C 36.800781 18.773438 35.234375 19.535156 33.753906 20.40625 Z M 73.402344 22.269531 L 22.941406 29.832031 C 22.503906 30.425781 22.082031 30.996094 21.671875 31.609375 L 75.113281 23.574219 C 74.566406 23.128906 73.972656 22.6875 73.402344 22.269531 Z M 81.875 74.15625 L 30.050781 81.925781 C 30.648438 82.363281 31.269531 82.824219 31.902344 83.207031 L 80.484375 75.925781 C 80.949219 75.351562 81.4375 74.75 81.875 74.15625 Z M 87.910156 43.5625 C 87.785156 43.054688 87.660156 42.542969 87.515625 42.0625 L 15.253906 52.890625 C 15.253906 53.394531 15.285156 53.917969 15.316406 54.441406 Z M 71.460938 21 C 70.746094 20.554688 70.035156 20.15625 69.28125 19.765625 L 26.148438 26.230469 C 25.542969 26.824219 24.980469 27.414062 24.429688 28.046875 Z M 66.820312 18.574219 C 65.871094 18.164062 64.898438 17.78125 63.890625 17.449219 L 30.597656 22.417969 C 29.753906 23.046875 28.933594 23.648438 28.125 24.347656 Z M 80.632812 28.992188 C 80.226562 28.527344 79.847656 28.078125 79.441406 27.609375 L 18.734375 36.707031 C 18.484375 37.273438 18.253906 37.8125 18 38.378906 Z M 77.042969 79.566406 C 77.695312 78.960938 78.304688 78.367188 78.90625 77.726562 L 33.941406 84.464844 C 34.703125 84.902344 35.484375 85.3125 36.257812 85.675781 Z M 83.082031 72.414062 C 83.453125 71.855469 83.796875 71.273438 84.144531 70.695312 L 26.890625 79.25 C 27.390625 79.703125 27.890625 80.15625 28.410156 80.585938 Z M 85.039062 68.976562 C 85.316406 68.429688 85.570312 67.863281 85.820312 67.296875 L 24.242188 76.5 C 24.648438 76.96875 25.054688 77.4375 25.480469 77.875 Z M 88.527344 46.570312 C 88.449219 46.054688 88.351562 45.5625 88.273438 45.046875 L 15.449219 55.960938 C 15.5 56.457031 15.574219 56.972656 15.652344 57.492188 Z M 60.339844 88.3125 C 63.101562 87.683594 65.703125 86.765625 68.167969 85.578125 L 46.507812 88.824219 C 49.210938 89.238281 51.96875 89.351562 54.792969 89.144531 Z M 86.507812 65.632812 C 86.710938 65.074219 86.898438 64.539062 87.101562 63.980469 L 22.074219 73.726562 C 22.433594 74.203125 22.765625 74.65625 23.125 75.132812 Z M 71.984375 83.46875 C 72.945312 82.84375 73.882812 82.199219 74.785156 81.488281 L 38.980469 86.855469 C 40.054688 87.269531 41.136719 87.613281 42.242188 87.925781 Z M 89 52.769531 C 88.996094 52.265625 89.011719 51.734375 88.984375 51.210938 L 16.550781 62.039062 C 16.675781 62.550781 16.847656 63.054688 16.992188 63.535156 Z M 87.601562 62.34375 C 87.757812 61.792969 87.894531 61.269531 88.007812 60.722656 L 20.207031 70.886719 C 20.472656 71.375 20.785156 71.855469 21.070312 72.316406 Z M 88.890625 49.636719 C 88.859375 49.113281 88.808594 48.617188 88.734375 48.101562 L 15.859375 59.023438 C 15.9375 59.539062 16.0625 60.046875 16.15625 60.539062 Z M 88.820312 55.894531 C 88.863281 55.382812 88.925781 54.84375 88.941406 54.3125 L 17.480469 65.023438 C 17.652344 65.527344 17.84375 66.003906 18.058594 66.5 Z M 88.363281 59.109375 C 88.457031 58.589844 88.566406 58.046875 88.628906 57.507812 L 18.714844 67.984375 C 18.933594 68.480469 19.171875 68.949219 19.4375 69.4375 Z M 88.363281 59.109375 " fill-opacity="1" fill-rule="nonzero"/></g></g></g><path fill="rgb(10.978699%, 12.939453%, 12.548828%)" d="M 617.75 158.121094 C 617.671875 157.90625 617.605469 157.679688 617.539062 157.464844 L 635.890625 139.113281 C 636.105469 139.179688 636.332031 139.246094 636.546875 139.324219 Z M 633.746094 138.644531 C 633.492188 138.601562 633.222656 138.574219 632.96875 138.550781 L 616.960938 154.558594 C 616.988281 154.8125 617.015625 155.078125 617.054688 155.335938 Z M 639.988281 141.109375 C 639.816406 140.988281 639.640625 140.867188 639.46875 140.757812 L 619.171875 161.054688 C 619.277344 161.230469 619.398438 161.402344 619.519531 161.578125 Z M 637.777344 139.835938 C 637.578125 139.742188 637.378906 139.648438 637.175781 139.566406 L 617.992188 158.75 C 618.074219 158.953125 618.167969 159.152344 618.261719 159.351562 Z M 638.917969 140.4375 C 638.730469 140.332031 638.542969 140.222656 638.355469 140.128906 L 618.527344 159.957031 C 618.621094 160.144531 618.730469 160.332031 618.835938 160.519531 Z M 625.695312 139.714844 C 625.066406 139.996094 624.449219 140.316406 623.859375 140.679688 L 619.089844 145.449219 C 618.714844 146.039062 618.394531 146.652344 618.125 147.285156 Z M 631.28125 138.480469 L 616.894531 152.871094 C 616.894531 153.164062 616.894531 153.445312 616.90625 153.742188 L 632.140625 138.496094 C 631.859375 138.480469 631.5625 138.480469 631.28125 138.480469 Z M 646.300781 153.109375 L 631.523438 167.886719 C 631.816406 167.886719 632.125 167.886719 632.421875 167.859375 L 646.273438 154.007812 C 646.285156 153.714844 646.300781 153.40625 646.300781 153.109375 Z M 640.980469 141.871094 C 640.820312 141.738281 640.660156 141.601562 640.5 141.484375 L 619.894531 162.085938 C 620.015625 162.246094 620.148438 162.40625 620.285156 162.570312 Z M 630.359375 138.535156 C 630.023438 138.5625 629.699219 138.601562 629.367188 138.65625 L 617.070312 150.953125 C 617.015625 151.289062 616.976562 151.609375 616.949219 151.945312 Z M 628.292969 138.855469 C 627.890625 138.949219 627.492188 139.058594 627.089844 139.191406 L 617.589844 148.675781 C 617.46875 149.078125 617.351562 149.46875 617.257812 149.882812 Z M 635.195312 138.925781 C 634.953125 138.871094 634.726562 138.816406 634.484375 138.761719 L 617.175781 156.070312 C 617.230469 156.3125 617.28125 156.539062 617.335938 156.78125 Z M 646.03125 155.992188 C 646.097656 155.640625 646.152344 155.308594 646.191406 154.960938 L 633.371094 167.78125 C 633.71875 167.738281 634.066406 167.6875 634.402344 167.617188 Z M 646.273438 152.265625 C 646.257812 152 646.230469 151.730469 646.207031 151.460938 L 629.875 167.78125 C 630.144531 167.804688 630.410156 167.832031 630.679688 167.847656 Z M 646.085938 150.699219 C 646.042969 150.457031 645.992188 150.21875 645.9375 149.976562 L 628.375 167.523438 C 628.617188 167.578125 628.855469 167.632812 629.097656 167.671875 Z M 641.890625 142.6875 C 641.746094 142.539062 641.597656 142.40625 641.449219 142.257812 L 620.683594 163.023438 C 620.820312 163.171875 620.964844 163.320312 621.113281 163.464844 Z M 642.75 162.757812 C 643.484375 161.898438 644.101562 160.988281 644.609375 160.023438 L 638.433594 166.199219 C 639.398438 165.691406 640.3125 165.074219 641.167969 164.335938 Z M 645.761719 149.28125 C 645.695312 149.050781 645.628906 148.835938 645.5625 148.609375 L 627.023438 167.148438 C 627.25 167.21875 627.464844 167.285156 627.691406 167.351562 Z M 645.335938 158.441406 C 645.496094 158.011719 645.640625 157.585938 645.761719 157.144531 L 635.554688 167.351562 C 635.996094 167.230469 636.425781 167.082031 636.855469 166.921875 Z M 643.511719 144.5625 C 643.390625 144.402344 643.269531 144.230469 643.136719 144.066406 L 622.480469 164.710938 C 622.640625 164.847656 622.816406 164.964844 622.976562 165.085938 Z M 645.335938 147.964844 C 645.253906 147.753906 645.171875 147.550781 645.078125 147.351562 L 625.75 166.679688 C 625.949219 166.773438 626.164062 166.855469 626.367188 166.933594 Z M 642.734375 143.585938 C 642.601562 143.425781 642.46875 143.277344 642.320312 143.128906 L 621.542969 163.90625 C 621.691406 164.054688 621.851562 164.1875 622 164.324219 Z M 644.195312 145.609375 C 644.089844 145.433594 643.980469 145.246094 643.859375 145.074219 L 623.484375 165.449219 C 623.660156 165.570312 623.832031 165.675781 624.019531 165.785156 Z M 644.8125 146.746094 C 644.71875 146.558594 644.625 146.359375 644.515625 146.171875 L 624.582031 166.105469 C 624.769531 166.210938 624.957031 166.304688 625.160156 166.398438 Z M 644.8125 146.746094 " fill-opacity="1" fill-rule="nonzero"/><path fill="rgb(92.549133%, 32.159424%, 25.878906%)" d="M 156.3125 89.234375 C 156.273438 89.125 156.238281 89.011719 156.207031 88.90625 L 165.382812 79.730469 C 165.488281 79.765625 165.601562 79.796875 165.710938 79.835938 Z M 164.308594 79.496094 C 164.183594 79.476562 164.050781 79.460938 163.921875 79.449219 L 155.917969 87.453125 C 155.933594 87.578125 155.945312 87.714844 155.964844 87.839844 Z M 167.429688 80.726562 C 167.34375 80.667969 167.257812 80.609375 167.167969 80.554688 L 157.023438 90.699219 C 157.078125 90.789062 157.136719 90.875 157.199219 90.960938 Z M 166.324219 80.09375 C 166.226562 80.046875 166.125 80 166.023438 79.957031 L 156.433594 89.546875 C 156.472656 89.648438 156.519531 89.75 156.566406 89.851562 Z M 166.894531 80.394531 C 166.800781 80.339844 166.707031 80.285156 166.613281 80.238281 L 156.703125 90.152344 C 156.75 90.246094 156.800781 90.339844 156.855469 90.433594 Z M 160.285156 80.03125 C 159.96875 80.171875 159.664062 80.332031 159.367188 80.515625 L 156.984375 82.898438 C 156.796875 83.191406 156.636719 83.5 156.5 83.816406 Z M 163.078125 79.414062 L 155.886719 86.609375 C 155.886719 86.753906 155.886719 86.894531 155.890625 87.042969 L 163.507812 79.421875 C 163.367188 79.414062 163.21875 79.414062 163.078125 79.414062 Z M 170.585938 86.730469 L 163.199219 94.117188 C 163.347656 94.117188 163.5 94.117188 163.648438 94.101562 L 170.570312 87.175781 C 170.578125 87.03125 170.585938 86.875 170.585938 86.730469 Z M 167.925781 81.109375 C 167.847656 81.042969 167.765625 80.976562 167.683594 80.914062 L 157.386719 91.214844 C 157.445312 91.296875 157.511719 91.375 157.578125 91.457031 Z M 162.617188 79.441406 C 162.449219 79.457031 162.289062 79.476562 162.121094 79.503906 L 155.972656 85.652344 C 155.945312 85.816406 155.925781 85.980469 155.910156 86.144531 Z M 161.585938 79.601562 C 161.382812 79.648438 161.183594 79.703125 160.980469 79.769531 L 156.234375 84.511719 C 156.171875 84.714844 156.113281 84.90625 156.066406 85.113281 Z M 165.035156 79.636719 C 164.914062 79.609375 164.800781 79.582031 164.679688 79.554688 L 156.027344 88.210938 C 156.050781 88.328125 156.078125 88.445312 156.105469 88.5625 Z M 170.453125 88.167969 C 170.484375 87.996094 170.511719 87.828125 170.53125 87.652344 L 164.121094 94.0625 C 164.296875 94.042969 164.472656 94.015625 164.636719 93.980469 Z M 170.570312 86.308594 C 170.566406 86.171875 170.550781 86.039062 170.539062 85.90625 L 162.375 94.0625 C 162.507812 94.074219 162.640625 94.089844 162.777344 94.097656 Z M 170.476562 85.523438 C 170.457031 85.402344 170.429688 85.28125 170.40625 85.160156 L 161.625 93.933594 C 161.746094 93.960938 161.867188 93.988281 161.984375 94.007812 Z M 168.382812 81.519531 C 168.308594 81.445312 168.234375 81.378906 168.160156 81.304688 L 157.78125 91.683594 C 157.847656 91.757812 157.921875 91.832031 157.996094 91.90625 Z M 168.8125 91.550781 C 169.179688 91.121094 169.488281 90.667969 169.742188 90.183594 L 166.652344 93.273438 C 167.136719 93.019531 167.589844 92.710938 168.019531 92.339844 Z M 170.316406 84.8125 C 170.285156 84.699219 170.25 84.59375 170.21875 84.480469 L 160.949219 93.746094 C 161.0625 93.78125 161.167969 93.816406 161.28125 93.847656 Z M 170.101562 89.394531 C 170.183594 89.179688 170.257812 88.964844 170.316406 88.746094 L 165.214844 93.847656 C 165.433594 93.789062 165.648438 93.714844 165.863281 93.632812 Z M 169.191406 82.457031 C 169.132812 82.375 169.070312 82.289062 169.003906 82.207031 L 158.679688 92.527344 C 158.757812 92.59375 158.84375 92.65625 158.925781 92.714844 Z M 170.101562 84.15625 C 170.0625 84.050781 170.023438 83.949219 169.976562 83.847656 L 160.3125 93.511719 C 160.414062 93.558594 160.519531 93.601562 160.621094 93.640625 Z M 168.804688 81.96875 C 168.738281 81.886719 168.671875 81.8125 168.597656 81.738281 L 158.210938 92.125 C 158.28125 92.199219 158.363281 92.265625 158.4375 92.335938 Z M 169.535156 82.980469 C 169.480469 82.890625 169.425781 82.796875 169.367188 82.710938 L 159.179688 92.898438 C 159.265625 92.957031 159.355469 93.011719 159.449219 93.066406 Z M 169.84375 83.546875 C 169.796875 83.453125 169.75 83.355469 169.695312 83.261719 L 159.730469 93.226562 C 159.824219 93.277344 159.917969 93.324219 160.015625 93.371094 Z M 169.84375 83.546875 " fill-opacity="1" fill-rule="nonzero"/><path fill="rgb(10.978699%, 12.939453%, 12.548828%)" d="M 90.375 137.796875 C 90.316406 137.644531 90.269531 137.484375 90.222656 137.328125 L 103.292969 124.261719 C 103.445312 124.308594 103.605469 124.355469 103.757812 124.414062 Z M 101.765625 123.925781 C 101.585938 123.898438 101.394531 123.878906 101.210938 123.859375 L 89.8125 135.261719 C 89.832031 135.441406 89.851562 135.632812 89.878906 135.8125 Z M 106.210938 125.683594 C 106.085938 125.597656 105.960938 125.511719 105.839844 125.433594 L 91.386719 139.886719 C 91.464844 140.011719 91.550781 140.132812 91.632812 140.257812 Z M 104.636719 124.777344 C 104.492188 124.710938 104.351562 124.644531 104.207031 124.585938 L 90.546875 138.246094 C 90.605469 138.390625 90.671875 138.53125 90.738281 138.675781 Z M 105.449219 125.207031 C 105.3125 125.128906 105.179688 125.054688 105.046875 124.984375 L 90.929688 139.105469 C 90.996094 139.238281 91.070312 139.371094 91.148438 139.503906 Z M 96.03125 124.691406 C 95.585938 124.890625 95.144531 125.121094 94.726562 125.378906 L 91.328125 128.773438 C 91.0625 129.191406 90.832031 129.632812 90.644531 130.082031 Z M 100.011719 123.8125 L 89.765625 134.058594 C 89.765625 134.269531 89.765625 134.46875 89.773438 134.679688 L 100.621094 123.824219 C 100.421875 123.8125 100.210938 123.8125 100.011719 123.8125 Z M 110.703125 134.230469 L 100.183594 144.75 C 100.390625 144.75 100.609375 144.75 100.820312 144.734375 L 110.683594 134.867188 C 110.695312 134.660156 110.703125 134.441406 110.703125 134.230469 Z M 106.917969 126.226562 C 106.800781 126.132812 106.6875 126.035156 106.574219 125.949219 L 91.902344 140.621094 C 91.988281 140.734375 92.082031 140.851562 92.179688 140.964844 Z M 99.351562 123.851562 C 99.113281 123.871094 98.882812 123.898438 98.644531 123.9375 L 89.890625 132.695312 C 89.851562 132.933594 89.824219 133.160156 89.804688 133.398438 Z M 97.882812 124.078125 C 97.597656 124.148438 97.3125 124.222656 97.023438 124.320312 L 90.261719 131.074219 C 90.175781 131.359375 90.089844 131.636719 90.023438 131.929688 Z M 102.796875 124.128906 C 102.625 124.089844 102.460938 124.050781 102.289062 124.011719 L 89.964844 136.339844 C 90.003906 136.507812 90.042969 136.671875 90.078125 136.84375 Z M 110.511719 136.28125 C 110.5625 136.03125 110.597656 135.792969 110.628906 135.546875 L 101.5 144.675781 C 101.746094 144.648438 101.996094 144.609375 102.234375 144.5625 Z M 110.683594 133.628906 C 110.675781 133.4375 110.65625 133.246094 110.636719 133.054688 L 99.007812 144.675781 C 99.199219 144.695312 99.390625 144.714844 99.582031 144.722656 Z M 110.550781 132.511719 C 110.523438 132.339844 110.484375 132.167969 110.445312 131.996094 L 97.941406 144.492188 C 98.113281 144.53125 98.285156 144.570312 98.457031 144.597656 Z M 107.566406 126.808594 C 107.460938 126.703125 107.355469 126.609375 107.25 126.503906 L 92.464844 141.289062 C 92.558594 141.394531 92.664062 141.5 92.769531 141.605469 Z M 108.175781 141.097656 C 108.699219 140.488281 109.140625 139.839844 109.5 139.152344 L 105.105469 143.550781 C 105.789062 143.1875 106.441406 142.75 107.050781 142.222656 Z M 110.320312 131.5 C 110.273438 131.339844 110.226562 131.1875 110.179688 131.023438 L 96.976562 144.226562 C 97.140625 144.273438 97.292969 144.324219 97.453125 144.371094 Z M 110.015625 138.027344 C 110.132812 137.722656 110.234375 137.414062 110.320312 137.101562 L 103.054688 144.371094 C 103.367188 144.285156 103.671875 144.179688 103.976562 144.066406 Z M 108.71875 128.144531 C 108.632812 128.03125 108.546875 127.90625 108.453125 127.789062 L 93.742188 142.492188 C 93.855469 142.585938 93.980469 142.671875 94.097656 142.757812 Z M 110.015625 130.566406 C 109.960938 130.414062 109.902344 130.269531 109.835938 130.128906 L 96.070312 143.894531 C 96.214844 143.960938 96.367188 144.015625 96.507812 144.074219 Z M 108.167969 127.449219 C 108.070312 127.332031 107.976562 127.226562 107.871094 127.125 L 93.074219 141.917969 C 93.179688 142.023438 93.292969 142.117188 93.398438 142.214844 Z M 109.207031 128.886719 C 109.128906 128.765625 109.054688 128.628906 108.96875 128.507812 L 94.457031 143.015625 C 94.582031 143.101562 94.707031 143.175781 94.839844 143.253906 Z M 109.644531 129.699219 C 109.578125 129.566406 109.511719 129.421875 109.433594 129.289062 L 95.242188 143.484375 C 95.375 143.558594 95.507812 143.625 95.652344 143.691406 Z M 109.644531 129.699219 " fill-opacity="1" fill-rule="nonzero"/><path fill="rgb(82.749939%, 82.749939%, 82.749939%)" d="M 683.695312 234.449219 C 683.703125 235.167969 683.125 235.761719 682.40625 235.769531 C 681.6875 235.777344 681.097656 235.195312 681.085938 234.476562 C 681.078125 233.761719 681.660156 233.167969 682.378906 233.160156 C 683.097656 233.152344 683.6875 233.734375 683.695312 234.449219 " fill-opacity="1" fill-rule="nonzero"/><path fill="rgb(82.749939%, 82.749939%, 82.749939%)" d="M 678.179688 233.183594 C 678.898438 233.179688 679.460938 233.726562 679.46875 234.445312 C 679.476562 235.179688 678.914062 235.75 678.175781 235.746094 C 677.460938 235.738281 676.910156 235.183594 676.910156 234.464844 C 676.910156 233.746094 677.460938 233.1875 678.179688 233.183594 " fill-opacity="1" fill-rule="nonzero"/><path fill="rgb(82.749939%, 82.749939%, 82.749939%)" d="M 683.675781 238.582031 C 683.675781 239.300781 683.121094 239.859375 682.402344 239.867188 C 681.667969 239.871094 681.101562 239.300781 681.109375 238.5625 C 681.117188 237.847656 681.679688 237.296875 682.402344 237.300781 C 683.121094 237.304688 683.675781 237.863281 683.675781 238.582031 " fill-opacity="1" fill-rule="nonzero"/><path fill="rgb(82.749939%, 82.749939%, 82.749939%)" d="M 678.183594 239.851562 C 677.46875 239.847656 676.914062 239.285156 676.921875 238.566406 C 676.925781 237.855469 677.496094 237.304688 678.214844 237.316406 C 678.910156 237.324219 679.453125 237.878906 679.457031 238.578125 C 679.460938 239.292969 678.898438 239.851562 678.183594 239.851562 " fill-opacity="1" fill-rule="nonzero"/><path fill="rgb(82.749939%, 82.749939%, 82.749939%)" d="M 683.628906 230.308594 C 683.59375 230.980469 683.015625 231.523438 682.355469 231.5 C 681.671875 231.472656 681.109375 230.863281 681.15625 230.195312 C 681.207031 229.519531 681.792969 228.988281 682.449219 229.027344 C 683.121094 229.066406 683.660156 229.652344 683.628906 230.308594 " fill-opacity="1" fill-rule="nonzero"/><path fill="rgb(82.749939%, 82.749939%, 82.749939%)" d="M 687.746094 234.507812 C 687.714844 235.179688 687.136719 235.722656 686.476562 235.699219 C 685.792969 235.675781 685.230469 235.070312 685.277344 234.402344 C 685.320312 233.726562 685.910156 233.191406 686.5625 233.230469 C 687.238281 233.265625 687.777344 233.851562 687.746094 234.507812 " fill-opacity="1" fill-rule="nonzero"/><path fill="rgb(82.749939%, 82.749939%, 82.749939%)" d="M 686.496094 239.804688 C 685.820312 239.796875 685.273438 239.234375 685.289062 238.5625 C 685.300781 237.882812 685.871094 237.339844 686.542969 237.359375 C 687.207031 237.382812 687.734375 237.925781 687.730469 238.585938 C 687.730469 239.261719 687.171875 239.8125 686.496094 239.804688 " fill-opacity="1" fill-rule="nonzero"/><path fill="rgb(82.749939%, 82.749939%, 82.749939%)" d="M 678.1875 229.050781 C 678.871094 229.046875 679.410156 229.59375 679.402344 230.28125 C 679.390625 230.949219 678.859375 231.472656 678.191406 231.472656 C 677.507812 231.476562 676.96875 230.929688 676.976562 230.246094 C 676.988281 229.578125 677.515625 229.050781 678.1875 229.050781 " fill-opacity="1" fill-rule="nonzero"/><path fill="rgb(82.749939%, 82.749939%, 82.749939%)" d="M 682.378906 241.59375 C 683.054688 241.589844 683.578125 242.101562 683.582031 242.773438 C 683.585938 243.445312 683.074219 243.972656 682.402344 243.976562 C 681.730469 243.980469 681.207031 243.46875 681.199219 242.796875 C 681.195312 242.125 681.710938 241.601562 682.378906 241.59375 " fill-opacity="1" fill-rule="nonzero"/><path fill="rgb(82.749939%, 82.749939%, 82.749939%)" d="M 675.253906 238.597656 C 675.246094 239.261719 674.703125 239.78125 674.035156 239.765625 C 673.390625 239.75 672.882812 239.21875 672.886719 238.570312 C 672.894531 237.90625 673.4375 237.386719 674.105469 237.402344 C 674.75 237.417969 675.257812 237.945312 675.253906 238.597656 " fill-opacity="1" fill-rule="nonzero"/><path fill="rgb(82.749939%, 82.749939%, 82.749939%)" d="M 678.207031 243.96875 C 677.542969 243.976562 677.007812 243.449219 677.007812 242.785156 C 677.007812 242.136719 677.523438 241.613281 678.167969 241.601562 C 678.835938 241.59375 679.371094 242.121094 679.371094 242.785156 C 679.371094 243.4375 678.855469 243.957031 678.207031 243.96875 " fill-opacity="1" fill-rule="nonzero"/><path fill="rgb(82.749939%, 82.749939%, 82.749939%)" d="M 674.074219 235.652344 C 673.402344 235.652344 672.878906 235.128906 672.882812 234.457031 C 672.886719 233.785156 673.414062 233.269531 674.089844 233.277344 C 674.742188 233.285156 675.253906 233.796875 675.257812 234.453125 C 675.265625 235.125 674.746094 235.652344 674.074219 235.652344 " fill-opacity="1" fill-rule="nonzero"/><path fill="rgb(82.749939%, 82.749939%, 82.749939%)" d="M 686.523438 229.085938 C 687.164062 229.089844 687.6875 229.621094 687.6875 230.261719 C 687.6875 230.921875 687.136719 231.457031 686.476562 231.4375 C 685.835938 231.421875 685.324219 230.882812 685.332031 230.242188 C 685.34375 229.597656 685.878906 229.078125 686.523438 229.085938 " fill-opacity="1" fill-rule="nonzero"/><path fill="rgb(82.749939%, 82.749939%, 82.749939%)" d="M 687.664062 242.78125 C 687.667969 243.398438 687.136719 243.9375 686.515625 243.941406 C 685.894531 243.945312 685.359375 243.414062 685.355469 242.789062 C 685.351562 242.171875 685.882812 241.632812 686.503906 241.632812 C 687.125 241.628906 687.660156 242.160156 687.664062 242.78125 " fill-opacity="1" fill-rule="nonzero"/><path fill="rgb(82.749939%, 82.749939%, 82.749939%)" d="M 675.21875 230.246094 C 675.230469 230.863281 674.707031 231.402344 674.085938 231.414062 C 673.46875 231.421875 672.929688 230.898438 672.921875 230.277344 C 672.910156 229.660156 673.433594 229.121094 674.054688 229.113281 C 674.671875 229.101562 675.210938 229.625 675.21875 230.246094 " fill-opacity="1" fill-rule="nonzero"/><path fill="rgb(82.749939%, 82.749939%, 82.749939%)" d="M 674.125 241.675781 C 674.746094 241.699219 675.207031 242.203125 675.179688 242.839844 C 675.15625 243.460938 674.652344 243.921875 674.015625 243.898438 C 673.394531 243.871094 672.933594 243.367188 672.960938 242.730469 C 672.984375 242.109375 673.488281 241.652344 674.125 241.675781 " fill-opacity="1" fill-rule="nonzero"/><path fill="rgb(82.749939%, 82.749939%, 82.749939%)" d="M 690.726562 233.351562 C 691.351562 233.359375 691.832031 233.847656 691.824219 234.476562 C 691.820312 235.105469 691.332031 235.582031 690.699219 235.578125 C 690.074219 235.570312 689.59375 235.082031 689.601562 234.449219 C 689.605469 233.824219 690.097656 233.347656 690.726562 233.351562 " fill-opacity="1" fill-rule="nonzero"/><path fill="rgb(82.749939%, 82.749939%, 82.749939%)" d="M 683.503906 226.128906 C 683.511719 226.761719 683.03125 227.25 682.40625 227.253906 C 681.773438 227.261719 681.285156 226.785156 681.28125 226.15625 C 681.273438 225.527344 681.75 225.035156 682.378906 225.03125 C 683.007812 225.023438 683.5 225.503906 683.503906 226.128906 " fill-opacity="1" fill-rule="nonzero"/><path fill="rgb(82.749939%, 82.749939%, 82.749939%)" d="M 691.820312 238.570312 C 691.828125 239.203125 691.347656 239.691406 690.714844 239.691406 C 690.082031 239.691406 689.601562 239.207031 689.605469 238.574219 C 689.609375 237.960938 690.078125 237.484375 690.691406 237.472656 C 691.324219 237.464844 691.816406 237.941406 691.820312 238.570312 " fill-opacity="1" fill-rule="nonzero"/><path fill="rgb(82.749939%, 82.749939%, 82.749939%)" d="M 678.191406 225.039062 C 678.816406 225.042969 679.300781 225.53125 679.292969 226.15625 C 679.285156 226.78125 678.792969 227.257812 678.164062 227.246094 C 677.558594 227.238281 677.085938 226.757812 677.085938 226.148438 C 677.082031 225.523438 677.566406 225.039062 678.191406 225.039062 " fill-opacity="1" fill-rule="nonzero"/><path fill="rgb(82.749939%, 82.749939%, 82.749939%)" d="M 690.699219 229.179688 C 691.289062 229.167969 691.800781 229.675781 691.796875 230.269531 C 691.792969 230.84375 691.304688 231.335938 690.726562 231.34375 C 690.136719 231.355469 689.625 230.847656 689.628906 230.253906 C 689.632812 229.679688 690.121094 229.1875 690.699219 229.179688 " fill-opacity="1" fill-rule="nonzero"/><path fill="rgb(82.749939%, 82.749939%, 82.749939%)" d="M 670.949219 238.570312 C 670.957031 239.144531 670.464844 239.648438 669.890625 239.664062 C 669.300781 239.679688 668.78125 239.164062 668.785156 238.574219 C 668.792969 237.996094 669.292969 237.503906 669.867188 237.503906 C 670.441406 237.503906 670.941406 237.996094 670.949219 238.570312 " fill-opacity="1" fill-rule="nonzero"/><path fill="rgb(82.749939%, 82.749939%, 82.749939%)" d="M 669.859375 235.546875 C 669.269531 235.542969 668.765625 235.023438 668.785156 234.433594 C 668.800781 233.859375 669.300781 233.375 669.875 233.378906 C 670.46875 233.386719 670.96875 233.90625 670.949219 234.492188 C 670.933594 235.070312 670.433594 235.554688 669.859375 235.546875 " fill-opacity="1" fill-rule="nonzero"/><path fill="rgb(82.749939%, 82.749939%, 82.749939%)" d="M 687.59375 226.160156 C 687.582031 226.75 687.058594 227.25 686.472656 227.226562 C 685.894531 227.203125 685.417969 226.699219 685.425781 226.128906 C 685.4375 225.535156 685.960938 225.035156 686.546875 225.058594 C 687.125 225.082031 687.605469 225.585938 687.59375 226.160156 " fill-opacity="1" fill-rule="nonzero"/><path fill="rgb(82.749939%, 82.749939%, 82.749939%)" d="M 679.273438 246.910156 C 679.269531 247.5 678.75 248.003906 678.164062 247.988281 C 677.585938 247.96875 677.101562 247.472656 677.105469 246.898438 C 677.109375 246.304688 677.625 245.804688 678.214844 245.820312 C 678.792969 245.835938 679.277344 246.335938 679.273438 246.910156 " fill-opacity="1" fill-rule="nonzero"/><path fill="rgb(82.749939%, 82.749939%, 82.749939%)" d="M 683.480469 246.898438 C 683.484375 247.5 682.988281 247.996094 682.386719 247.992188 C 681.785156 247.992188 681.292969 247.488281 681.300781 246.886719 C 681.308594 246.304688 681.792969 245.824219 682.375 245.8125 C 682.976562 245.804688 683.480469 246.296875 683.480469 246.898438 " fill-opacity="1" fill-rule="nonzero"/><path fill="rgb(82.749939%, 82.749939%, 82.749939%)" d="M 674.074219 225.082031 C 674.65625 225.085938 675.140625 225.582031 675.128906 226.160156 C 675.121094 226.742188 674.621094 227.21875 674.042969 227.203125 C 673.476562 227.1875 673.015625 226.714844 673.011719 226.148438 C 673.007812 225.570312 673.496094 225.082031 674.074219 225.082031 " fill-opacity="1" fill-rule="nonzero"/><path fill="rgb(82.749939%, 82.749939%, 82.749939%)" d="M 690.695312 243.84375 C 690.113281 243.835938 689.636719 243.335938 689.652344 242.757812 C 689.671875 242.175781 690.175781 241.703125 690.75 241.726562 C 691.320312 241.75 691.777344 242.230469 691.773438 242.792969 C 691.769531 243.371094 691.273438 243.855469 690.695312 243.84375 " fill-opacity="1" fill-rule="nonzero"/><path fill="rgb(82.749939%, 82.749939%, 82.749939%)" d="M 687.550781 246.910156 C 687.550781 247.488281 687.09375 247.941406 686.515625 247.945312 C 685.921875 247.949219 685.453125 247.472656 685.46875 246.878906 C 685.480469 246.300781 685.945312 245.855469 686.527344 245.863281 C 687.105469 245.871094 687.554688 246.328125 687.550781 246.910156 " fill-opacity="1" fill-rule="nonzero"/><path fill="rgb(82.749939%, 82.749939%, 82.749939%)" d="M 670.898438 230.269531 C 670.894531 230.855469 670.445312 231.296875 669.859375 231.292969 C 669.277344 231.289062 668.832031 230.839844 668.835938 230.253906 C 668.839844 229.671875 669.289062 229.226562 669.875 229.230469 C 670.460938 229.234375 670.902344 229.683594 670.898438 230.269531 " fill-opacity="1" fill-rule="nonzero"/><path fill="rgb(82.749939%, 82.749939%, 82.749939%)" d="M 674.074219 245.882812 C 674.65625 245.886719 675.101562 246.34375 675.089844 246.929688 C 675.078125 247.492188 674.632812 247.925781 674.066406 247.921875 C 673.484375 247.921875 673.039062 247.464844 673.050781 246.878906 C 673.0625 246.316406 673.507812 245.882812 674.074219 245.882812 " fill-opacity="1" fill-rule="nonzero"/><path fill="rgb(82.749939%, 82.749939%, 82.749939%)" d="M 670.882812 242.769531 C 670.890625 243.335938 670.453125 243.789062 669.894531 243.800781 C 669.3125 243.8125 668.851562 243.359375 668.851562 242.78125 C 668.855469 242.214844 669.300781 241.773438 669.863281 241.769531 C 670.425781 241.769531 670.875 242.207031 670.882812 242.769531 " fill-opacity="1" fill-rule="nonzero"/><path fill="rgb(82.749939%, 82.749939%, 82.749939%)" d="M 690.699219 227.144531 C 690.152344 227.136719 689.691406 226.65625 689.710938 226.109375 C 689.730469 225.574219 690.195312 225.132812 690.726562 225.140625 C 691.273438 225.148438 691.734375 225.632812 691.714844 226.175781 C 691.695312 226.710938 691.230469 227.152344 690.699219 227.144531 " fill-opacity="1" fill-rule="nonzero"/><path fill="rgb(82.749939%, 82.749939%, 82.749939%)" d="M 694.847656 233.464844 C 695.378906 233.472656 695.832031 233.933594 695.832031 234.46875 C 695.828125 235.019531 695.34375 235.488281 694.796875 235.464844 C 694.261719 235.441406 693.816406 234.96875 693.832031 234.441406 C 693.847656 233.902344 694.3125 233.457031 694.847656 233.464844 " fill-opacity="1" fill-rule="nonzero"/><path fill="rgb(82.749939%, 82.749939%, 82.749939%)" d="M 683.390625 221.945312 C 683.386719 222.480469 682.933594 222.9375 682.398438 222.941406 C 681.847656 222.945312 681.375 222.460938 681.390625 221.914062 C 681.40625 221.378906 681.875 220.933594 682.40625 220.941406 C 682.941406 220.949219 683.394531 221.410156 683.390625 221.945312 " fill-opacity="1" fill-rule="nonzero"/><path fill="rgb(82.749939%, 82.749939%, 82.749939%)" d="M 678.1875 222.929688 C 677.652344 222.929688 677.195312 222.46875 677.199219 221.9375 C 677.203125 221.40625 677.660156 220.949219 678.191406 220.953125 C 678.726562 220.953125 679.179688 221.414062 679.179688 221.945312 C 679.175781 222.476562 678.71875 222.933594 678.1875 222.929688 " fill-opacity="1" fill-rule="nonzero"/><path fill="rgb(82.749939%, 82.749939%, 82.749939%)" d="M 695.824219 238.566406 C 695.835938 239.097656 695.378906 239.566406 694.847656 239.574219 C 694.316406 239.585938 693.847656 239.128906 693.839844 238.597656 C 693.828125 238.070312 694.285156 237.601562 694.816406 237.589844 C 695.34375 237.582031 695.816406 238.035156 695.824219 238.566406 " fill-opacity="1" fill-rule="nonzero"/><path fill="rgb(82.749939%, 82.749939%, 82.749939%)" d="M 691.6875 246.925781 C 691.675781 247.464844 691.207031 247.902344 690.671875 247.878906 C 690.144531 247.851562 689.726562 247.40625 689.738281 246.882812 C 689.75 246.34375 690.21875 245.902344 690.753906 245.929688 C 691.28125 245.957031 691.699219 246.402344 691.6875 246.925781 " fill-opacity="1" fill-rule="nonzero"/><path fill="rgb(82.749939%, 82.749939%, 82.749939%)" d="M 670.828125 226.160156 C 670.820312 226.691406 670.394531 227.105469 669.859375 227.101562 C 669.3125 227.097656 668.886719 226.65625 668.90625 226.105469 C 668.929688 225.574219 669.363281 225.167969 669.894531 225.183594 C 670.425781 225.199219 670.835938 225.628906 670.828125 226.160156 " fill-opacity="1" fill-rule="nonzero"/><path fill="rgb(82.749939%, 82.749939%, 82.749939%)" d="M 695.785156 230.273438 C 695.78125 230.8125 695.359375 231.222656 694.820312 231.214844 C 694.28125 231.210938 693.871094 230.789062 693.878906 230.25 C 693.882812 229.710938 694.304688 229.300781 694.84375 229.308594 C 695.382812 229.3125 695.792969 229.734375 695.785156 230.273438 " fill-opacity="1" fill-rule="nonzero"/><path fill="rgb(82.749939%, 82.749939%, 82.749939%)" d="M 686.527344 222.886719 C 685.984375 222.894531 685.570312 222.488281 685.566406 221.945312 C 685.5625 221.40625 685.972656 220.996094 686.515625 220.996094 C 687.039062 220.996094 687.441406 221.394531 687.457031 221.914062 C 687.46875 222.457031 687.0625 222.878906 686.527344 222.886719 " fill-opacity="1" fill-rule="nonzero"/><path fill="rgb(82.749939%, 82.749939%, 82.749939%)" d="M 674.058594 222.875 C 673.539062 222.867188 673.136719 222.460938 673.136719 221.941406 C 673.136719 221.402344 673.5625 220.992188 674.101562 221.007812 C 674.617188 221.023438 675.011719 221.441406 675.003906 221.960938 C 674.992188 222.480469 674.578125 222.878906 674.058594 222.875 " fill-opacity="1" fill-rule="nonzero"/><path fill="rgb(82.749939%, 82.749939%, 82.749939%)" d="M 666.683594 234.472656 C 666.679688 234.996094 666.273438 235.398438 665.75 235.398438 C 665.210938 235.398438 664.800781 234.976562 664.816406 234.433594 C 664.828125 233.914062 665.242188 233.519531 665.769531 233.53125 C 666.289062 233.539062 666.6875 233.949219 666.683594 234.472656 " fill-opacity="1" fill-rule="nonzero"/><path fill="rgb(82.749939%, 82.749939%, 82.749939%)" d="M 694.820312 243.71875 C 694.296875 243.714844 693.898438 243.308594 693.898438 242.785156 C 693.898438 242.246094 694.320312 241.835938 694.863281 241.851562 C 695.382812 241.863281 695.777344 242.28125 695.765625 242.808594 C 695.757812 243.328125 695.34375 243.726562 694.820312 243.71875 " fill-opacity="1" fill-rule="nonzero"/><path fill="rgb(82.749939%, 82.749939%, 82.749939%)" d="M 678.175781 250.171875 C 678.699219 250.167969 679.113281 250.5625 679.125 251.082031 C 679.136719 251.625 678.722656 252.042969 678.183594 252.042969 C 677.660156 252.039062 677.257812 251.632812 677.253906 251.109375 C 677.253906 250.585938 677.652344 250.179688 678.175781 250.171875 " fill-opacity="1" fill-rule="nonzero"/><path fill="rgb(82.749939%, 82.749939%, 82.749939%)" d="M 683.332031 251.085938 C 683.34375 251.632812 682.933594 252.046875 682.390625 252.046875 C 681.863281 252.046875 681.460938 251.652344 681.449219 251.125 C 681.441406 250.582031 681.851562 250.164062 682.390625 250.164062 C 682.917969 250.167969 683.324219 250.5625 683.332031 251.085938 " fill-opacity="1" fill-rule="nonzero"/><path fill="rgb(82.749939%, 82.749939%, 82.749939%)" d="M 664.816406 238.523438 C 664.847656 238.007812 665.277344 237.625 665.800781 237.652344 C 666.332031 237.675781 666.71875 238.125 666.679688 238.664062 C 666.640625 239.175781 666.199219 239.546875 665.675781 239.515625 C 665.167969 239.480469 664.789062 239.046875 664.816406 238.523438 " fill-opacity="1" fill-rule="nonzero"/><path fill="rgb(82.749939%, 82.749939%, 82.749939%)" d="M 670.796875 246.90625 C 670.792969 247.421875 670.378906 247.832031 669.863281 247.832031 C 669.347656 247.828125 668.9375 247.414062 668.941406 246.898438 C 668.941406 246.386719 669.355469 245.972656 669.871094 245.976562 C 670.386719 245.980469 670.796875 246.394531 670.796875 246.90625 " fill-opacity="1" fill-rule="nonzero"/><path fill="rgb(82.749939%, 82.749939%, 82.749939%)" d="M 687.429688 251.085938 C 687.441406 251.589844 687.015625 252.027344 686.511719 252.023438 C 686.019531 252.023438 685.605469 251.617188 685.589844 251.128906 C 685.578125 250.621094 686.003906 250.1875 686.511719 250.1875 C 687 250.1875 687.417969 250.59375 687.429688 251.085938 " fill-opacity="1" fill-rule="nonzero"/><path fill="rgb(82.749939%, 82.749939%, 82.749939%)" d="M 665.765625 229.347656 C 666.253906 229.359375 666.671875 229.792969 666.664062 230.277344 C 666.652344 230.769531 666.21875 231.183594 665.734375 231.175781 C 665.242188 231.164062 664.824219 230.730469 664.835938 230.246094 C 664.847656 229.757812 665.28125 229.339844 665.765625 229.347656 " fill-opacity="1" fill-rule="nonzero"/><path fill="rgb(82.749939%, 82.749939%, 82.749939%)" d="M 674.050781 250.207031 C 674.535156 250.191406 674.972656 250.617188 674.96875 251.105469 C 674.96875 251.578125 674.566406 251.992188 674.089844 252.007812 C 673.605469 252.019531 673.167969 251.59375 673.171875 251.105469 C 673.171875 250.632812 673.574219 250.21875 674.050781 250.207031 " fill-opacity="1" fill-rule="nonzero"/><path fill="rgb(82.749939%, 82.749939%, 82.749939%)" d="M 666.648438 242.789062 C 666.648438 243.277344 666.210938 243.703125 665.726562 243.6875 C 665.25 243.671875 664.847656 243.253906 664.847656 242.78125 C 664.851562 242.292969 665.285156 241.871094 665.773438 241.886719 C 666.246094 241.902344 666.652344 242.316406 666.648438 242.789062 " fill-opacity="1" fill-rule="nonzero"/><path fill="rgb(82.749939%, 82.749939%, 82.749939%)" d="M 691.59375 221.929688 C 691.597656 222.417969 691.210938 222.8125 690.722656 222.820312 C 690.238281 222.828125 689.839844 222.4375 689.832031 221.953125 C 689.828125 221.464844 690.214844 221.066406 690.703125 221.0625 C 691.1875 221.054688 691.585938 221.445312 691.59375 221.929688 " fill-opacity="1" fill-rule="nonzero"/><path fill="rgb(82.749939%, 82.749939%, 82.749939%)" d="M 695.710938 226.132812 C 695.71875 226.621094 695.328125 227.015625 694.84375 227.023438 C 694.355469 227.027344 693.957031 226.640625 693.953125 226.152344 C 693.945312 225.667969 694.335938 225.269531 694.820312 225.261719 C 695.308594 225.257812 695.707031 225.644531 695.710938 226.132812 " fill-opacity="1" fill-rule="nonzero"/><path fill="rgb(82.749939%, 82.749939%, 82.749939%)" d="M 691.554688 251.117188 C 691.550781 251.589844 691.164062 251.960938 690.691406 251.949219 C 690.21875 251.9375 689.851562 251.546875 689.871094 251.074219 C 689.886719 250.621094 690.257812 250.261719 690.714844 250.265625 C 691.1875 250.265625 691.5625 250.644531 691.554688 251.117188 " fill-opacity="1" fill-rule="nonzero"/><path fill="rgb(82.749939%, 82.749939%, 82.749939%)" d="M 669.847656 221.097656 C 670.320312 221.089844 670.707031 221.460938 670.710938 221.929688 C 670.714844 222.402344 670.339844 222.785156 669.867188 222.785156 C 669.410156 222.78125 669.039062 222.425781 669.023438 221.972656 C 669.007812 221.5 669.378906 221.109375 669.847656 221.097656 " fill-opacity="1" fill-rule="nonzero"/><path fill="rgb(82.749939%, 82.749939%, 82.749939%)" d="M 665.761719 225.304688 C 666.230469 225.3125 666.609375 225.707031 666.589844 226.175781 C 666.570312 226.628906 666.191406 226.992188 665.734375 226.984375 C 665.265625 226.976562 664.890625 226.578125 664.910156 226.109375 C 664.925781 225.65625 665.308594 225.296875 665.761719 225.304688 " fill-opacity="1" fill-rule="nonzero"/><path fill="rgb(82.749939%, 82.749939%, 82.749939%)" d="M 699.875 234.449219 C 699.886719 234.917969 699.511719 235.304688 699.039062 235.308594 C 698.566406 235.3125 698.191406 234.933594 698.191406 234.460938 C 698.195312 234.003906 698.554688 233.636719 699.007812 233.621094 C 699.480469 233.609375 699.867188 233.976562 699.875 234.449219 " fill-opacity="1" fill-rule="nonzero"/><path fill="rgb(82.749939%, 82.749939%, 82.749939%)" d="M 683.230469 217.820312 C 683.234375 218.289062 682.84375 218.671875 682.375 218.664062 C 681.921875 218.652344 681.554688 218.277344 681.550781 217.824219 C 681.550781 217.355469 681.9375 216.972656 682.410156 216.980469 C 682.863281 216.992188 683.230469 217.367188 683.230469 217.820312 " fill-opacity="1" fill-rule="nonzero"/><path fill="rgb(82.749939%, 82.749939%, 82.749939%)" d="M 694.847656 246.054688 C 695.324219 246.0625 695.6875 246.429688 695.683594 246.910156 C 695.679688 247.40625 695.292969 247.773438 694.792969 247.753906 C 694.320312 247.738281 693.96875 247.355469 693.980469 246.875 C 693.992188 246.402344 694.367188 246.046875 694.847656 246.054688 " fill-opacity="1" fill-rule="nonzero"/><path fill="rgb(82.749939%, 82.749939%, 82.749939%)" d="M 679.023438 217.839844 C 679.015625 218.285156 678.628906 218.660156 678.183594 218.65625 C 677.71875 218.652344 677.332031 218.246094 677.355469 217.785156 C 677.375 217.335938 677.773438 216.972656 678.214844 216.988281 C 678.664062 217.003906 679.035156 217.394531 679.023438 217.839844 " fill-opacity="1" fill-rule="nonzero"/><path fill="rgb(82.749939%, 82.749939%, 82.749939%)" d="M 699.871094 238.59375 C 699.863281 239.039062 699.484375 239.417969 699.035156 239.417969 C 698.570312 239.417969 698.179688 239.015625 698.199219 238.550781 C 698.214844 238.105469 698.609375 237.734375 699.054688 237.746094 C 699.5 237.757812 699.875 238.144531 699.871094 238.59375 " fill-opacity="1" fill-rule="nonzero"/><path fill="rgb(82.749939%, 82.749939%, 82.749939%)" d="M 669.867188 251.914062 C 669.433594 251.914062 669.066406 251.550781 669.058594 251.117188 C 669.054688 250.667969 669.441406 250.285156 669.890625 250.296875 C 670.324219 250.3125 670.683594 250.6875 670.675781 251.117188 C 670.667969 251.550781 670.296875 251.914062 669.867188 251.914062 " fill-opacity="1" fill-rule="nonzero"/><path fill="rgb(82.749939%, 82.749939%, 82.749939%)" d="M 687.320312 217.816406 C 687.324219 218.25 686.960938 218.621094 686.527344 218.628906 C 686.078125 218.640625 685.691406 218.253906 685.703125 217.808594 C 685.710938 217.371094 686.082031 217.011719 686.515625 217.015625 C 686.949219 217.015625 687.316406 217.382812 687.320312 217.816406 " fill-opacity="1" fill-rule="nonzero"/><path fill="rgb(82.749939%, 82.749939%, 82.749939%)" d="M 666.558594 246.914062 C 666.550781 247.347656 666.179688 247.710938 665.75 247.710938 C 665.300781 247.710938 664.921875 247.320312 664.941406 246.871094 C 664.960938 246.4375 665.339844 246.082031 665.769531 246.097656 C 666.207031 246.109375 666.5625 246.480469 666.558594 246.914062 " fill-opacity="1" fill-rule="nonzero"/><path fill="rgb(82.749939%, 82.749939%, 82.749939%)" d="M 699.042969 231.070312 C 698.613281 231.078125 698.238281 230.71875 698.226562 230.285156 C 698.210938 229.835938 698.597656 229.445312 699.042969 229.453125 C 699.476562 229.460938 699.84375 229.828125 699.84375 230.261719 C 699.84375 230.695312 699.480469 231.0625 699.042969 231.070312 " fill-opacity="1" fill-rule="nonzero"/><path fill="rgb(82.749939%, 82.749939%, 82.749939%)" d="M 699.820312 242.78125 C 699.824219 243.230469 699.476562 243.574219 699.027344 243.570312 C 698.578125 243.566406 698.242188 243.21875 698.25 242.769531 C 698.257812 242.335938 698.585938 242.007812 699.019531 242 C 699.46875 241.992188 699.816406 242.332031 699.820312 242.78125 " fill-opacity="1" fill-rule="nonzero"/><path fill="rgb(82.749939%, 82.749939%, 82.749939%)" d="M 683.171875 255.238281 C 683.167969 255.6875 682.8125 256.023438 682.359375 256.003906 C 681.925781 255.988281 681.605469 255.652344 681.613281 255.214844 C 681.617188 254.761719 681.96875 254.429688 682.425781 254.445312 C 682.859375 254.460938 683.175781 254.800781 683.171875 255.238281 " fill-opacity="1" fill-rule="nonzero"/><path fill="rgb(82.749939%, 82.749939%, 82.749939%)" d="M 674.851562 217.832031 C 674.84375 218.285156 674.492188 218.617188 674.039062 218.601562 C 673.605469 218.585938 673.285156 218.25 673.289062 217.8125 C 673.296875 217.359375 673.648438 217.027344 674.101562 217.042969 C 674.535156 217.058594 674.855469 217.394531 674.851562 217.832031 " fill-opacity="1" fill-rule="nonzero"/><path fill="rgb(82.749939%, 82.749939%, 82.749939%)" d="M 678.960938 255.222656 C 678.960938 255.660156 678.632812 255.992188 678.199219 255.996094 C 677.75 256 677.410156 255.65625 677.417969 255.203125 C 677.425781 254.773438 677.761719 254.449219 678.199219 254.453125 C 678.632812 254.457031 678.960938 254.789062 678.960938 255.222656 " fill-opacity="1" fill-rule="nonzero"/><path fill="rgb(82.749939%, 82.749939%, 82.749939%)" d="M 661.558594 235.234375 C 661.121094 235.242188 660.785156 234.917969 660.777344 234.488281 C 660.765625 234.035156 661.101562 233.691406 661.554688 233.691406 C 661.988281 233.695312 662.316406 234.027344 662.316406 234.460938 C 662.316406 234.898438 661.992188 235.230469 661.558594 235.234375 " fill-opacity="1" fill-rule="nonzero"/><path fill="rgb(82.749939%, 82.749939%, 82.749939%)" d="M 695.597656 221.957031 C 695.589844 222.386719 695.253906 222.714844 694.816406 222.707031 C 694.382812 222.699219 694.058594 222.363281 694.066406 221.925781 C 694.070312 221.492188 694.410156 221.167969 694.847656 221.175781 C 695.277344 221.179688 695.605469 221.519531 695.597656 221.957031 " fill-opacity="1" fill-rule="nonzero"/><path fill="rgb(82.749939%, 82.749939%, 82.749939%)" d="M 662.3125 238.5625 C 662.324219 238.996094 661.996094 239.339844 661.566406 239.351562 C 661.132812 239.359375 660.789062 239.035156 660.78125 238.601562 C 660.769531 238.167969 661.09375 237.824219 661.527344 237.816406 C 661.960938 237.808594 662.304688 238.132812 662.3125 238.5625 " fill-opacity="1" fill-rule="nonzero"/><path fill="rgb(82.749939%, 82.749939%, 82.749939%)" d="M 662.28125 242.78125 C 662.285156 243.175781 661.925781 243.53125 661.53125 243.523438 C 661.148438 243.511719 660.8125 243.171875 660.808594 242.789062 C 660.804688 242.394531 661.167969 242.039062 661.5625 242.050781 C 661.941406 242.058594 662.28125 242.398438 662.28125 242.78125 " fill-opacity="1" fill-rule="nonzero"/><path fill="rgb(82.749939%, 82.749939%, 82.749939%)" d="M 686.476562 255.976562 C 686.074219 255.960938 685.746094 255.605469 685.757812 255.203125 C 685.769531 254.78125 686.148438 254.441406 686.5625 254.472656 C 686.96875 254.503906 687.285156 254.867188 687.261719 255.269531 C 687.238281 255.671875 686.878906 255.996094 686.476562 255.976562 " fill-opacity="1" fill-rule="nonzero"/><path fill="rgb(82.749939%, 82.749939%, 82.749939%)" d="M 666.480469 221.949219 C 666.472656 222.335938 666.132812 222.671875 665.75 222.671875 C 665.347656 222.671875 665 222.308594 665.019531 221.910156 C 665.039062 221.523438 665.386719 221.199219 665.769531 221.210938 C 666.15625 221.222656 666.484375 221.566406 666.480469 221.949219 " fill-opacity="1" fill-rule="nonzero"/><path fill="rgb(82.749939%, 82.749939%, 82.749939%)" d="M 695.566406 251.105469 C 695.570312 251.503906 695.207031 251.855469 694.8125 251.84375 C 694.429688 251.832031 694.097656 251.488281 694.09375 251.109375 C 694.09375 250.710938 694.457031 250.355469 694.851562 250.371094 C 695.234375 250.382812 695.566406 250.726562 695.566406 251.105469 " fill-opacity="1" fill-rule="nonzero"/><path fill="rgb(82.749939%, 82.749939%, 82.749939%)" d="M 674.8125 255.238281 C 674.804688 255.632812 674.441406 255.980469 674.046875 255.964844 C 673.648438 255.953125 673.308594 255.585938 673.328125 255.191406 C 673.347656 254.808594 673.691406 254.484375 674.070312 254.484375 C 674.46875 254.484375 674.820312 254.839844 674.8125 255.238281 " fill-opacity="1" fill-rule="nonzero"/><path fill="rgb(82.749939%, 82.749939%, 82.749939%)" d="M 690.71875 218.5625 C 690.324219 218.570312 689.96875 218.214844 689.972656 217.820312 C 689.972656 217.421875 690.332031 217.070312 690.726562 217.082031 C 691.109375 217.089844 691.445312 217.421875 691.453125 217.804688 C 691.464844 218.199219 691.117188 218.558594 690.71875 218.5625 " fill-opacity="1" fill-rule="nonzero"/><path fill="rgb(82.749939%, 82.749939%, 82.749939%)" d="M 699.777344 226.125 C 699.789062 226.515625 699.441406 226.878906 699.042969 226.886719 C 698.648438 226.890625 698.292969 226.539062 698.292969 226.144531 C 698.292969 225.761719 698.621094 225.421875 699.003906 225.402344 C 699.394531 225.382812 699.761719 225.726562 699.777344 226.125 " fill-opacity="1" fill-rule="nonzero"/><path fill="rgb(82.749939%, 82.749939%, 82.749939%)" d="M 662.296875 230.242188 C 662.308594 230.644531 661.96875 231 661.566406 231.011719 C 661.164062 231.023438 660.808594 230.683594 660.796875 230.28125 C 660.785156 229.882812 661.121094 229.523438 661.527344 229.511719 C 661.929688 229.5 662.285156 229.839844 662.296875 230.242188 " fill-opacity="1" fill-rule="nonzero"/><path fill="rgb(82.749939%, 82.749939%, 82.749939%)" d="M 699.730469 246.882812 C 699.742188 247.289062 699.4375 247.601562 699.035156 247.601562 C 698.644531 247.601562 698.347656 247.3125 698.335938 246.925781 C 698.328125 246.519531 698.628906 246.207031 699.035156 246.207031 C 699.421875 246.207031 699.722656 246.496094 699.730469 246.882812 " fill-opacity="1" fill-rule="nonzero"/><path fill="rgb(82.749939%, 82.749939%, 82.749939%)" d="M 670.558594 217.820312 C 670.558594 218.210938 670.269531 218.507812 669.878906 218.515625 C 669.46875 218.519531 669.164062 218.210938 669.175781 217.804688 C 669.183594 217.414062 669.484375 217.125 669.875 217.128906 C 670.265625 217.132812 670.558594 217.429688 670.558594 217.820312 " fill-opacity="1" fill-rule="nonzero"/><path fill="rgb(82.749939%, 82.749939%, 82.749939%)" d="M 665.761719 251.785156 C 665.375 251.792969 665.070312 251.496094 665.070312 251.109375 C 665.066406 250.722656 665.367188 250.425781 665.753906 250.425781 C 666.128906 250.429688 666.414062 250.710938 666.429688 251.082031 C 666.441406 251.472656 666.148438 251.777344 665.761719 251.785156 " fill-opacity="1" fill-rule="nonzero"/><path fill="rgb(82.749939%, 82.749939%, 82.749939%)" d="M 690.710938 254.550781 C 691.097656 254.546875 691.398438 254.859375 691.390625 255.246094 C 691.378906 255.613281 691.085938 255.902344 690.714844 255.902344 C 690.328125 255.902344 690.027344 255.59375 690.035156 255.207031 C 690.046875 254.835938 690.339844 254.550781 690.710938 254.550781 " fill-opacity="1" fill-rule="nonzero"/><path fill="rgb(82.749939%, 82.749939%, 82.749939%)" d="M 681.738281 213.589844 C 681.757812 213.25 682.078125 212.953125 682.414062 212.96875 C 682.769531 212.980469 683.074219 213.324219 683.042969 213.671875 C 683.007812 214.015625 682.683594 214.296875 682.351562 214.269531 C 682.007812 214.246094 681.71875 213.921875 681.738281 213.589844 " fill-opacity="1" fill-rule="nonzero"/><path fill="rgb(82.749939%, 82.749939%, 82.749939%)" d="M 670.519531 255.226562 C 670.519531 255.5625 670.21875 255.871094 669.878906 255.878906 C 669.523438 255.882812 669.203125 255.554688 669.214844 255.203125 C 669.226562 254.863281 669.542969 254.566406 669.878906 254.574219 C 670.21875 254.578125 670.519531 254.886719 670.519531 255.226562 " fill-opacity="1" fill-rule="nonzero"/><path fill="rgb(82.749939%, 82.749939%, 82.749939%)" d="M 703.164062 233.804688 C 703.519531 233.8125 703.832031 234.148438 703.8125 234.496094 C 703.789062 234.835938 703.476562 235.128906 703.140625 235.121094 C 702.785156 235.113281 702.472656 234.78125 702.496094 234.429688 C 702.515625 234.09375 702.832031 233.796875 703.164062 233.804688 " fill-opacity="1" fill-rule="nonzero"/><path fill="rgb(82.749939%, 82.749939%, 82.749939%)" d="M 703.804688 238.582031 C 703.804688 238.921875 703.503906 239.230469 703.164062 239.234375 C 702.808594 239.242188 702.488281 238.914062 702.5 238.5625 C 702.511719 238.222656 702.828125 237.925781 703.164062 237.929688 C 703.503906 237.9375 703.804688 238.246094 703.804688 238.582031 " fill-opacity="1" fill-rule="nonzero"/><path fill="rgb(82.749939%, 82.749939%, 82.749939%)" d="M 661.558594 225.472656 C 661.921875 225.480469 662.21875 225.789062 662.214844 226.148438 C 662.214844 226.523438 661.886719 226.832031 661.511719 226.8125 C 661.152344 226.792969 660.863281 226.476562 660.875 226.117188 C 660.890625 225.757812 661.199219 225.464844 661.558594 225.472656 " fill-opacity="1" fill-rule="nonzero"/><path fill="rgb(82.749939%, 82.749939%, 82.749939%)" d="M 662.183594 246.890625 C 662.191406 247.238281 661.898438 247.539062 661.546875 247.542969 C 661.214844 247.542969 660.929688 247.269531 660.910156 246.9375 C 660.890625 246.589844 661.175781 246.28125 661.523438 246.265625 C 661.871094 246.253906 662.175781 246.542969 662.183594 246.890625 " fill-opacity="1" fill-rule="nonzero"/><path fill="rgb(82.749939%, 82.749939%, 82.749939%)" d="M 678.824219 213.625 C 678.820312 213.976562 678.519531 214.265625 678.171875 214.257812 C 677.824219 214.246094 677.535156 213.9375 677.550781 213.59375 C 677.566406 213.261719 677.851562 212.984375 678.183594 212.984375 C 678.53125 212.980469 678.828125 213.277344 678.824219 213.625 " fill-opacity="1" fill-rule="nonzero"/><path fill="rgb(82.749939%, 82.749939%, 82.749939%)" d="M 703.152344 229.652344 C 703.5 229.652344 703.757812 229.902344 703.761719 230.25 C 703.769531 230.613281 703.496094 230.882812 703.132812 230.871094 C 702.789062 230.863281 702.539062 230.601562 702.542969 230.253906 C 702.546875 229.90625 702.804688 229.652344 703.152344 229.652344 " fill-opacity="1" fill-rule="nonzero"/><path fill="rgb(82.749939%, 82.749939%, 82.749939%)" d="M 699.035156 221.332031 C 699.382812 221.332031 699.636719 221.582031 699.644531 221.929688 C 699.648438 222.292969 699.378906 222.5625 699.015625 222.550781 C 698.667969 222.539062 698.421875 222.277344 698.425781 221.929688 C 698.429688 221.585938 698.6875 221.332031 699.035156 221.332031 " fill-opacity="1" fill-rule="nonzero"/><path fill="rgb(82.749939%, 82.749939%, 82.749939%)" d="M 695.441406 217.804688 C 695.449219 218.152344 695.203125 218.417969 694.859375 218.429688 C 694.496094 218.445312 694.222656 218.183594 694.222656 217.820312 C 694.222656 217.472656 694.476562 217.21875 694.824219 217.214844 C 695.171875 217.207031 695.429688 217.457031 695.441406 217.804688 " fill-opacity="1" fill-rule="nonzero"/><path fill="rgb(82.749939%, 82.749939%, 82.749939%)" d="M 687.113281 213.636719 C 687.105469 213.984375 686.839844 214.234375 686.492188 214.222656 C 686.144531 214.214844 685.898438 213.949219 685.90625 213.601562 C 685.914062 213.253906 686.179688 213.007812 686.527344 213.015625 C 686.875 213.023438 687.125 213.289062 687.113281 213.636719 " fill-opacity="1" fill-rule="nonzero"/><path fill="rgb(82.749939%, 82.749939%, 82.749939%)" d="M 703.148438 243.378906 C 702.828125 243.375 702.566406 243.117188 702.5625 242.792969 C 702.558594 242.453125 702.835938 242.179688 703.175781 242.195312 C 703.5 242.207031 703.75 242.476562 703.746094 242.800781 C 703.738281 243.121094 703.472656 243.378906 703.148438 243.378906 " fill-opacity="1" fill-rule="nonzero"/><path fill="rgb(82.749939%, 82.749939%, 82.749939%)" d="M 657.457031 238.015625 C 657.757812 238.035156 658.007812 238.3125 657.996094 238.605469 C 657.984375 238.917969 657.683594 239.179688 657.375 239.148438 C 657.074219 239.117188 656.835938 238.832031 656.859375 238.539062 C 656.886719 238.242188 657.167969 237.996094 657.457031 238.015625 " fill-opacity="1" fill-rule="nonzero"/><path fill="rgb(82.749939%, 82.749939%, 82.749939%)" d="M 665.742188 218.390625 C 665.445312 218.386719 665.183594 218.121094 665.179688 217.824219 C 665.179688 217.515625 665.46875 217.234375 665.777344 217.253906 C 666.074219 217.269531 666.328125 217.546875 666.316406 217.839844 C 666.308594 218.136719 666.039062 218.394531 665.742188 218.390625 " fill-opacity="1" fill-rule="nonzero"/><path fill="rgb(82.749939%, 82.749939%, 82.749939%)" d="M 699.015625 250.53125 C 699.328125 250.519531 699.613281 250.800781 699.609375 251.109375 C 699.605469 251.40625 699.347656 251.671875 699.050781 251.683594 C 698.742188 251.691406 698.457031 251.414062 698.460938 251.101562 C 698.460938 250.808594 698.722656 250.542969 699.015625 250.53125 " fill-opacity="1" fill-rule="nonzero"/><path fill="rgb(82.749939%, 82.749939%, 82.749939%)" d="M 678.757812 259.429688 C 678.757812 259.726562 678.496094 259.992188 678.199219 259.996094 C 677.886719 260 677.605469 259.714844 677.621094 259.40625 C 677.632812 259.105469 677.90625 258.851562 678.203125 258.859375 C 678.5 258.867188 678.757812 259.132812 678.757812 259.429688 " fill-opacity="1" fill-rule="nonzero"/><path fill="rgb(82.749939%, 82.749939%, 82.749939%)" d="M 674.65625 213.605469 C 674.664062 213.914062 674.398438 214.195312 674.085938 214.203125 C 673.773438 214.214844 673.496094 213.945312 673.484375 213.632812 C 673.476562 213.324219 673.742188 213.042969 674.054688 213.035156 C 674.367188 213.027344 674.644531 213.292969 674.65625 213.605469 " fill-opacity="1" fill-rule="nonzero"/><path fill="rgb(82.749939%, 82.749939%, 82.749939%)" d="M 657.996094 234.472656 C 657.992188 234.769531 657.726562 235.03125 657.429688 235.03125 C 657.117188 235.035156 656.839844 234.746094 656.859375 234.4375 C 656.875 234.136719 657.152344 233.886719 657.445312 233.894531 C 657.742188 233.90625 658 234.175781 657.996094 234.472656 " fill-opacity="1" fill-rule="nonzero"/><path fill="rgb(82.749939%, 82.749939%, 82.749939%)" d="M 695.398438 255.238281 C 695.394531 255.535156 695.128906 255.792969 694.828125 255.792969 C 694.519531 255.792969 694.242188 255.5 694.261719 255.191406 C 694.28125 254.894531 694.558594 254.644531 694.855469 254.65625 C 695.152344 254.671875 695.40625 254.941406 695.398438 255.238281 " fill-opacity="1" fill-rule="nonzero"/><path fill="rgb(82.749939%, 82.749939%, 82.749939%)" d="M 682.371094 260.003906 C 682.058594 259.988281 681.792969 259.695312 681.816406 259.386719 C 681.84375 259.089844 682.121094 258.839844 682.414062 258.851562 C 682.722656 258.867188 682.992188 259.160156 682.964844 259.46875 C 682.941406 259.765625 682.664062 260.015625 682.371094 260.003906 " fill-opacity="1" fill-rule="nonzero"/><path fill="rgb(82.749939%, 82.749939%, 82.749939%)" d="M 662.085938 221.945312 C 662.054688 222.273438 661.882812 222.460938 661.550781 222.476562 C 661.234375 222.488281 660.984375 222.226562 661.011719 221.914062 C 661.039062 221.582031 661.234375 221.398438 661.5625 221.410156 C 661.894531 221.417969 662.0625 221.621094 662.085938 221.945312 " fill-opacity="1" fill-rule="nonzero"/><path fill="rgb(82.749939%, 82.749939%, 82.749939%)" d="M 686.527344 259.960938 C 686.199219 259.941406 685.992188 259.78125 685.984375 259.445312 C 685.976562 259.113281 686.160156 258.914062 686.492188 258.902344 C 686.824219 258.894531 687.023438 259.078125 687.035156 259.410156 C 687.046875 259.746094 686.855469 259.921875 686.527344 259.960938 " fill-opacity="1" fill-rule="nonzero"/><path fill="rgb(82.749939%, 82.749939%, 82.749939%)" d="M 657.488281 230.777344 C 657.125 230.777344 656.894531 230.546875 656.914062 230.246094 C 656.933594 229.929688 657.109375 229.757812 657.425781 229.746094 C 657.730469 229.738281 657.957031 229.976562 657.941406 230.28125 C 657.925781 230.597656 657.738281 230.753906 657.488281 230.777344 " fill-opacity="1" fill-rule="nonzero"/><path fill="rgb(82.749939%, 82.749939%, 82.749939%)" d="M 703.675781 226.121094 C 703.683594 226.425781 703.464844 226.660156 703.164062 226.664062 C 702.859375 226.667969 702.625 226.445312 702.632812 226.144531 C 702.640625 225.832031 702.808594 225.648438 703.121094 225.625 C 703.425781 225.597656 703.664062 225.820312 703.675781 226.121094 " fill-opacity="1" fill-rule="nonzero"/><path fill="rgb(82.749939%, 82.749939%, 82.749939%)" d="M 690.710938 213.105469 C 691.015625 213.101562 691.246094 213.332031 691.226562 213.636719 C 691.207031 213.953125 691.03125 214.125 690.714844 214.132812 C 690.410156 214.144531 690.1875 213.90625 690.199219 213.601562 C 690.207031 213.316406 690.421875 213.105469 690.710938 213.105469 " fill-opacity="1" fill-rule="nonzero"/><path fill="rgb(82.749939%, 82.749939%, 82.749939%)" d="M 674.582031 259.417969 C 674.554688 259.722656 674.402344 259.910156 674.089844 259.933594 C 673.796875 259.953125 673.546875 259.707031 673.566406 259.414062 C 673.585938 259.105469 673.761719 258.925781 674.070312 258.925781 C 674.386719 258.925781 674.542969 259.117188 674.582031 259.417969 " fill-opacity="1" fill-rule="nonzero"/><path fill="rgb(82.749939%, 82.749939%, 82.749939%)" d="M 657.449219 242.277344 C 657.746094 242.328125 657.941406 242.492188 657.925781 242.804688 C 657.910156 243.113281 657.714844 243.296875 657.40625 243.28125 C 657.101562 243.269531 656.917969 243.074219 656.929688 242.765625 C 656.941406 242.457031 657.144531 242.304688 657.449219 242.277344 " fill-opacity="1" fill-rule="nonzero"/><path fill="rgb(82.749939%, 82.749939%, 82.749939%)" d="M 662.050781 251.105469 C 662.007812 251.40625 661.847656 251.605469 661.539062 251.597656 C 661.230469 251.589844 661.046875 251.394531 661.054688 251.089844 C 661.0625 250.800781 661.246094 250.621094 661.535156 250.613281 C 661.84375 250.609375 662.003906 250.804688 662.050781 251.105469 " fill-opacity="1" fill-rule="nonzero"/><path fill="rgb(82.749939%, 82.749939%, 82.749939%)" d="M 703.65625 246.886719 C 703.625 247.1875 703.46875 247.390625 703.160156 247.394531 C 702.851562 247.398438 702.664062 247.207031 702.660156 246.902344 C 702.660156 246.613281 702.839844 246.429688 703.125 246.414062 C 703.4375 246.394531 703.601562 246.589844 703.65625 246.886719 " fill-opacity="1" fill-rule="nonzero"/><path fill="rgb(82.749939%, 82.749939%, 82.749939%)" d="M 666.261719 255.199219 C 666.21875 255.523438 666.066406 255.722656 665.753906 255.722656 C 665.445312 255.722656 665.253906 255.539062 665.253906 255.230469 C 665.25 254.921875 665.4375 254.734375 665.742188 254.726562 C 666.058594 254.722656 666.207031 254.925781 666.261719 255.199219 " fill-opacity="1" fill-rule="nonzero"/><path fill="rgb(82.749939%, 82.749939%, 82.749939%)" d="M 670.355469 213.628906 C 670.308594 213.914062 670.148438 214.105469 669.855469 214.097656 C 669.570312 214.089844 669.382812 213.898438 669.390625 213.609375 C 669.398438 213.320312 669.585938 213.136719 669.878906 213.140625 C 670.167969 213.148438 670.324219 213.34375 670.355469 213.628906 " fill-opacity="1" fill-rule="nonzero"/><path fill="rgb(82.749939%, 82.749939%, 82.749939%)" d="M 699.46875 217.828125 C 699.445312 218.105469 699.296875 218.265625 699.011719 218.253906 C 698.746094 218.242188 698.601562 218.082031 698.605469 217.820312 C 698.609375 217.53125 698.773438 217.382812 699.058594 217.390625 C 699.324219 217.402344 699.453125 217.566406 699.46875 217.828125 " fill-opacity="1" fill-rule="nonzero"/><path fill="rgb(82.749939%, 82.749939%, 82.749939%)" d="M 657.382812 225.707031 C 657.675781 225.71875 657.84375 225.84375 657.855469 226.109375 C 657.871094 226.394531 657.726562 226.5625 657.441406 226.574219 C 657.175781 226.582031 657.015625 226.441406 656.996094 226.175781 C 656.976562 225.890625 657.140625 225.746094 657.382812 225.707031 " fill-opacity="1" fill-rule="nonzero"/><path fill="rgb(82.749939%, 82.749939%, 82.749939%)" d="M 690.746094 258.992188 C 691 259.027344 691.152344 259.171875 691.144531 259.4375 C 691.132812 259.722656 690.964844 259.871094 690.683594 259.855469 C 690.417969 259.84375 690.277344 259.683594 690.28125 259.417969 C 690.289062 259.128906 690.460938 259 690.746094 258.992188 " fill-opacity="1" fill-rule="nonzero"/><path fill="rgb(82.749939%, 82.749939%, 82.749939%)" d="M 657.417969 247.308594 C 657.183594 247.265625 657.023438 247.132812 657.03125 246.894531 C 657.039062 246.65625 657.199219 246.5 657.4375 246.507812 C 657.675781 246.515625 657.832031 246.675781 657.824219 246.914062 C 657.816406 247.15625 657.652344 247.28125 657.417969 247.308594 " fill-opacity="1" fill-rule="nonzero"/><path fill="rgb(82.749939%, 82.749939%, 82.749939%)" d="M 670.273438 259.421875 C 670.246094 259.65625 670.117188 259.816406 669.878906 259.824219 C 669.636719 259.828125 669.476562 259.675781 669.472656 259.4375 C 669.464844 259.199219 669.621094 259.039062 669.859375 259.03125 C 670.097656 259.023438 670.230469 259.183594 670.273438 259.421875 " fill-opacity="1" fill-rule="nonzero"/><path fill="rgb(82.749939%, 82.749939%, 82.749939%)" d="M 703.152344 221.550781 C 703.394531 221.578125 703.546875 221.714844 703.539062 221.953125 C 703.53125 222.191406 703.371094 222.335938 703.128906 222.324219 C 702.914062 222.316406 702.769531 222.167969 702.765625 221.949219 C 702.765625 221.707031 702.917969 221.578125 703.152344 221.550781 " fill-opacity="1" fill-rule="nonzero"/><path fill="rgb(82.749939%, 82.749939%, 82.749939%)" d="M 694.832031 213.226562 C 695.074219 213.261719 695.226562 213.394531 695.214844 213.636719 C 695.207031 213.875 695.046875 214.019531 694.804688 214.003906 C 694.589844 213.992188 694.445312 213.84375 694.445312 213.625 C 694.445312 213.382812 694.597656 213.253906 694.832031 213.226562 " fill-opacity="1" fill-rule="nonzero"/><g clip-path="url(#id4)"><path fill="rgb(82.749939%, 82.749939%, 82.749939%)" d="M 707.71875 234.457031 C 707.707031 234.6875 707.589844 234.824219 707.351562 234.824219 C 707.140625 234.824219 707.007812 234.707031 706.996094 234.492188 C 706.984375 234.261719 707.101562 234.117188 707.335938 234.105469 C 707.570312 234.097656 707.699219 234.222656 707.71875 234.457031 " fill-opacity="1" fill-rule="nonzero"/></g><g clip-path="url(#id5)"><path fill="rgb(82.749939%, 82.749939%, 82.749939%)" d="M 678.542969 209.476562 C 678.527344 209.722656 678.410156 209.855469 678.175781 209.847656 C 677.964844 209.84375 677.84375 209.71875 677.839844 209.507812 C 677.839844 209.273438 677.96875 209.148438 678.203125 209.152344 C 678.417969 209.15625 678.519531 209.289062 678.542969 209.476562 " fill-opacity="1" fill-rule="nonzero"/></g><path fill="rgb(82.749939%, 82.749939%, 82.749939%)" d="M 661.554688 218.175781 C 661.328125 218.160156 661.195312 218.046875 661.199219 217.8125 C 661.203125 217.601562 661.324219 217.480469 661.535156 217.476562 C 661.765625 217.46875 661.894531 217.597656 661.894531 217.832031 C 661.890625 218.042969 661.765625 218.152344 661.554688 218.175781 " fill-opacity="1" fill-rule="nonzero"/><g clip-path="url(#id6)"><path fill="rgb(82.749939%, 82.749939%, 82.749939%)" d="M 682.394531 209.855469 C 682.171875 209.839844 682.039062 209.722656 682.042969 209.488281 C 682.050781 209.277344 682.171875 209.15625 682.382812 209.152344 C 682.617188 209.152344 682.742188 209.28125 682.738281 209.511719 C 682.734375 209.726562 682.609375 209.835938 682.394531 209.855469 " fill-opacity="1" fill-rule="nonzero"/></g><path fill="rgb(82.749939%, 82.749939%, 82.749939%)" d="M 703.488281 251.113281 C 703.453125 251.308594 703.34375 251.445312 703.132812 251.433594 C 702.945312 251.421875 702.824219 251.296875 702.828125 251.105469 C 702.832031 250.898438 702.964844 250.769531 703.175781 250.78125 C 703.363281 250.789062 703.460938 250.921875 703.488281 251.113281 " fill-opacity="1" fill-rule="nonzero"/><path fill="rgb(82.749939%, 82.749939%, 82.749939%)" d="M 699.386719 255.203125 C 699.371094 255.453125 699.25 255.582031 699.015625 255.574219 C 698.804688 255.566406 698.6875 255.441406 698.6875 255.230469 C 698.6875 254.996094 698.820312 254.871094 699.050781 254.878906 C 699.265625 254.882812 699.367188 255.015625 699.386719 255.203125 " fill-opacity="1" fill-rule="nonzero"/><g clip-path="url(#id7)"><path fill="rgb(82.749939%, 82.749939%, 82.749939%)" d="M 686.5 209.835938 C 686.316406 209.800781 686.1875 209.699219 686.183594 209.511719 C 686.183594 209.300781 686.3125 209.167969 686.523438 209.175781 C 686.730469 209.183594 686.855469 209.324219 686.835938 209.53125 C 686.820312 209.71875 686.6875 209.816406 686.5 209.835938 " fill-opacity="1" fill-rule="nonzero"/></g><path fill="rgb(82.749939%, 82.749939%, 82.749939%)" d="M 665.757812 213.953125 C 665.558594 213.929688 665.421875 213.824219 665.421875 213.613281 C 665.425781 213.425781 665.546875 213.300781 665.734375 213.292969 C 665.945312 213.289062 666.074219 213.417969 666.074219 213.625 C 666.074219 213.816406 665.945312 213.917969 665.757812 213.953125 " fill-opacity="1" fill-rule="nonzero"/><g clip-path="url(#id8)"><path fill="rgb(82.749939%, 82.749939%, 82.749939%)" d="M 707.351562 230.597656 C 707.152344 230.5625 707.019531 230.453125 707.03125 230.242188 C 707.039062 230.054688 707.164062 229.933594 707.355469 229.9375 C 707.5625 229.941406 707.691406 230.070312 707.679688 230.28125 C 707.671875 230.46875 707.542969 230.570312 707.351562 230.597656 " fill-opacity="1" fill-rule="nonzero"/></g><g clip-path="url(#id9)"><path fill="rgb(82.749939%, 82.749939%, 82.749939%)" d="M 707.34375 238.230469 C 707.570312 238.242188 707.707031 238.355469 707.703125 238.589844 C 707.703125 238.800781 707.582031 238.925781 707.371094 238.929688 C 707.136719 238.933594 707.007812 238.808594 707.007812 238.574219 C 707.007812 238.363281 707.132812 238.253906 707.34375 238.230469 " fill-opacity="1" fill-rule="nonzero"/></g><g clip-path="url(#id10)"><path fill="rgb(82.749939%, 82.749939%, 82.749939%)" d="M 707.664062 242.777344 C 707.644531 242.953125 707.550781 243.074219 707.382812 243.085938 C 707.191406 243.101562 707.0625 242.980469 707.054688 242.789062 C 707.046875 242.617188 707.160156 242.496094 707.328125 242.484375 C 707.523438 242.46875 707.628906 242.59375 707.664062 242.777344 " fill-opacity="1" fill-rule="nonzero"/></g><g clip-path="url(#id11)"><path fill="rgb(82.749939%, 82.749939%, 82.749939%)" d="M 653.238281 238.835938 C 653.078125 238.824219 652.976562 238.742188 652.976562 238.578125 C 652.976562 238.433594 653.066406 238.339844 653.210938 238.335938 C 653.375 238.328125 653.472656 238.425781 653.472656 238.589844 C 653.472656 238.734375 653.382812 238.8125 653.238281 238.835938 " fill-opacity="1" fill-rule="nonzero"/></g><g clip-path="url(#id12)"><path fill="rgb(82.749939%, 82.749939%, 82.749939%)" d="M 653.476562 234.476562 C 653.453125 234.636719 653.359375 234.730469 653.195312 234.710938 C 653.054688 234.695312 652.96875 234.601562 652.976562 234.457031 C 652.988281 234.289062 653.09375 234.199219 653.253906 234.21875 C 653.394531 234.230469 653.46875 234.328125 653.476562 234.476562 " fill-opacity="1" fill-rule="nonzero"/></g><g clip-path="url(#id13)"><path fill="rgb(82.749939%, 82.749939%, 82.749939%)" d="M 690.96875 209.496094 C 690.9375 209.671875 690.84375 209.769531 690.679688 209.75 C 690.542969 209.730469 690.453125 209.636719 690.464844 209.488281 C 690.476562 209.324219 690.582031 209.238281 690.746094 209.253906 C 690.886719 209.269531 690.953125 209.375 690.96875 209.496094 " fill-opacity="1" fill-rule="nonzero"/></g><path fill="rgb(82.749939%, 82.749939%, 82.749939%)" d="M 661.539062 254.9375 C 661.742188 254.964844 661.84375 255.070312 661.828125 255.25 C 661.8125 255.433594 661.6875 255.523438 661.511719 255.507812 C 661.351562 255.488281 661.257812 255.382812 661.265625 255.21875 C 661.269531 255.035156 661.386719 254.953125 661.539062 254.9375 " fill-opacity="1" fill-rule="nonzero"/><path fill="rgb(82.749939%, 82.749939%, 82.749939%)" d="M 657.40625 250.851562 C 657.585938 250.875 657.683594 250.957031 657.675781 251.125 C 657.667969 251.269531 657.574219 251.355469 657.429688 251.355469 C 657.265625 251.351562 657.171875 251.253906 657.179688 251.089844 C 657.183594 250.941406 657.292969 250.878906 657.40625 250.851562 " fill-opacity="1" fill-rule="nonzero"/><g clip-path="url(#id14)"><path fill="rgb(82.749939%, 82.749939%, 82.749939%)" d="M 674.355469 209.492188 C 674.34375 209.667969 674.253906 209.78125 674.070312 209.78125 C 673.890625 209.78125 673.785156 209.675781 673.789062 209.492188 C 673.789062 209.332031 673.886719 209.230469 674.046875 209.21875 C 674.230469 209.210938 674.332031 209.308594 674.355469 209.492188 " fill-opacity="1" fill-rule="nonzero"/></g><path fill="rgb(82.749939%, 82.749939%, 82.749939%)" d="M 657.425781 222.226562 C 657.242188 222.207031 657.136719 222.105469 657.144531 221.925781 C 657.15625 221.742188 657.273438 221.648438 657.453125 221.660156 C 657.613281 221.671875 657.710938 221.773438 657.710938 221.9375 C 657.710938 222.121094 657.601562 222.210938 657.425781 222.226562 " fill-opacity="1" fill-rule="nonzero"/><g clip-path="url(#id15)"><path fill="rgb(82.749939%, 82.749939%, 82.749939%)" d="M 707.339844 226.394531 C 707.183594 226.367188 707.089844 226.273438 707.109375 226.113281 C 707.125 225.972656 707.222656 225.882812 707.367188 225.894531 C 707.53125 225.90625 707.621094 226.011719 707.601562 226.175781 C 707.585938 226.316406 707.488281 226.390625 707.339844 226.394531 " fill-opacity="1" fill-rule="nonzero"/></g><path fill="rgb(82.749939%, 82.749939%, 82.749939%)" d="M 665.761719 259.679688 C 665.601562 259.667969 665.5 259.589844 665.5 259.421875 C 665.5 259.277344 665.589844 259.1875 665.734375 259.179688 C 665.898438 259.171875 665.996094 259.269531 665.996094 259.433594 C 665.996094 259.578125 665.90625 259.65625 665.761719 259.679688 " fill-opacity="1" fill-rule="nonzero"/><path fill="rgb(82.749939%, 82.749939%, 82.749939%)" d="M 694.542969 259.433594 C 694.570312 259.230469 694.675781 259.132812 694.855469 259.148438 C 695.039062 259.160156 695.132812 259.285156 695.113281 259.464844 C 695.097656 259.621094 694.988281 259.714844 694.828125 259.710938 C 694.640625 259.707031 694.558594 259.589844 694.542969 259.433594 " fill-opacity="1" fill-rule="nonzero"/><g clip-path="url(#id16)"><path fill="rgb(82.749939%, 82.749939%, 82.749939%)" d="M 678.441406 263.542969 C 678.425781 263.703125 678.339844 263.800781 678.171875 263.792969 C 678.03125 263.789062 677.941406 263.695312 677.941406 263.550781 C 677.941406 263.386719 678.039062 263.292969 678.203125 263.296875 C 678.347656 263.304688 678.425781 263.398438 678.441406 263.542969 " fill-opacity="1" fill-rule="nonzero"/></g><g clip-path="url(#id17)"><path fill="rgb(82.749939%, 82.749939%, 82.749939%)" d="M 682.664062 263.5625 C 682.644531 263.746094 682.535156 263.832031 682.355469 263.8125 C 682.195312 263.796875 682.113281 263.691406 682.121094 263.53125 C 682.132812 263.34375 682.25 263.261719 682.425781 263.277344 C 682.589844 263.292969 682.660156 263.402344 682.664062 263.5625 " fill-opacity="1" fill-rule="nonzero"/></g><g clip-path="url(#id18)"><path fill="rgb(82.749939%, 82.749939%, 82.749939%)" d="M 686.496094 263.292969 C 686.644531 263.300781 686.742188 263.375 686.757812 263.515625 C 686.773438 263.675781 686.6875 263.785156 686.523438 263.792969 C 686.359375 263.800781 686.261719 263.703125 686.261719 263.539062 C 686.265625 263.390625 686.359375 263.316406 686.496094 263.292969 " fill-opacity="1" fill-rule="nonzero"/></g><path fill="rgb(82.749939%, 82.749939%, 82.749939%)" d="M 703.351562 217.824219 C 703.335938 217.976562 703.25 218.027344 703.125 218.015625 C 703.015625 218.007812 702.957031 217.933594 702.957031 217.824219 C 702.957031 217.691406 703.03125 217.625 703.160156 217.625 C 703.296875 217.628906 703.351562 217.710938 703.351562 217.824219 " fill-opacity="1" fill-rule="nonzero"/><path fill="rgb(82.749939%, 82.749939%, 82.749939%)" d="M 653.421875 242.785156 C 653.410156 242.9375 653.324219 242.992188 653.199219 242.980469 C 653.089844 242.972656 653.03125 242.902344 653.027344 242.792969 C 653.027344 242.660156 653.097656 242.589844 653.230469 242.589844 C 653.363281 242.589844 653.421875 242.671875 653.421875 242.785156 " fill-opacity="1" fill-rule="nonzero"/><path fill="rgb(82.749939%, 82.749939%, 82.749939%)" d="M 653.230469 230.457031 C 653.105469 230.457031 653.027344 230.394531 653.03125 230.261719 C 653.03125 230.128906 653.105469 230.0625 653.234375 230.066406 C 653.347656 230.070312 653.414062 230.132812 653.417969 230.242188 C 653.425781 230.367188 653.378906 230.457031 653.230469 230.457031 " fill-opacity="1" fill-rule="nonzero"/><path fill="rgb(82.749939%, 82.749939%, 82.749939%)" d="M 699.039062 213.421875 C 699.191406 213.4375 699.242188 213.523438 699.230469 213.648438 C 699.21875 213.757812 699.148438 213.816406 699.035156 213.816406 C 698.90625 213.816406 698.835938 213.742188 698.839844 213.613281 C 698.84375 213.476562 698.925781 213.421875 699.039062 213.421875 " fill-opacity="1" fill-rule="nonzero"/><g clip-path="url(#id19)"><path fill="rgb(82.749939%, 82.749939%, 82.749939%)" d="M 669.875 209.699219 C 669.746094 209.695312 669.671875 209.632812 669.671875 209.5 C 669.671875 209.367188 669.746094 209.300781 669.878906 209.304688 C 669.988281 209.308594 670.058594 209.371094 670.0625 209.480469 C 670.070312 209.609375 670.015625 209.6875 669.875 209.699219 " fill-opacity="1" fill-rule="nonzero"/></g><g clip-path="url(#id20)"><path fill="rgb(82.749939%, 82.749939%, 82.749939%)" d="M 707.34375 246.710938 C 707.46875 246.707031 707.546875 246.765625 707.550781 246.898438 C 707.554688 247.03125 707.484375 247.101562 707.351562 247.101562 C 707.238281 247.101562 707.167969 247.039062 707.160156 246.929688 C 707.152344 246.808594 707.195312 246.710938 707.34375 246.710938 " fill-opacity="1" fill-rule="nonzero"/></g><g clip-path="url(#id21)"><path fill="rgb(82.749939%, 82.749939%, 82.749939%)" d="M 674.265625 263.617188 C 674.261719 263.675781 674.195312 263.746094 674.0625 263.742188 C 673.929688 263.738281 673.867188 263.65625 673.875 263.53125 C 673.878906 263.417969 673.945312 263.351562 674.054688 263.351562 C 674.183594 263.347656 674.265625 263.40625 674.265625 263.617188 " fill-opacity="1" fill-rule="nonzero"/></g><g clip-path="url(#id22)"><g clip-path="url(#id23)"><g clip-path="url(#id24)"><path fill="rgb(82.749939%, 82.749939%, 82.749939%)" d="M 482.613281 308.445312 C 482.519531 308.511719 482.417969 308.574219 482.308594 308.625 C 478.507812 310.402344 474.820312 310.1875 472.703125 309.816406 C 471.738281 312.644531 469.902344 317.339844 467.917969 318.8125 C 467.914062 318.816406 467.90625 318.820312 467.898438 318.824219 C 465.898438 320.28125 460.640625 320.433594 457.699219 320.394531 C 456.902344 323.144531 455.28125 327.941406 453.296875 329.386719 C 453.289062 329.390625 453.285156 329.394531 453.277344 329.398438 C 451.304688 330.8125 446.222656 330.882812 443.335938 330.796875 C 442.515625 333.710938 440.828125 338.859375 438.757812 340.375 C 438.757812 340.378906 438.753906 340.382812 438.75 340.382812 C 436.714844 341.863281 431.039062 342.007812 427.980469 341.96875 C 426.972656 344.859375 424.859375 350.160156 422.546875 351.683594 C 420.660156 352.917969 416.050781 352.929688 413.277344 352.808594 C 412.71875 355.605469 411.492188 360.226562 409.289062 361.667969 C 408.445312 362.21875 407.320312 361.988281 406.769531 361.152344 C 406.222656 360.316406 406.460938 359.1875 407.308594 358.636719 C 408.140625 358.085938 409.40625 354.28125 409.972656 350.636719 C 410.117188 349.691406 410.96875 349.019531 411.921875 349.089844 C 415.730469 349.375 419.769531 349.171875 420.566406 348.652344 C 421.683594 347.925781 423.734375 343.371094 424.949219 339.582031 C 425.199219 338.800781 425.941406 338.28125 426.761719 338.308594 C 431.164062 338.460938 435.773438 338.0625 436.617188 337.457031 C 437.472656 336.828125 439.144531 332.636719 440.191406 328.488281 C 440.40625 327.636719 441.199219 327.054688 442.074219 327.105469 C 446.109375 327.339844 450.359375 327.035156 451.167969 326.457031 C 451.171875 326.453125 451.171875 326.453125 451.171875 326.453125 C 451.980469 325.863281 453.5625 321.964844 454.558594 318.101562 C 454.773438 317.265625 455.546875 316.691406 456.410156 316.726562 C 460.570312 316.890625 464.933594 316.507812 465.757812 315.902344 C 465.761719 315.902344 465.761719 315.902344 465.761719 315.902344 C 466.765625 315.160156 468.636719 310.769531 469.753906 307.136719 C 469.902344 306.664062 470.234375 306.265625 470.679688 306.042969 C 471.121094 305.816406 471.636719 305.78125 472.105469 305.945312 C 472.140625 305.957031 476.441406 307.371094 480.78125 305.339844 C 481.695312 304.910156 482.777344 305.300781 483.195312 306.207031 C 483.570312 307.003906 483.304688 307.941406 482.613281 308.445312 Z M 482.613281 308.445312 " fill-opacity="1" fill-rule="nonzero"/></g></g></g><g clip-path="url(#id25)"><g clip-path="url(#id26)"><g clip-path="url(#id27)"><path fill="rgb(82.749939%, 82.749939%, 82.749939%)" d="M 488.867188 317.03125 C 488.773438 317.097656 488.671875 317.160156 488.5625 317.210938 C 484.761719 318.992188 481.074219 318.773438 478.957031 318.402344 C 477.992188 321.230469 476.15625 325.929688 474.171875 327.398438 C 474.164062 327.402344 474.160156 327.410156 474.152344 327.414062 C 472.152344 328.871094 466.894531 329.019531 463.953125 328.980469 C 463.15625 331.730469 461.535156 336.527344 459.550781 337.972656 C 459.542969 337.980469 459.539062 337.984375 459.53125 337.988281 C 457.558594 339.402344 452.476562 339.472656 449.589844 339.386719 C 448.769531 342.300781 447.082031 347.445312 445.011719 348.964844 C 443.003906 350.457031 437.296875 350.597656 434.234375 350.558594 C 433.226562 353.449219 431.117188 358.75 428.800781 360.269531 C 426.914062 361.507812 422.300781 361.519531 419.53125 361.398438 C 418.972656 364.195312 417.746094 368.816406 415.542969 370.253906 C 414.699219 370.808594 413.570312 370.578125 413.023438 369.738281 C 412.476562 368.902344 412.714844 367.773438 413.5625 367.222656 C 414.402344 366.683594 415.660156 362.867188 416.226562 359.222656 C 416.371094 358.28125 417.222656 357.605469 418.175781 357.675781 C 421.984375 357.964844 426.023438 357.757812 426.820312 357.238281 C 427.9375 356.511719 429.988281 351.957031 431.203125 348.167969 C 431.453125 347.390625 432.195312 346.867188 433.015625 346.894531 C 437.417969 347.046875 442.023438 346.652344 442.871094 346.046875 C 443.726562 345.414062 445.398438 341.222656 446.445312 337.078125 C 446.660156 336.226562 447.453125 335.644531 448.328125 335.695312 C 452.363281 335.929688 456.613281 335.625 457.421875 335.042969 C 457.425781 335.042969 457.425781 335.042969 457.425781 335.042969 C 458.234375 334.453125 459.816406 330.554688 460.8125 326.6875 C 461.027344 325.855469 461.800781 325.28125 462.664062 325.3125 C 466.820312 325.480469 471.183594 325.09375 472.011719 324.492188 C 472.015625 324.492188 472.015625 324.488281 472.015625 324.488281 C 473.019531 323.746094 474.890625 319.359375 476.007812 315.726562 C 476.152344 315.25 476.488281 314.855469 476.933594 314.628906 C 477.375 314.40625 477.890625 314.371094 478.359375 314.53125 C 478.394531 314.542969 482.695312 315.960938 487.035156 313.925781 C 487.949219 313.5 489.027344 313.886719 489.449219 314.796875 C 489.824219 315.59375 489.558594 316.527344 488.867188 317.03125 Z M 488.867188 317.03125 " fill-opacity="1" fill-rule="nonzero"/></g></g></g><g clip-path="url(#id28)"><g clip-path="url(#id29)"><g clip-path="url(#id30)"><path fill="rgb(82.749939%, 82.749939%, 82.749939%)" d="M 495.121094 325.621094 C 495.027344 325.6875 494.925781 325.75 494.816406 325.796875 C 491.015625 327.578125 487.328125 327.363281 485.210938 326.992188 C 484.246094 329.820312 482.410156 334.515625 480.425781 335.988281 C 480.417969 335.992188 480.414062 335.996094 480.40625 336 C 478.40625 337.457031 473.148438 337.609375 470.207031 337.570312 C 469.410156 340.320312 467.789062 345.113281 465.804688 346.5625 C 465.796875 346.566406 465.792969 346.570312 465.785156 346.574219 C 463.8125 347.988281 458.730469 348.058594 455.839844 347.972656 C 455.023438 350.886719 453.335938 356.035156 451.265625 357.550781 C 451.265625 357.554688 451.261719 357.558594 451.257812 357.558594 C 449.222656 359.039062 443.546875 359.183594 440.488281 359.144531 C 439.476562 362.035156 437.371094 367.339844 435.054688 368.859375 C 433.167969 370.09375 428.554688 370.105469 425.785156 369.984375 C 425.226562 372.78125 424.003906 377.40625 421.796875 378.84375 C 420.953125 379.394531 419.824219 379.164062 419.277344 378.328125 C 418.730469 377.492188 418.96875 376.363281 419.816406 375.8125 C 420.652344 375.265625 421.914062 371.457031 422.480469 367.8125 C 422.625 366.867188 423.476562 366.191406 424.429688 366.265625 C 428.238281 366.550781 432.277344 366.347656 433.070312 365.828125 C 434.191406 365.097656 436.242188 360.546875 437.457031 356.757812 C 437.707031 355.976562 438.449219 355.457031 439.269531 355.484375 C 443.671875 355.636719 448.277344 355.238281 449.125 354.632812 C 449.980469 354.003906 451.652344 349.8125 452.699219 345.664062 C 452.914062 344.8125 453.707031 344.230469 454.582031 344.28125 C 458.617188 344.515625 462.867188 344.210938 463.675781 343.632812 C 463.679688 343.628906 463.679688 343.628906 463.679688 343.628906 C 464.488281 343.039062 466.070312 339.140625 467.066406 335.277344 C 467.28125 334.441406 468.054688 333.867188 468.914062 333.902344 C 473.074219 334.066406 477.4375 333.683594 478.265625 333.078125 C 478.265625 333.078125 478.269531 333.078125 478.269531 333.078125 C 479.273438 332.335938 481.144531 327.945312 482.261719 324.3125 C 482.40625 323.839844 482.742188 323.441406 483.1875 323.21875 C 483.628906 322.992188 484.144531 322.957031 484.613281 323.121094 C 484.648438 323.132812 488.949219 324.546875 493.289062 322.515625 C 494.199219 322.085938 495.28125 322.476562 495.703125 323.382812 C 496.074219 324.179688 495.8125 325.117188 495.121094 325.621094 Z M 495.121094 325.621094 " fill-opacity="1" fill-rule="nonzero"/></g></g></g><g clip-path="url(#id31)"><g clip-path="url(#id32)"><g clip-path="url(#id33)"><path fill="rgb(82.749939%, 82.749939%, 82.749939%)" d="M 501.371094 334.207031 C 501.28125 334.273438 501.175781 334.335938 501.070312 334.386719 C 497.269531 336.167969 493.582031 335.949219 491.464844 335.578125 C 490.5 338.40625 488.664062 343.105469 486.679688 344.574219 C 486.671875 344.578125 486.664062 344.585938 486.660156 344.589844 C 484.660156 346.046875 479.402344 346.195312 476.457031 346.15625 C 475.664062 348.90625 474.042969 353.703125 472.058594 355.148438 C 472.050781 355.152344 472.046875 355.160156 472.039062 355.164062 C 470.0625 356.578125 464.984375 356.648438 462.09375 356.5625 C 461.277344 359.476562 459.585938 364.621094 457.519531 366.140625 C 457.515625 366.140625 457.515625 366.144531 457.511719 366.148438 C 455.476562 367.628906 449.800781 367.769531 446.738281 367.734375 C 445.730469 370.625 443.621094 375.925781 441.308594 377.445312 C 439.421875 378.683594 434.808594 378.691406 432.035156 378.570312 C 431.480469 381.371094 430.257812 385.992188 428.050781 387.429688 C 427.207031 387.984375 426.078125 387.753906 425.53125 386.914062 C 424.984375 386.078125 425.222656 384.949219 426.066406 384.398438 C 426.90625 383.851562 428.167969 380.042969 428.730469 376.398438 C 428.878906 375.457031 429.730469 374.78125 430.683594 374.851562 C 434.492188 375.140625 438.53125 374.933594 439.324219 374.414062 C 440.445312 373.6875 442.496094 369.132812 443.710938 365.34375 C 443.960938 364.566406 444.703125 364.042969 445.519531 364.070312 C 449.925781 364.222656 454.53125 363.828125 455.378906 363.222656 C 456.234375 362.589844 457.90625 358.398438 458.953125 354.253906 C 459.167969 353.402344 459.960938 352.820312 460.835938 352.871094 C 464.871094 353.105469 469.121094 352.800781 469.929688 352.21875 C 469.933594 352.21875 469.933594 352.21875 469.933594 352.214844 C 470.742188 351.628906 472.324219 347.730469 473.320312 343.863281 C 473.535156 343.03125 474.308594 342.457031 475.167969 342.488281 C 479.328125 342.652344 483.691406 342.269531 484.519531 341.667969 C 484.519531 341.667969 484.523438 341.664062 484.523438 341.664062 C 485.527344 340.921875 487.398438 336.535156 488.515625 332.902344 C 488.660156 332.425781 488.996094 332.03125 489.4375 331.804688 C 489.882812 331.578125 490.398438 331.542969 490.867188 331.707031 C 490.902344 331.71875 495.203125 333.136719 499.542969 331.101562 C 500.453125 330.675781 501.535156 331.0625 501.957031 331.96875 C 502.328125 332.769531 502.066406 333.703125 501.371094 334.207031 Z M 501.371094 334.207031 " fill-opacity="1" fill-rule="nonzero"/></g></g></g></svg>