<svg xmlns="http://www.w3.org/2000/svg" xmlns:xlink="http://www.w3.org/1999/xlink" width="525" zoomAndPan="magnify" viewBox="0 0 525 374.999991" height="374.999991" preserveAspectRatio="xMidYMid meet" version="1.0"><defs><g/><clipPath id="id1"><path d="M 0 23.074219 L 271.5 23.074219 L 271.5 294.574219 L 0 294.574219 Z M 0 23.074219 " clip-rule="nonzero"/></clipPath></defs><g clip-path="url(#id1)"><path fill="rgb(15.289307%, 16.468811%, 19.219971%)" d="M 135.351562 23.121094 C 98.171875 23.121094 65.457031 36.878906 40.171875 62.53125 C 14.144531 88.925781 0.015625 123.136719 0.015625 158.824219 C 0.015625 194.890625 13.773438 228.351562 39.800781 254.375 C 65.828125 280.402344 99.660156 294.53125 135.351562 294.53125 C 171.039062 294.53125 205.621094 280.402344 232.390625 254.007812 C 257.671875 229.097656 271.054688 196.007812 271.054688 158.824219 C 271.054688 122.015625 257.671875 88.558594 232.015625 62.902344 C 205.992188 36.875 172.53125 23.121094 135.351562 23.121094 Z M 135.71875 47.660156 C 166.210938 47.660156 193.351562 59.183594 214.539062 80.378906 C 235.363281 101.195312 246.511719 128.710938 246.511719 158.824219 C 246.511719 189.308594 235.730469 216.082031 214.914062 236.53125 C 192.976562 258.09375 164.71875 269.621094 135.71875 269.621094 C 106.351562 269.621094 78.835938 258.097656 57.644531 236.898438 C 36.453125 215.707031 24.554688 187.824219 24.554688 158.824219 C 24.554688 129.457031 36.453125 101.574219 57.644531 80.003906 C 78.464844 58.8125 105.234375 47.660156 135.71875 47.660156 Z M 135.71875 47.660156 " fill-opacity="1" fill-rule="nonzero"/></g><path fill="rgb(15.289307%, 16.468811%, 19.219971%)" d="M 133.972656 136.273438 C 126.308594 122.296875 113.230469 116.734375 98.046875 116.734375 C 75.953125 116.734375 58.363281 132.363281 58.363281 158.820312 C 58.363281 185.726562 74.898438 200.910156 98.796875 200.910156 C 114.132812 200.910156 127.210938 192.492188 134.421875 179.71875 L 117.589844 171.148438 C 113.828125 180.164062 108.117188 182.875 100.90625 182.875 C 88.425781 182.875 82.714844 172.5 82.714844 158.820312 C 82.714844 145.144531 87.527344 134.769531 100.90625 134.769531 C 104.511719 134.769531 111.726562 136.722656 115.9375 145.746094 Z M 133.972656 136.273438 " fill-opacity="1" fill-rule="nonzero"/><path fill="rgb(15.289307%, 16.468811%, 19.219971%)" d="M 212.257812 136.273438 C 204.59375 122.296875 191.515625 116.734375 176.332031 116.734375 C 154.238281 116.734375 136.648438 132.363281 136.648438 158.820312 C 136.648438 185.726562 153.183594 200.910156 177.082031 200.910156 C 192.417969 200.910156 205.496094 192.492188 212.707031 179.71875 L 195.875 171.148438 C 192.113281 180.164062 186.402344 182.875 179.191406 182.875 C 166.710938 182.875 161 172.5 161 158.820312 C 161 145.144531 165.8125 134.769531 179.191406 134.769531 C 182.796875 134.769531 190.011719 136.722656 194.222656 145.746094 Z M 212.257812 136.273438 " fill-opacity="1" fill-rule="nonzero"/><g fill="rgb(15.289307%, 16.468811%, 19.219971%)" fill-opacity="1"><g transform="translate(282.255045, 138.65233)"><g><path d="M 24.441406 -11.425781 C 23.273438 -10.65625 21.429688 -10.027344 20.21875 -10.027344 C 15.742188 -10.027344 12.195312 -13.292969 12.195312 -17.675781 C 12.195312 -22.0625 15.742188 -25.417969 20.21875 -25.417969 C 21.523438 -25.417969 23.460938 -24.742188 24.578125 -23.878906 C 25.324219 -23.296875 26.28125 -23.390625 26.679688 -23.996094 L 31.203125 -30.828125 C 31.574219 -31.414062 31.4375 -32.207031 30.78125 -32.671875 C 28.054688 -34.628906 23.367188 -36.078125 20.21875 -36.078125 C 9.746094 -36.078125 1.515625 -28.054688 1.515625 -17.675781 C 1.515625 -7.300781 9.746094 0.652344 20.21875 0.652344 C 23.460938 0.652344 27.984375 -0.816406 30.550781 -2.589844 C 31.296875 -3.101562 31.574219 -3.894531 31.25 -4.40625 L 26.773438 -11.308594 C 26.351562 -11.964844 25.324219 -12.011719 24.441406 -11.425781 Z M 24.441406 -11.425781 "/></g></g></g><g fill="rgb(15.289307%, 16.468811%, 19.219971%)" fill-opacity="1"><g transform="translate(315.319027, 138.65233)"><g><path d="M 26.5625 -23.878906 L 18.960938 -23.878906 C 18.328125 -23.878906 17.957031 -23.53125 17.957031 -22.878906 L 17.957031 -10.9375 C 17.957031 -9.398438 16.558594 -8 14.785156 -8 C 12.757812 -8 11.660156 -9.234375 11.660156 -10.960938 L 11.660156 -22.878906 C 11.660156 -23.53125 11.332031 -23.878906 10.679688 -23.878906 L 3.101562 -23.878906 C 2.449219 -23.878906 2.097656 -23.53125 2.097656 -22.878906 L 2.097656 -10.378906 C 2.097656 -3.40625 6.039062 0.652344 11.730469 0.652344 C 14.621094 0.652344 17.792969 -1.121094 19.285156 -3.542969 L 21.035156 -0.605469 C 21.292969 -0.257812 21.664062 0 22.109375 0 L 26.539062 0 C 27.144531 0 27.542969 -0.417969 27.542969 -1.027344 L 27.542969 -22.878906 C 27.542969 -23.53125 27.191406 -23.878906 26.5625 -23.878906 Z M 26.5625 -23.878906 "/></g></g></g><g fill="rgb(15.289307%, 16.468811%, 19.219971%)" fill-opacity="1"><g transform="translate(345.188539, 138.65233)"><g><path d="M 10.9375 -35.421875 L 3.265625 -35.421875 C 2.660156 -35.421875 2.332031 -35.097656 2.332031 -34.492188 L 2.332031 -0.957031 C 2.332031 -0.351562 2.660156 0 3.265625 0 L 10.9375 0 C 11.542969 0 11.894531 -0.351562 11.894531 -0.957031 L 11.894531 -34.492188 C 11.894531 -35.097656 11.542969 -35.421875 10.9375 -35.421875 Z M 10.9375 -35.421875 "/></g></g></g><g fill="rgb(15.289307%, 16.468811%, 19.219971%)" fill-opacity="1"><g transform="translate(359.412114, 138.65233)"><g><path d="M 13.246094 -15.996094 L 16.628906 -15.996094 C 17.210938 -15.996094 17.535156 -16.347656 17.535156 -16.953125 L 17.535156 -22.925781 C 17.535156 -23.507812 17.210938 -23.878906 16.628906 -23.878906 L 13.222656 -23.878906 L 13.222656 -31.460938 C 13.222656 -32.207031 12.804688 -32.4375 12.078125 -32.273438 L 4.5 -30.644531 C 3.941406 -30.527344 3.683594 -30.082031 3.683594 -29.5 L 3.660156 -23.878906 L 1.75 -23.878906 C 1.164062 -23.878906 0.816406 -23.507812 0.816406 -22.925781 L 0.816406 -16.953125 C 0.816406 -16.347656 1.164062 -15.996094 1.75 -15.996094 L 3.683594 -15.996094 L 3.683594 -10.84375 C 3.683594 -2.75 7.929688 0.652344 15.695312 0.652344 C 16.699219 0.652344 17.375 0.09375 17.375 -0.722656 L 17.375 -7.042969 C 17.375 -7.8125 16.71875 -8.347656 15.789062 -8.347656 C 13.945312 -8.347656 13.246094 -8.535156 13.246094 -10.703125 Z M 13.246094 -15.996094 "/></g></g></g><g fill="rgb(15.289307%, 16.468811%, 19.219971%)" fill-opacity="1"><g transform="translate(378.83546, 138.65233)"><g><path d="M 26.5625 -23.878906 L 18.960938 -23.878906 C 18.328125 -23.878906 17.957031 -23.53125 17.957031 -22.878906 L 17.957031 -10.9375 C 17.957031 -9.398438 16.558594 -8 14.785156 -8 C 12.757812 -8 11.660156 -9.234375 11.660156 -10.960938 L 11.660156 -22.878906 C 11.660156 -23.53125 11.332031 -23.878906 10.679688 -23.878906 L 3.101562 -23.878906 C 2.449219 -23.878906 2.097656 -23.53125 2.097656 -22.878906 L 2.097656 -10.378906 C 2.097656 -3.40625 6.039062 0.652344 11.730469 0.652344 C 14.621094 0.652344 17.792969 -1.121094 19.285156 -3.542969 L 21.035156 -0.605469 C 21.292969 -0.257812 21.664062 0 22.109375 0 L 26.539062 0 C 27.144531 0 27.542969 -0.417969 27.542969 -1.027344 L 27.542969 -22.878906 C 27.542969 -23.53125 27.191406 -23.878906 26.5625 -23.878906 Z M 26.5625 -23.878906 "/></g></g></g><g fill="rgb(15.289307%, 16.468811%, 19.219971%)" fill-opacity="1"><g transform="translate(408.704973, 138.65233)"><g><path d="M 23.507812 -21.921875 C 21.851562 -23.484375 19.402344 -24.53125 17.257812 -24.53125 C 15.042969 -24.53125 12.21875 -22.96875 10.472656 -20.523438 L 8.839844 -23.273438 C 8.582031 -23.625 8.207031 -23.878906 7.765625 -23.878906 L 3.335938 -23.878906 C 2.726562 -23.878906 2.332031 -23.460938 2.332031 -22.855469 L 2.332031 -1.003906 C 2.332031 -0.351562 2.683594 0 3.3125 0 L 10.914062 0 C 11.542969 0 11.917969 -0.351562 11.917969 -1.003906 L 11.917969 -11.425781 C 11.917969 -14.015625 13.664062 -16.300781 16.042969 -16.300781 C 16.859375 -16.300781 17.980469 -15.71875 18.890625 -14.808594 C 19.308594 -14.386719 19.84375 -14.550781 20.265625 -15.203125 L 23.507812 -20.40625 C 23.878906 -20.988281 23.855469 -21.59375 23.507812 -21.921875 Z M 23.507812 -21.921875 "/></g></g></g><g fill="rgb(15.289307%, 16.468811%, 19.219971%)" fill-opacity="1"><g transform="translate(433.14154, 138.65233)"><g><path d="M 14.015625 -24.53125 C 6.808594 -24.53125 1.164062 -18.914062 1.164062 -11.894531 C 1.164062 -4.921875 6.949219 0.675781 14.109375 0.675781 C 17.234375 0.675781 20.078125 -0.351562 22.316406 -2.050781 C 22.832031 -2.472656 22.902344 -3.007812 22.480469 -3.613281 L 19.542969 -7.8125 C 19.121094 -8.417969 18.632812 -8.628906 17.933594 -8.160156 C 17.210938 -7.695312 16.066406 -7.253906 14.367188 -7.253906 C 12.523438 -7.253906 11.007812 -8.230469 10.65625 -9.679688 L 22.832031 -9.679688 C 24.765625 -9.679688 26.070312 -10.796875 26.070312 -12.429688 C 26.070312 -19.613281 21.175781 -24.53125 14.015625 -24.53125 Z M 13.78125 -16.300781 C 15.34375 -16.300781 16.605469 -15.320312 16.882812 -13.875 L 10.703125 -13.875 C 11.078125 -15.25 12.289062 -16.300781 13.78125 -16.300781 Z M 13.78125 -16.300781 "/></g></g></g><g fill="rgb(15.289307%, 16.468811%, 19.219971%)" fill-opacity="1"><g transform="translate(460.368319, 138.65233)"><g/></g></g><g fill="rgb(15.289307%, 16.468811%, 19.219971%)" fill-opacity="1"><g transform="translate(282.255045, 205.402326)"><g><path d="M 24.441406 -11.425781 C 23.273438 -10.65625 21.429688 -10.027344 20.21875 -10.027344 C 15.742188 -10.027344 12.195312 -13.292969 12.195312 -17.675781 C 12.195312 -22.0625 15.742188 -25.417969 20.21875 -25.417969 C 21.523438 -25.417969 23.460938 -24.742188 24.578125 -23.878906 C 25.324219 -23.296875 26.28125 -23.390625 26.679688 -23.996094 L 31.203125 -30.828125 C 31.574219 -31.414062 31.4375 -32.207031 30.78125 -32.671875 C 28.054688 -34.628906 23.367188 -36.078125 20.21875 -36.078125 C 9.746094 -36.078125 1.515625 -28.054688 1.515625 -17.675781 C 1.515625 -7.300781 9.746094 0.652344 20.21875 0.652344 C 23.460938 0.652344 27.984375 -0.816406 30.550781 -2.589844 C 31.296875 -3.101562 31.574219 -3.894531 31.25 -4.40625 L 26.773438 -11.308594 C 26.351562 -11.964844 25.324219 -12.011719 24.441406 -11.425781 Z M 24.441406 -11.425781 "/></g></g></g><g fill="rgb(15.289307%, 16.468811%, 19.219971%)" fill-opacity="1"><g transform="translate(315.319027, 205.402326)"><g><path d="M 26.5625 -23.878906 L 18.960938 -23.878906 C 18.328125 -23.878906 17.957031 -23.53125 17.957031 -22.878906 L 17.957031 -10.9375 C 17.957031 -9.398438 16.558594 -8 14.785156 -8 C 12.757812 -8 11.660156 -9.234375 11.660156 -10.960938 L 11.660156 -22.878906 C 11.660156 -23.53125 11.332031 -23.878906 10.679688 -23.878906 L 3.101562 -23.878906 C 2.449219 -23.878906 2.097656 -23.53125 2.097656 -22.878906 L 2.097656 -10.378906 C 2.097656 -3.40625 6.039062 0.652344 11.730469 0.652344 C 14.621094 0.652344 17.792969 -1.121094 19.285156 -3.542969 L 21.035156 -0.605469 C 21.292969 -0.257812 21.664062 0 22.109375 0 L 26.539062 0 C 27.144531 0 27.542969 -0.417969 27.542969 -1.027344 L 27.542969 -22.878906 C 27.542969 -23.53125 27.191406 -23.878906 26.5625 -23.878906 Z M 26.5625 -23.878906 "/></g></g></g><g fill="rgb(15.289307%, 16.468811%, 19.219971%)" fill-opacity="1"><g transform="translate(345.188539, 205.402326)"><g><path d="M 12.101562 -16.582031 C 13.527344 -16.582031 14.832031 -16.160156 15.929688 -15.507812 C 16.789062 -14.996094 17.652344 -15.019531 18.144531 -15.53125 L 21.222656 -18.75 C 21.96875 -19.519531 22.109375 -20.03125 20.988281 -21.175781 C 19.121094 -23.0625 15.296875 -24.53125 11.871094 -24.53125 C 5.292969 -24.53125 2.097656 -21.105469 2.097656 -17.164062 C 2.097656 -12.242188 5.363281 -11.007812 10.214844 -9.65625 C 12.125 -9.117188 12.757812 -8.699219 12.757812 -8.070312 C 12.757812 -7.484375 12.21875 -7.347656 11.472656 -7.347656 C 10.378906 -7.347656 8.746094 -7.8125 7.113281 -8.792969 C 6.367188 -9.234375 5.457031 -9.609375 4.875 -9 L 1.164062 -5.128906 C 0.535156 -4.476562 0.511719 -3.777344 1.121094 -3.078125 C 3.007812 -0.886719 7.371094 0.652344 11.449219 0.652344 C 18.074219 0.652344 22.222656 -2.144531 22.222656 -6.808594 C 22.222656 -11.542969 18.65625 -12.757812 13.058594 -14.296875 C 11.425781 -14.738281 10.960938 -15.226562 10.960938 -15.695312 C 10.960938 -16.277344 11.402344 -16.582031 12.101562 -16.582031 Z M 12.101562 -16.582031 "/></g></g></g><g fill="rgb(15.289307%, 16.468811%, 19.219971%)" fill-opacity="1"><g transform="translate(368.645779, 205.402326)"><g><path d="M 13.246094 -15.996094 L 16.628906 -15.996094 C 17.210938 -15.996094 17.535156 -16.347656 17.535156 -16.953125 L 17.535156 -22.925781 C 17.535156 -23.507812 17.210938 -23.878906 16.628906 -23.878906 L 13.222656 -23.878906 L 13.222656 -31.460938 C 13.222656 -32.207031 12.804688 -32.4375 12.078125 -32.273438 L 4.5 -30.644531 C 3.941406 -30.527344 3.683594 -30.082031 3.683594 -29.5 L 3.660156 -23.878906 L 1.75 -23.878906 C 1.164062 -23.878906 0.816406 -23.507812 0.816406 -22.925781 L 0.816406 -16.953125 C 0.816406 -16.347656 1.164062 -15.996094 1.75 -15.996094 L 3.683594 -15.996094 L 3.683594 -10.84375 C 3.683594 -2.75 7.929688 0.652344 15.695312 0.652344 C 16.699219 0.652344 17.375 0.09375 17.375 -0.722656 L 17.375 -7.042969 C 17.375 -7.8125 16.71875 -8.347656 15.789062 -8.347656 C 13.945312 -8.347656 13.246094 -8.535156 13.246094 -10.703125 Z M 13.246094 -15.996094 "/></g></g></g><g fill="rgb(15.289307%, 16.468811%, 19.219971%)" fill-opacity="1"><g transform="translate(388.069125, 205.402326)"><g><path d="M 1.164062 -11.941406 C 1.164062 -4.898438 6.878906 0.652344 14.132812 0.652344 C 21.363281 0.652344 27.027344 -4.898438 27.027344 -11.941406 C 27.027344 -18.984375 21.363281 -24.53125 14.132812 -24.53125 C 6.878906 -24.53125 1.164062 -18.984375 1.164062 -11.941406 Z M 10.84375 -11.941406 C 10.84375 -14.015625 12.148438 -15.4375 14.085938 -15.4375 C 16.019531 -15.4375 17.351562 -14.015625 17.351562 -11.941406 C 17.351562 -9.863281 16.019531 -8.441406 14.085938 -8.441406 C 12.148438 -8.441406 10.84375 -9.863281 10.84375 -11.941406 Z M 10.84375 -11.941406 "/></g></g></g><g fill="rgb(15.289307%, 16.468811%, 19.219971%)" fill-opacity="1"><g transform="translate(416.25979, 205.402326)"><g><path d="M 26.234375 -12.101562 L 26.234375 -35.890625 C 26.234375 -36.519531 25.816406 -36.894531 25.210938 -36.894531 L 17.582031 -36.894531 C 17.023438 -36.894531 16.652344 -36.519531 16.652344 -35.890625 L 16.71875 -23.203125 C 15.390625 -24.066406 13.828125 -24.53125 12.078125 -24.53125 C 5.808594 -24.53125 1.164062 -19.261719 1.164062 -11.847656 C 1.164062 -4.59375 5.808594 0.652344 12.078125 0.652344 C 14.785156 0.652344 17.046875 -0.441406 18.679688 -2.449219 L 19.753906 -0.628906 C 20.007812 -0.28125 20.382812 -0.0234375 20.824219 -0.0234375 L 25.257812 -0.0234375 C 25.863281 -0.0234375 26.257812 -0.441406 26.257812 -1.050781 L 26.257812 -12.125 Z M 13.945312 -8.746094 C 12.382812 -8.746094 10.820312 -10.050781 10.820312 -11.894531 C 10.820312 -13.757812 12.382812 -15.089844 13.945312 -15.089844 C 15.53125 -15.089844 17.117188 -13.757812 17.117188 -11.894531 C 17.117188 -10.050781 15.53125 -8.746094 13.945312 -8.746094 Z M 13.945312 -8.746094 "/></g></g></g><g fill="rgb(15.289307%, 16.468811%, 19.219971%)" fill-opacity="1"><g transform="translate(444.846843, 205.402326)"><g><path d="M 7.089844 -25.488281 C 9.980469 -25.488281 12.265625 -27.773438 12.265625 -30.667969 C 12.265625 -33.488281 9.980469 -35.84375 7.089844 -35.84375 C 4.222656 -35.84375 1.914062 -33.511719 1.914062 -30.667969 C 1.914062 -27.773438 4.222656 -25.488281 7.089844 -25.488281 Z M 10.9375 -23.878906 L 3.265625 -23.878906 C 2.660156 -23.878906 2.332031 -23.507812 2.332031 -22.925781 L 2.332031 -0.957031 C 2.332031 -0.351562 2.660156 0 3.265625 0 L 10.9375 0 C 11.542969 0 11.894531 -0.351562 11.894531 -0.957031 L 11.894531 -22.925781 C 11.894531 -23.507812 11.542969 -23.878906 10.9375 -23.878906 Z M 10.9375 -23.878906 "/></g></g></g><g fill="rgb(15.289307%, 16.468811%, 19.219971%)" fill-opacity="1"><g transform="translate(459.070418, 205.402326)"><g><path d="M 25.164062 -23.878906 L 20.730469 -23.878906 C 20.289062 -23.878906 19.914062 -23.625 19.660156 -23.273438 L 18.609375 -21.476562 C 16.976562 -23.460938 14.738281 -24.53125 12.078125 -24.53125 C 5.808594 -24.53125 1.164062 -19.261719 1.164062 -11.847656 C 1.164062 -4.59375 5.808594 0.652344 12.078125 0.652344 C 14.761719 0.652344 17 -0.394531 18.609375 -2.355469 L 19.660156 -0.605469 C 19.914062 -0.257812 20.289062 0 20.730469 0 L 25.164062 0 C 25.769531 0 26.164062 -0.417969 26.164062 -1.027344 L 26.164062 -22.855469 C 26.164062 -23.460938 25.769531 -23.878906 25.164062 -23.878906 Z M 13.945312 -8.746094 C 12.382812 -8.746094 10.820312 -10.050781 10.820312 -11.894531 C 10.820312 -13.757812 12.382812 -15.089844 13.945312 -15.089844 C 15.53125 -15.089844 17.117188 -13.757812 17.117188 -11.894531 C 17.117188 -10.050781 15.53125 -8.746094 13.945312 -8.746094 Z M 13.945312 -8.746094 "/></g></g></g><g fill="rgb(15.289307%, 16.468811%, 19.219971%)" fill-opacity="1"><g transform="translate(487.56419, 205.402326)"><g><path d="M 18.144531 -24.53125 C 15.25 -24.53125 12.078125 -22.761719 10.585938 -20.335938 L 8.839844 -23.273438 C 8.582031 -23.625 8.207031 -23.878906 7.765625 -23.878906 L 3.335938 -23.878906 C 2.726562 -23.878906 2.332031 -23.460938 2.332031 -22.855469 L 2.332031 -1.003906 C 2.332031 -0.351562 2.683594 0 3.3125 0 L 10.914062 0 C 11.542969 0 11.917969 -0.351562 11.917969 -1.003906 L 11.917969 -12.941406 C 11.917969 -14.480469 13.316406 -15.882812 15.089844 -15.882812 C 17.117188 -15.882812 18.214844 -14.644531 18.214844 -12.917969 L 18.214844 -1.003906 C 18.214844 -0.351562 18.539062 0 19.191406 0 L 26.773438 0 C 27.425781 0 27.773438 -0.351562 27.773438 -1.003906 L 27.773438 -13.503906 C 27.773438 -20.476562 23.832031 -24.53125 18.144531 -24.53125 Z M 18.144531 -24.53125 "/></g></g></g></svg>