<svg xmlns="http://www.w3.org/2000/svg" xmlns:xlink="http://www.w3.org/1999/xlink" width="300" zoomAndPan="magnify" viewBox="0 0 300 449.999984" height="449.999984" preserveAspectRatio="xMidYMid meet" version="1.0"><defs><filter x="0%" y="0%" width="100%" xlink:type="simple" xlink:actuate="onLoad" height="100%" id="id1" xlink:show="other"><feColorMatrix values="0 0 0 0 1 0 0 0 0 1 0 0 0 0 1 0 0 0 1 0" color-interpolation-filters="sRGB"/></filter><mask id="id2"><g filter="url(#id1)"><rect x="-30" width="360" fill="rgb(0%, 0%, 0%)" y="-44.999998" height="539.99998" fill-opacity="0.8667"/></g></mask><clipPath id="id3"><rect x="0" width="42" y="0" height="43"/></clipPath><clipPath id="id4"><path d="M 266 237 L 267.238281 237 L 267.238281 239 L 266 239 Z M 266 237 " clip-rule="nonzero"/></clipPath><clipPath id="id5"><path d="M 266 235 L 267.238281 235 L 267.238281 236 L 266 236 Z M 266 235 " clip-rule="nonzero"/></clipPath><clipPath id="id6"><path d="M 266 239 L 267.238281 239 L 267.238281 241 L 266 241 Z M 266 239 " clip-rule="nonzero"/></clipPath><clipPath id="id7"><path d="M 266 241 L 267.238281 241 L 267.238281 243 L 266 243 Z M 266 241 " clip-rule="nonzero"/></clipPath><clipPath id="id8"><path d="M 239.488281 239 L 240 239 L 240 241 L 239.488281 241 Z M 239.488281 239 " clip-rule="nonzero"/></clipPath><clipPath id="id9"><path d="M 239.488281 237 L 240 237 L 240 238 L 239.488281 238 Z M 239.488281 237 " clip-rule="nonzero"/></clipPath><clipPath id="id10"><path d="M 266 233 L 267.238281 233 L 267.238281 234 L 266 234 Z M 266 233 " clip-rule="nonzero"/></clipPath><clipPath id="id11"><path d="M 252 252 L 253 252 L 253 252.75 L 252 252.75 Z M 252 252 " clip-rule="nonzero"/></clipPath><clipPath id="id12"><path d="M 254 252 L 255 252 L 255 252.75 L 254 252.75 Z M 254 252 " clip-rule="nonzero"/></clipPath><clipPath id="id13"><path d="M 256 252 L 257 252 L 257 252.75 L 256 252.75 Z M 256 252 " clip-rule="nonzero"/></clipPath><clipPath id="id14"><path d="M 239.488281 241 L 240 241 L 240 243 L 239.488281 243 Z M 239.488281 241 " clip-rule="nonzero"/></clipPath><clipPath id="id15"><path d="M 239.488281 235 L 240 235 L 240 236 L 239.488281 236 Z M 239.488281 235 " clip-rule="nonzero"/></clipPath><clipPath id="id16"><path d="M 266 244 L 267.238281 244 L 267.238281 245 L 266 245 Z M 266 244 " clip-rule="nonzero"/></clipPath><clipPath id="id17"><path d="M 250 252 L 251 252 L 251 252.75 L 250 252.75 Z M 250 252 " clip-rule="nonzero"/></clipPath></defs><path fill="rgb(92.549133%, 32.159424%, 25.878906%)" d="M 27.246094 116.386719 C 27.164062 116.171875 27.097656 115.941406 27.03125 115.726562 L 45.4375 97.320312 C 45.652344 97.386719 45.882812 97.453125 46.097656 97.535156 Z M 43.289062 96.847656 C 43.035156 96.808594 42.765625 96.78125 42.511719 96.753906 L 26.453125 112.8125 C 26.480469 113.066406 26.507812 113.335938 26.546875 113.589844 Z M 49.550781 99.320312 C 49.375 99.199219 49.203125 99.078125 49.027344 98.972656 L 28.671875 119.328125 C 28.777344 119.503906 28.898438 119.675781 29.019531 119.851562 Z M 47.332031 98.042969 C 47.132812 97.949219 46.929688 97.855469 46.730469 97.777344 L 27.488281 117.015625 C 27.570312 117.21875 27.664062 117.417969 27.757812 117.621094 Z M 48.476562 98.648438 C 48.289062 98.542969 48.097656 98.433594 47.910156 98.339844 L 28.027344 118.226562 C 28.121094 118.414062 28.226562 118.601562 28.335938 118.789062 Z M 35.214844 97.921875 C 34.582031 98.207031 33.964844 98.527344 33.375 98.890625 L 28.589844 103.675781 C 28.214844 104.265625 27.890625 104.882812 27.621094 105.515625 Z M 40.816406 96.6875 L 26.386719 111.117188 C 26.386719 111.414062 26.386719 111.695312 26.398438 111.992188 L 41.675781 96.699219 C 41.394531 96.6875 41.097656 96.6875 40.816406 96.6875 Z M 55.878906 111.359375 L 41.058594 126.179688 C 41.355469 126.179688 41.664062 126.179688 41.960938 126.152344 L 55.851562 112.261719 C 55.867188 111.964844 55.878906 111.65625 55.878906 111.359375 Z M 50.542969 100.085938 C 50.382812 99.953125 50.222656 99.816406 50.0625 99.699219 L 29.394531 120.363281 C 29.515625 120.523438 29.652344 120.683594 29.785156 120.847656 Z M 39.890625 96.742188 C 39.554688 96.769531 39.230469 96.808594 38.894531 96.863281 L 26.5625 109.195312 C 26.507812 109.53125 26.46875 109.855469 26.441406 110.191406 Z M 37.820312 97.0625 C 37.417969 97.15625 37.015625 97.265625 36.613281 97.398438 L 27.085938 106.914062 C 26.964844 107.316406 26.84375 107.707031 26.75 108.121094 Z M 44.742188 97.132812 C 44.5 97.078125 44.269531 97.023438 44.027344 96.96875 L 26.667969 114.328125 C 26.722656 114.570312 26.777344 114.800781 26.828125 115.042969 Z M 55.609375 114.25 C 55.675781 113.898438 55.730469 113.5625 55.773438 113.214844 L 42.914062 126.074219 C 43.261719 126.03125 43.613281 125.980469 43.949219 125.910156 Z M 55.851562 110.511719 C 55.839844 110.246094 55.8125 109.976562 55.785156 109.707031 L 39.40625 126.074219 C 39.675781 126.101562 39.945312 126.125 40.210938 126.140625 Z M 55.664062 108.941406 C 55.625 108.699219 55.570312 108.457031 55.515625 108.214844 L 37.902344 125.816406 C 38.144531 125.871094 38.386719 125.925781 38.625 125.964844 Z M 51.457031 100.90625 C 51.3125 100.757812 51.164062 100.625 51.015625 100.476562 L 30.1875 121.304688 C 30.324219 121.449219 30.472656 121.597656 30.617188 121.746094 Z M 52.320312 121.035156 C 53.058594 120.175781 53.675781 119.261719 54.1875 118.292969 L 47.992188 124.488281 C 48.960938 123.976562 49.875 123.359375 50.734375 122.621094 Z M 55.339844 107.515625 C 55.273438 107.289062 55.207031 107.074219 55.140625 106.84375 L 36.542969 125.441406 C 36.773438 125.507812 36.988281 125.574219 37.214844 125.644531 Z M 54.910156 116.707031 C 55.074219 116.277344 55.222656 115.847656 55.339844 115.40625 L 45.101562 125.644531 C 45.546875 125.523438 45.976562 125.375 46.40625 125.214844 Z M 53.085938 102.789062 C 52.964844 102.625 52.84375 102.453125 52.707031 102.289062 L 31.988281 122.996094 C 32.152344 123.128906 32.324219 123.25 32.488281 123.371094 Z M 54.910156 106.199219 C 54.832031 105.984375 54.75 105.785156 54.65625 105.582031 L 35.269531 124.972656 C 35.46875 125.066406 35.683594 125.144531 35.886719 125.226562 Z M 52.304688 101.808594 C 52.171875 101.644531 52.035156 101.496094 51.886719 101.351562 L 31.046875 122.191406 C 31.195312 122.335938 31.359375 122.472656 31.503906 122.605469 Z M 53.769531 103.835938 C 53.660156 103.660156 53.554688 103.472656 53.433594 103.296875 L 32.996094 123.734375 C 33.171875 123.855469 33.347656 123.964844 33.535156 124.070312 Z M 54.386719 104.976562 C 54.292969 104.789062 54.199219 104.589844 54.09375 104.398438 L 34.097656 124.394531 C 34.285156 124.5 34.476562 124.59375 34.675781 124.6875 Z M 54.386719 104.976562 " fill-opacity="1" fill-rule="nonzero"/><g mask="url(#id2)"><g transform="matrix(1, 0, 0, 1, 20, 90)"><g clip-path="url(#id3)"><path fill="rgb(10.978699%, 12.939453%, 12.548828%)" d="M 6.992188 17.171875 C 7.058594 16.953125 7.136719 16.730469 7.210938 16.515625 L 32.960938 12.65625 C 33.09375 12.839844 33.238281 13.027344 33.363281 13.222656 Z M 31.511719 11 C 31.328125 10.816406 31.128906 10.636719 30.941406 10.460938 L 8.480469 13.828125 C 8.351562 14.050781 8.214844 14.28125 8.09375 14.511719 Z M 35.078125 16.710938 C 35.007812 16.511719 34.9375 16.308594 34.863281 16.121094 L 6.390625 20.386719 C 6.371094 20.589844 6.367188 20.804688 6.359375 21.015625 Z M 34.050781 14.367188 C 33.945312 14.171875 33.839844 13.976562 33.726562 13.792969 L 6.8125 17.824219 C 6.757812 18.035156 6.714844 18.253906 6.667969 18.472656 Z M 34.613281 15.53125 C 34.523438 15.335938 34.4375 15.136719 34.339844 14.949219 L 6.527344 19.117188 C 6.488281 19.324219 6.464844 19.539062 6.4375 19.753906 Z M 24.378906 7.0625 C 23.703125 6.914062 23.011719 6.808594 22.324219 6.746094 L 15.632812 7.75 C 14.976562 8.003906 14.351562 8.308594 13.757812 8.65625 Z M 29.617188 9.402344 L 9.433594 12.425781 C 9.257812 12.664062 9.089844 12.890625 8.925781 13.136719 L 30.300781 9.921875 C 30.082031 9.746094 29.84375 9.570312 29.617188 9.402344 Z M 33.007812 30.15625 L 12.277344 33.261719 C 12.515625 33.4375 12.765625 33.621094 13.019531 33.777344 L 32.449219 30.863281 C 32.636719 30.632812 32.832031 30.394531 33.007812 30.15625 Z M 35.421875 17.917969 C 35.371094 17.714844 35.320312 17.511719 35.261719 17.316406 L 6.359375 21.648438 C 6.359375 21.851562 6.371094 22.0625 6.382812 22.269531 Z M 28.839844 8.894531 C 28.554688 8.714844 28.273438 8.554688 27.96875 8.398438 L 10.714844 10.984375 C 10.472656 11.222656 10.25 11.457031 10.027344 11.710938 Z M 26.984375 7.921875 C 26.605469 7.757812 26.21875 7.605469 25.8125 7.472656 L 12.496094 9.460938 C 12.160156 9.710938 11.832031 9.953125 11.507812 10.234375 Z M 32.511719 12.089844 C 32.347656 11.902344 32.195312 11.722656 32.035156 11.539062 L 7.75 15.175781 C 7.652344 15.402344 7.558594 15.617188 7.457031 15.84375 Z M 31.074219 32.320312 C 31.335938 32.078125 31.578125 31.839844 31.820312 31.582031 L 13.832031 34.277344 C 14.136719 34.453125 14.449219 34.617188 14.761719 34.765625 Z M 33.488281 29.460938 C 33.636719 29.234375 33.777344 29.003906 33.914062 28.769531 L 11.011719 32.195312 C 11.214844 32.375 11.414062 32.558594 11.621094 32.726562 Z M 34.273438 28.082031 C 34.382812 27.863281 34.484375 27.636719 34.585938 27.410156 L 9.953125 31.09375 C 10.117188 31.28125 10.28125 31.46875 10.449219 31.644531 Z M 35.667969 19.121094 C 35.636719 18.914062 35.597656 18.71875 35.566406 18.511719 L 6.4375 22.878906 C 6.457031 23.078125 6.488281 23.285156 6.519531 23.488281 Z M 24.390625 35.820312 C 25.5 35.566406 26.539062 35.199219 27.523438 34.726562 L 18.859375 36.023438 C 19.941406 36.1875 21.042969 36.234375 22.175781 36.152344 Z M 34.859375 26.746094 C 34.941406 26.523438 35.015625 26.308594 35.097656 26.085938 L 9.085938 29.984375 C 9.230469 30.175781 9.363281 30.355469 9.507812 30.546875 Z M 29.050781 33.882812 C 29.4375 33.632812 29.808594 33.375 30.171875 33.089844 L 15.851562 35.234375 C 16.277344 35.402344 16.710938 35.539062 17.152344 35.664062 Z M 35.855469 21.601562 C 35.855469 21.398438 35.863281 21.1875 35.851562 20.976562 L 6.878906 25.308594 C 6.925781 25.511719 6.996094 25.714844 7.054688 25.90625 Z M 35.296875 25.433594 C 35.359375 25.210938 35.414062 25 35.460938 24.78125 L 8.339844 28.847656 C 8.445312 29.042969 8.570312 29.234375 8.683594 29.421875 Z M 35.8125 20.347656 C 35.800781 20.140625 35.78125 19.941406 35.75 19.734375 L 6.601562 24.101562 C 6.632812 24.308594 6.679688 24.511719 6.71875 24.707031 Z M 35.785156 22.851562 C 35.800781 22.644531 35.828125 22.429688 35.835938 22.21875 L 7.25 26.503906 C 7.316406 26.703125 7.394531 26.894531 7.480469 27.09375 Z M 35.601562 24.136719 C 35.640625 23.929688 35.683594 23.710938 35.707031 23.496094 L 7.742188 27.6875 C 7.832031 27.886719 7.925781 28.074219 8.03125 28.269531 Z M 35.601562 24.136719 " fill-opacity="1" fill-rule="nonzero"/></g></g></g><path fill="rgb(10.978699%, 12.939453%, 12.548828%)" d="M 242.003906 61.480469 C 241.972656 61.394531 241.945312 61.304688 241.917969 61.21875 L 249.257812 53.878906 C 249.34375 53.90625 249.433594 53.933594 249.519531 53.964844 Z M 248.402344 53.691406 C 248.300781 53.675781 248.191406 53.664062 248.089844 53.652344 L 241.6875 60.058594 C 241.699219 60.160156 241.707031 60.265625 241.722656 60.367188 Z M 250.898438 54.675781 C 250.828125 54.628906 250.757812 54.582031 250.6875 54.539062 L 242.570312 62.65625 C 242.613281 62.726562 242.664062 62.792969 242.710938 62.863281 Z M 250.015625 54.167969 C 249.933594 54.128906 249.851562 54.09375 249.773438 54.0625 L 242.101562 61.734375 C 242.132812 61.8125 242.167969 61.894531 242.207031 61.976562 Z M 250.46875 54.410156 C 250.394531 54.367188 250.320312 54.324219 250.246094 54.285156 L 242.3125 62.214844 C 242.351562 62.292969 242.394531 62.367188 242.4375 62.441406 Z M 245.179688 54.121094 C 244.929688 54.230469 244.683594 54.359375 244.445312 54.503906 L 242.539062 56.414062 C 242.390625 56.648438 242.261719 56.894531 242.152344 57.148438 Z M 247.414062 53.625 L 241.660156 59.382812 C 241.660156 59.5 241.660156 59.613281 241.664062 59.730469 L 247.757812 53.632812 C 247.644531 53.625 247.527344 53.625 247.414062 53.625 Z M 253.421875 59.476562 L 247.511719 65.386719 C 247.628906 65.386719 247.753906 65.386719 247.871094 65.378906 L 253.410156 59.835938 C 253.417969 59.71875 253.421875 59.597656 253.421875 59.476562 Z M 251.292969 54.980469 C 251.230469 54.929688 251.167969 54.875 251.101562 54.828125 L 242.859375 63.066406 C 242.910156 63.132812 242.960938 63.195312 243.015625 63.261719 Z M 247.046875 53.648438 C 246.910156 53.660156 246.78125 53.675781 246.648438 53.695312 L 241.730469 58.617188 C 241.707031 58.75 241.691406 58.878906 241.683594 59.011719 Z M 246.21875 53.777344 C 246.058594 53.8125 245.898438 53.855469 245.738281 53.910156 L 241.9375 57.703125 C 241.890625 57.863281 241.84375 58.019531 241.804688 58.1875 Z M 248.980469 53.804688 C 248.882812 53.78125 248.792969 53.761719 248.695312 53.738281 L 241.773438 60.664062 C 241.792969 60.757812 241.816406 60.851562 241.835938 60.945312 Z M 253.316406 60.628906 C 253.34375 60.492188 253.363281 60.355469 253.378906 60.21875 L 248.25 65.34375 C 248.390625 65.328125 248.53125 65.308594 248.664062 65.28125 Z M 253.410156 59.140625 C 253.40625 59.035156 253.394531 58.925781 253.382812 58.820312 L 246.851562 65.34375 C 246.960938 65.355469 247.066406 65.367188 247.175781 65.371094 Z M 253.335938 58.511719 C 253.320312 58.417969 253.300781 58.320312 253.277344 58.222656 L 246.253906 65.242188 C 246.347656 65.265625 246.445312 65.285156 246.542969 65.300781 Z M 251.660156 55.308594 C 251.601562 55.25 251.542969 55.195312 251.480469 55.136719 L 243.175781 63.441406 C 243.230469 63.503906 243.289062 63.5625 243.347656 63.621094 Z M 252.003906 63.335938 C 252.296875 62.992188 252.542969 62.628906 252.746094 62.242188 L 250.277344 64.714844 C 250.664062 64.507812 251.027344 64.261719 251.371094 63.96875 Z M 253.207031 57.945312 C 253.179688 57.855469 253.152344 57.769531 253.128906 57.675781 L 245.710938 65.09375 C 245.800781 65.121094 245.886719 65.148438 245.980469 65.175781 Z M 253.035156 61.609375 C 253.101562 61.4375 253.160156 61.269531 253.207031 61.089844 L 249.125 65.175781 C 249.300781 65.125 249.472656 65.066406 249.644531 65.003906 Z M 252.308594 56.058594 C 252.257812 55.996094 252.210938 55.925781 252.15625 55.859375 L 243.894531 64.117188 C 243.960938 64.171875 244.027344 64.21875 244.09375 64.269531 Z M 253.035156 57.421875 C 253.003906 57.335938 252.972656 57.253906 252.933594 57.175781 L 245.203125 64.90625 C 245.28125 64.945312 245.367188 64.976562 245.449219 65.007812 Z M 251.996094 55.667969 C 251.941406 55.605469 251.890625 55.542969 251.832031 55.484375 L 243.519531 63.796875 C 243.578125 63.855469 243.644531 63.910156 243.703125 63.964844 Z M 252.582031 56.476562 C 252.539062 56.40625 252.496094 56.332031 252.445312 56.261719 L 244.296875 64.414062 C 244.367188 64.460938 244.4375 64.503906 244.511719 64.546875 Z M 252.828125 56.933594 C 252.789062 56.859375 252.753906 56.777344 252.710938 56.703125 L 244.734375 64.675781 C 244.8125 64.71875 244.886719 64.757812 244.964844 64.792969 Z M 252.828125 56.933594 " fill-opacity="1" fill-rule="nonzero"/><path fill="rgb(92.549133%, 32.159424%, 25.878906%)" d="M 67.71875 186.683594 C 67.703125 186.640625 67.6875 186.59375 67.675781 186.550781 L 71.347656 182.882812 C 71.390625 182.894531 71.433594 182.90625 71.476562 182.925781 Z M 70.917969 182.789062 C 70.867188 182.777344 70.8125 182.773438 70.761719 182.769531 L 67.5625 185.96875 C 67.566406 186.019531 67.570312 186.074219 67.578125 186.125 Z M 72.164062 183.28125 C 72.128906 183.257812 72.097656 183.230469 72.0625 183.210938 L 68.003906 187.269531 C 68.023438 187.304688 68.046875 187.339844 68.074219 187.375 Z M 71.722656 183.027344 C 71.683594 183.007812 71.644531 182.988281 71.601562 182.972656 L 67.765625 186.808594 C 67.78125 186.847656 67.800781 186.890625 67.820312 186.929688 Z M 71.953125 183.144531 C 71.914062 183.125 71.875 183.101562 71.839844 183.085938 L 67.875 187.050781 C 67.894531 187.085938 67.914062 187.125 67.9375 187.160156 Z M 69.308594 183 C 69.179688 183.058594 69.058594 183.121094 68.941406 183.195312 L 67.988281 184.148438 C 67.910156 184.265625 67.847656 184.390625 67.792969 184.515625 Z M 70.425781 182.753906 L 67.546875 185.632812 C 67.546875 185.691406 67.546875 185.746094 67.550781 185.804688 L 70.597656 182.757812 C 70.539062 182.753906 70.480469 182.753906 70.425781 182.753906 Z M 73.425781 185.679688 L 70.472656 188.636719 C 70.53125 188.636719 70.59375 188.636719 70.652344 188.628906 L 73.421875 185.859375 C 73.425781 185.800781 73.425781 185.738281 73.425781 185.679688 Z M 72.363281 183.433594 C 72.332031 183.40625 72.300781 183.378906 72.265625 183.355469 L 68.148438 187.476562 C 68.171875 187.507812 68.199219 187.539062 68.226562 187.570312 Z M 70.238281 182.765625 C 70.171875 182.769531 70.109375 182.777344 70.042969 182.789062 L 67.582031 185.25 C 67.570312 185.316406 67.5625 185.378906 67.558594 185.449219 Z M 69.828125 182.832031 C 69.746094 182.847656 69.667969 182.871094 69.585938 182.898438 L 67.6875 184.792969 C 67.664062 184.875 67.636719 184.953125 67.621094 185.035156 Z M 71.207031 182.84375 C 71.160156 182.832031 71.113281 182.820312 71.066406 182.8125 L 67.601562 186.273438 C 67.613281 186.320312 67.625 186.367188 67.636719 186.414062 Z M 73.375 186.257812 C 73.386719 186.1875 73.398438 186.121094 73.40625 186.050781 L 70.84375 188.613281 C 70.910156 188.605469 70.980469 188.59375 71.046875 188.582031 Z M 73.421875 185.511719 C 73.417969 185.457031 73.414062 185.40625 73.410156 185.351562 L 70.144531 188.613281 C 70.195312 188.621094 70.25 188.625 70.304688 188.628906 Z M 73.382812 185.199219 C 73.375 185.148438 73.367188 185.101562 73.355469 185.054688 L 69.84375 188.5625 C 69.890625 188.574219 69.941406 188.585938 69.988281 188.59375 Z M 72.546875 183.597656 C 72.515625 183.566406 72.488281 183.539062 72.457031 183.511719 L 68.304688 187.664062 C 68.332031 187.691406 68.363281 187.722656 68.390625 187.75 Z M 72.71875 187.609375 C 72.863281 187.4375 72.988281 187.253906 73.089844 187.0625 L 71.855469 188.296875 C 72.046875 188.195312 72.230469 188.074219 72.402344 187.925781 Z M 73.320312 184.914062 C 73.308594 184.867188 73.292969 184.824219 73.28125 184.78125 L 69.574219 188.488281 C 69.617188 188.5 69.660156 188.515625 69.707031 188.527344 Z M 73.234375 186.746094 C 73.265625 186.660156 73.296875 186.574219 73.320312 186.488281 L 71.277344 188.527344 C 71.367188 188.503906 71.453125 188.472656 71.539062 188.441406 Z M 72.871094 183.972656 C 72.847656 183.9375 72.820312 183.90625 72.796875 183.871094 L 68.664062 188 C 68.695312 188.027344 68.730469 188.050781 68.761719 188.074219 Z M 73.234375 184.652344 C 73.21875 184.609375 73.203125 184.570312 73.183594 184.527344 L 69.316406 188.394531 C 69.359375 188.414062 69.402344 188.429688 69.441406 188.445312 Z M 72.714844 183.777344 C 72.6875 183.742188 72.660156 183.714844 72.632812 183.683594 L 68.476562 187.839844 C 68.507812 187.871094 68.539062 187.894531 68.566406 187.921875 Z M 73.007812 184.179688 C 72.984375 184.144531 72.964844 184.109375 72.941406 184.074219 L 68.863281 188.148438 C 68.898438 188.171875 68.933594 188.191406 68.972656 188.214844 Z M 73.128906 184.40625 C 73.109375 184.371094 73.09375 184.332031 73.070312 184.292969 L 69.085938 188.277344 C 69.121094 188.300781 69.160156 188.320312 69.199219 188.339844 Z M 73.128906 184.40625 " fill-opacity="1" fill-rule="nonzero"/><path fill="rgb(10.978699%, 12.939453%, 12.548828%)" d="M 41.34375 206.109375 C 41.320312 206.046875 41.300781 205.980469 41.28125 205.921875 L 46.511719 200.695312 C 46.570312 200.710938 46.636719 200.730469 46.695312 200.753906 Z M 45.898438 200.558594 C 45.828125 200.546875 45.75 200.539062 45.679688 200.53125 L 41.117188 205.09375 C 41.125 205.164062 41.132812 205.242188 41.144531 205.3125 Z M 47.675781 201.261719 C 47.628906 201.226562 47.578125 201.191406 47.527344 201.164062 L 41.746094 206.945312 C 41.777344 206.992188 41.8125 207.042969 41.847656 207.09375 Z M 47.046875 200.898438 C 46.992188 200.871094 46.933594 200.847656 46.875 200.824219 L 41.414062 206.289062 C 41.433594 206.34375 41.460938 206.402344 41.488281 206.457031 Z M 47.371094 201.070312 C 47.320312 201.039062 47.265625 201.011719 47.210938 200.984375 L 41.566406 206.628906 C 41.589844 206.683594 41.621094 206.738281 41.652344 206.789062 Z M 43.605469 200.863281 C 43.425781 200.945312 43.25 201.035156 43.082031 201.140625 L 41.726562 202.5 C 41.617188 202.667969 41.527344 202.839844 41.449219 203.019531 Z M 45.199219 200.515625 L 41.097656 204.613281 C 41.097656 204.695312 41.097656 204.777344 41.101562 204.859375 L 45.441406 200.519531 C 45.363281 200.515625 45.277344 200.515625 45.199219 200.515625 Z M 49.476562 204.679688 L 45.265625 208.890625 C 45.351562 208.890625 45.4375 208.890625 45.523438 208.882812 L 49.46875 204.9375 C 49.472656 204.851562 49.476562 204.765625 49.476562 204.679688 Z M 47.960938 201.480469 C 47.914062 201.441406 47.867188 201.402344 47.824219 201.367188 L 41.953125 207.238281 C 41.988281 207.28125 42.027344 207.328125 42.066406 207.375 Z M 44.933594 200.53125 C 44.839844 200.535156 44.746094 200.546875 44.652344 200.5625 L 41.148438 204.066406 C 41.132812 204.160156 41.121094 204.253906 41.113281 204.347656 Z M 44.347656 200.621094 C 44.230469 200.648438 44.117188 200.679688 44.003906 200.714844 L 41.296875 203.417969 C 41.261719 203.53125 41.230469 203.644531 41.203125 203.761719 Z M 46.3125 200.640625 C 46.242188 200.625 46.179688 200.609375 46.109375 200.59375 L 41.179688 205.523438 C 41.195312 205.59375 41.210938 205.65625 41.226562 205.726562 Z M 49.398438 205.5 C 49.417969 205.402344 49.433594 205.304688 49.445312 205.207031 L 45.792969 208.859375 C 45.890625 208.847656 45.992188 208.832031 46.085938 208.8125 Z M 49.46875 204.441406 C 49.464844 204.363281 49.457031 204.289062 49.449219 204.210938 L 44.796875 208.859375 C 44.871094 208.867188 44.949219 208.875 45.027344 208.878906 Z M 49.414062 203.992188 C 49.402344 203.925781 49.386719 203.855469 49.371094 203.789062 L 44.371094 208.785156 C 44.4375 208.800781 44.507812 208.816406 44.574219 208.828125 Z M 48.21875 201.710938 C 48.175781 201.671875 48.136719 201.632812 48.09375 201.589844 L 42.179688 207.503906 C 42.21875 207.546875 42.257812 207.589844 42.300781 207.628906 Z M 48.464844 207.429688 C 48.671875 207.183594 48.847656 206.925781 48.992188 206.648438 L 47.234375 208.410156 C 47.507812 208.265625 47.769531 208.089844 48.011719 207.878906 Z M 49.320312 203.589844 C 49.304688 203.523438 49.285156 203.464844 49.265625 203.398438 L 43.984375 208.679688 C 44.046875 208.699219 44.109375 208.71875 44.175781 208.738281 Z M 49.199219 206.199219 C 49.246094 206.078125 49.289062 205.957031 49.320312 205.828125 L 46.414062 208.738281 C 46.539062 208.703125 46.664062 208.660156 46.785156 208.613281 Z M 48.679688 202.246094 C 48.648438 202.199219 48.613281 202.152344 48.574219 202.105469 L 42.691406 207.984375 C 42.734375 208.023438 42.785156 208.058594 42.832031 208.09375 Z M 49.199219 203.214844 C 49.175781 203.15625 49.152344 203.097656 49.128906 203.039062 L 43.621094 208.546875 C 43.679688 208.574219 43.738281 208.597656 43.796875 208.617188 Z M 48.460938 201.96875 C 48.421875 201.921875 48.382812 201.878906 48.339844 201.839844 L 42.421875 207.757812 C 42.464844 207.796875 42.511719 207.835938 42.554688 207.875 Z M 48.875 202.542969 C 48.84375 202.496094 48.816406 202.441406 48.78125 202.390625 L 42.976562 208.195312 C 43.027344 208.230469 43.074219 208.261719 43.128906 208.289062 Z M 49.050781 202.867188 C 49.023438 202.816406 48.996094 202.757812 48.96875 202.703125 L 43.289062 208.382812 C 43.34375 208.414062 43.394531 208.4375 43.453125 208.464844 Z M 49.050781 202.867188 " fill-opacity="1" fill-rule="nonzero"/><path fill="rgb(82.749939%, 82.749939%, 82.749939%)" d="M 255.0625 237.84375 C 255.066406 238.207031 254.769531 238.507812 254.40625 238.511719 C 254.042969 238.515625 253.742188 238.222656 253.738281 237.855469 C 253.734375 237.492188 254.027344 237.195312 254.394531 237.191406 C 254.757812 237.183594 255.058594 237.480469 255.0625 237.84375 " fill-opacity="1" fill-rule="nonzero"/><path fill="rgb(82.749939%, 82.749939%, 82.749939%)" d="M 252.265625 237.203125 C 252.628906 237.199219 252.914062 237.476562 252.917969 237.839844 C 252.921875 238.214844 252.636719 238.5 252.265625 238.5 C 251.902344 238.496094 251.621094 238.214844 251.621094 237.851562 C 251.621094 237.484375 251.902344 237.203125 252.265625 237.203125 " fill-opacity="1" fill-rule="nonzero"/><path fill="rgb(82.749939%, 82.749939%, 82.749939%)" d="M 255.050781 239.9375 C 255.050781 240.300781 254.769531 240.585938 254.40625 240.589844 C 254.03125 240.589844 253.746094 240.300781 253.75 239.925781 C 253.753906 239.566406 254.039062 239.285156 254.40625 239.289062 C 254.769531 239.289062 255.050781 239.574219 255.050781 239.9375 " fill-opacity="1" fill-rule="nonzero"/><path fill="rgb(82.749939%, 82.749939%, 82.749939%)" d="M 252.269531 240.582031 C 251.90625 240.578125 251.625 240.292969 251.628906 239.929688 C 251.628906 239.570312 251.917969 239.289062 252.28125 239.296875 C 252.636719 239.300781 252.910156 239.582031 252.914062 239.933594 C 252.914062 240.296875 252.628906 240.582031 252.269531 240.582031 " fill-opacity="1" fill-rule="nonzero"/><path fill="rgb(82.749939%, 82.749939%, 82.749939%)" d="M 255.027344 235.742188 C 255.011719 236.082031 254.714844 236.359375 254.382812 236.347656 C 254.035156 236.335938 253.75 236.027344 253.773438 235.6875 C 253.800781 235.34375 254.097656 235.074219 254.429688 235.09375 C 254.769531 235.113281 255.042969 235.410156 255.027344 235.742188 " fill-opacity="1" fill-rule="nonzero"/><path fill="rgb(82.749939%, 82.749939%, 82.749939%)" d="M 257.113281 237.871094 C 257.097656 238.210938 256.804688 238.488281 256.472656 238.476562 C 256.125 238.464844 255.839844 238.15625 255.863281 237.816406 C 255.886719 237.476562 256.183594 237.207031 256.515625 237.222656 C 256.855469 237.242188 257.128906 237.539062 257.113281 237.871094 " fill-opacity="1" fill-rule="nonzero"/><path fill="rgb(82.749939%, 82.749939%, 82.749939%)" d="M 256.480469 240.558594 C 256.136719 240.554688 255.859375 240.269531 255.867188 239.925781 C 255.875 239.582031 256.164062 239.308594 256.503906 239.320312 C 256.839844 239.328125 257.109375 239.605469 257.105469 239.9375 C 257.105469 240.28125 256.824219 240.5625 256.480469 240.558594 " fill-opacity="1" fill-rule="nonzero"/><path fill="rgb(82.749939%, 82.749939%, 82.749939%)" d="M 252.269531 235.105469 C 252.617188 235.105469 252.890625 235.382812 252.882812 235.730469 C 252.878906 236.066406 252.609375 236.332031 252.273438 236.335938 C 251.925781 236.335938 251.652344 236.058594 251.65625 235.710938 C 251.660156 235.371094 251.929688 235.105469 252.269531 235.105469 " fill-opacity="1" fill-rule="nonzero"/><path fill="rgb(82.749939%, 82.749939%, 82.749939%)" d="M 254.394531 241.464844 C 254.734375 241.460938 255 241.722656 255.003906 242.0625 C 255.007812 242.402344 254.746094 242.667969 254.40625 242.671875 C 254.066406 242.675781 253.800781 242.414062 253.796875 242.074219 C 253.792969 241.734375 254.054688 241.46875 254.394531 241.464844 " fill-opacity="1" fill-rule="nonzero"/><path fill="rgb(82.749939%, 82.749939%, 82.749939%)" d="M 250.78125 239.945312 C 250.777344 240.28125 250.503906 240.546875 250.164062 240.535156 C 249.835938 240.527344 249.582031 240.261719 249.582031 239.929688 C 249.585938 239.59375 249.859375 239.332031 250.199219 239.339844 C 250.527344 239.347656 250.785156 239.617188 250.78125 239.945312 " fill-opacity="1" fill-rule="nonzero"/><path fill="rgb(82.749939%, 82.749939%, 82.749939%)" d="M 252.28125 242.667969 C 251.941406 242.671875 251.671875 242.40625 251.671875 242.066406 C 251.671875 241.738281 251.933594 241.472656 252.261719 241.46875 C 252.597656 241.464844 252.871094 241.730469 252.871094 242.070312 C 252.867188 242.398438 252.609375 242.664062 252.28125 242.667969 " fill-opacity="1" fill-rule="nonzero"/><path fill="rgb(82.749939%, 82.749939%, 82.749939%)" d="M 250.183594 238.453125 C 249.84375 238.453125 249.578125 238.1875 249.582031 237.847656 C 249.582031 237.507812 249.851562 237.242188 250.191406 237.25 C 250.523438 237.253906 250.78125 237.511719 250.785156 237.84375 C 250.789062 238.1875 250.523438 238.453125 250.183594 238.453125 " fill-opacity="1" fill-rule="nonzero"/><path fill="rgb(82.749939%, 82.749939%, 82.749939%)" d="M 256.492188 235.125 C 256.820312 235.128906 257.085938 235.394531 257.085938 235.722656 C 257.082031 236.054688 256.804688 236.324219 256.472656 236.316406 C 256.148438 236.308594 255.886719 236.035156 255.890625 235.710938 C 255.898438 235.382812 256.167969 235.121094 256.492188 235.125 " fill-opacity="1" fill-rule="nonzero"/><path fill="rgb(82.749939%, 82.749939%, 82.749939%)" d="M 257.074219 242.066406 C 257.074219 242.378906 256.804688 242.652344 256.492188 242.652344 C 256.175781 242.65625 255.90625 242.386719 255.902344 242.070312 C 255.902344 241.757812 256.167969 241.484375 256.484375 241.484375 C 256.800781 241.480469 257.070312 241.75 257.074219 242.066406 " fill-opacity="1" fill-rule="nonzero"/><path fill="rgb(82.749939%, 82.749939%, 82.749939%)" d="M 250.765625 235.710938 C 250.769531 236.027344 250.507812 236.296875 250.191406 236.304688 C 249.878906 236.308594 249.605469 236.042969 249.597656 235.726562 C 249.59375 235.414062 249.859375 235.144531 250.175781 235.136719 C 250.488281 235.132812 250.761719 235.398438 250.765625 235.710938 " fill-opacity="1" fill-rule="nonzero"/><path fill="rgb(82.749939%, 82.749939%, 82.749939%)" d="M 250.210938 241.503906 C 250.523438 241.515625 250.757812 241.773438 250.746094 242.09375 C 250.734375 242.410156 250.476562 242.644531 250.15625 242.632812 C 249.839844 242.617188 249.605469 242.363281 249.621094 242.039062 C 249.632812 241.726562 249.886719 241.492188 250.210938 241.503906 " fill-opacity="1" fill-rule="nonzero"/><path fill="rgb(82.749939%, 82.749939%, 82.749939%)" d="M 258.625 237.285156 C 258.941406 237.289062 259.183594 237.539062 259.179688 237.855469 C 259.179688 238.175781 258.929688 238.417969 258.609375 238.414062 C 258.292969 238.410156 258.050781 238.164062 258.054688 237.84375 C 258.058594 237.527344 258.304688 237.285156 258.625 237.285156 " fill-opacity="1" fill-rule="nonzero"/><path fill="rgb(82.749939%, 82.749939%, 82.749939%)" d="M 254.964844 233.625 C 254.96875 233.945312 254.726562 234.195312 254.40625 234.195312 C 254.085938 234.199219 253.839844 233.957031 253.835938 233.640625 C 253.832031 233.320312 254.074219 233.070312 254.394531 233.070312 C 254.714844 233.066406 254.960938 233.308594 254.964844 233.625 " fill-opacity="1" fill-rule="nonzero"/><path fill="rgb(82.749939%, 82.749939%, 82.749939%)" d="M 259.179688 239.933594 C 259.183594 240.253906 258.9375 240.5 258.617188 240.5 C 258.296875 240.5 258.054688 240.253906 258.054688 239.933594 C 258.058594 239.621094 258.296875 239.378906 258.605469 239.375 C 258.929688 239.371094 259.175781 239.613281 259.179688 239.933594 " fill-opacity="1" fill-rule="nonzero"/><path fill="rgb(82.749939%, 82.749939%, 82.749939%)" d="M 252.273438 233.074219 C 252.589844 233.074219 252.832031 233.324219 252.828125 233.640625 C 252.828125 233.957031 252.574219 234.199219 252.257812 234.191406 C 251.949219 234.1875 251.710938 233.945312 251.710938 233.636719 C 251.710938 233.320312 251.953125 233.074219 252.273438 233.074219 " fill-opacity="1" fill-rule="nonzero"/><path fill="rgb(82.749939%, 82.749939%, 82.749939%)" d="M 258.609375 235.171875 C 258.910156 235.167969 259.167969 235.425781 259.167969 235.722656 C 259.164062 236.015625 258.917969 236.265625 258.625 236.269531 C 258.328125 236.273438 258.066406 236.015625 258.070312 235.71875 C 258.070312 235.425781 258.316406 235.175781 258.609375 235.171875 " fill-opacity="1" fill-rule="nonzero"/><path fill="rgb(82.749939%, 82.749939%, 82.749939%)" d="M 248.601562 239.933594 C 248.605469 240.222656 248.355469 240.480469 248.0625 240.484375 C 247.765625 240.492188 247.5 240.230469 247.503906 239.933594 C 247.507812 239.640625 247.761719 239.390625 248.050781 239.390625 C 248.34375 239.390625 248.597656 239.640625 248.601562 239.933594 " fill-opacity="1" fill-rule="nonzero"/><path fill="rgb(82.749939%, 82.749939%, 82.749939%)" d="M 248.046875 238.398438 C 247.75 238.398438 247.492188 238.132812 247.503906 237.835938 C 247.511719 237.542969 247.765625 237.296875 248.054688 237.300781 C 248.355469 237.304688 248.609375 237.566406 248.601562 237.863281 C 248.59375 238.15625 248.339844 238.402344 248.046875 238.398438 " fill-opacity="1" fill-rule="nonzero"/><path fill="rgb(82.749939%, 82.749939%, 82.749939%)" d="M 257.035156 233.640625 C 257.03125 233.941406 256.765625 234.195312 256.46875 234.183594 C 256.175781 234.171875 255.933594 233.914062 255.9375 233.625 C 255.945312 233.324219 256.210938 233.070312 256.507812 233.082031 C 256.800781 233.097656 257.042969 233.351562 257.035156 233.640625 " fill-opacity="1" fill-rule="nonzero"/><path fill="rgb(82.749939%, 82.749939%, 82.749939%)" d="M 252.820312 244.160156 C 252.816406 244.457031 252.554688 244.714844 252.257812 244.703125 C 251.964844 244.695312 251.71875 244.445312 251.722656 244.152344 C 251.722656 243.851562 251.984375 243.597656 252.285156 243.605469 C 252.574219 243.613281 252.820312 243.867188 252.820312 244.160156 " fill-opacity="1" fill-rule="nonzero"/><path fill="rgb(82.749939%, 82.749939%, 82.749939%)" d="M 254.953125 244.152344 C 254.953125 244.457031 254.703125 244.710938 254.398438 244.707031 C 254.09375 244.707031 253.84375 244.453125 253.847656 244.148438 C 253.851562 243.851562 254.097656 243.605469 254.390625 243.601562 C 254.695312 243.597656 254.949219 243.847656 254.953125 244.152344 " fill-opacity="1" fill-rule="nonzero"/><path fill="rgb(82.749939%, 82.749939%, 82.749939%)" d="M 250.183594 233.097656 C 250.480469 233.097656 250.726562 233.347656 250.71875 233.640625 C 250.714844 233.9375 250.460938 234.179688 250.167969 234.171875 C 249.882812 234.160156 249.648438 233.921875 249.644531 233.636719 C 249.644531 233.34375 249.890625 233.09375 250.183594 233.097656 " fill-opacity="1" fill-rule="nonzero"/><path fill="rgb(82.749939%, 82.749939%, 82.749939%)" d="M 258.609375 242.605469 C 258.3125 242.597656 258.070312 242.347656 258.082031 242.054688 C 258.089844 241.757812 258.34375 241.519531 258.636719 241.53125 C 258.925781 241.542969 259.15625 241.785156 259.15625 242.070312 C 259.152344 242.367188 258.902344 242.609375 258.609375 242.605469 " fill-opacity="1" fill-rule="nonzero"/><path fill="rgb(82.749939%, 82.749939%, 82.749939%)" d="M 257.015625 244.15625 C 257.015625 244.453125 256.785156 244.683594 256.492188 244.683594 C 256.1875 244.683594 255.953125 244.445312 255.960938 244.140625 C 255.964844 243.847656 256.203125 243.625 256.496094 243.628906 C 256.789062 243.632812 257.015625 243.863281 257.015625 244.15625 " fill-opacity="1" fill-rule="nonzero"/><path fill="rgb(82.749939%, 82.749939%, 82.749939%)" d="M 248.574219 235.722656 C 248.574219 236.019531 248.34375 236.246094 248.046875 236.242188 C 247.753906 236.242188 247.527344 236.011719 247.527344 235.714844 C 247.53125 235.421875 247.761719 235.195312 248.054688 235.195312 C 248.351562 235.199219 248.578125 235.429688 248.574219 235.722656 " fill-opacity="1" fill-rule="nonzero"/><path fill="rgb(82.749939%, 82.749939%, 82.749939%)" d="M 250.183594 243.640625 C 250.480469 243.640625 250.703125 243.871094 250.699219 244.167969 C 250.695312 244.453125 250.46875 244.671875 250.179688 244.671875 C 249.886719 244.671875 249.660156 244.441406 249.664062 244.144531 C 249.671875 243.855469 249.898438 243.636719 250.183594 243.640625 " fill-opacity="1" fill-rule="nonzero"/><path fill="rgb(82.749939%, 82.749939%, 82.749939%)" d="M 248.566406 242.058594 C 248.570312 242.347656 248.351562 242.578125 248.066406 242.582031 C 247.769531 242.589844 247.535156 242.359375 247.539062 242.066406 C 247.539062 241.78125 247.765625 241.554688 248.050781 241.554688 C 248.335938 241.550781 248.5625 241.773438 248.566406 242.058594 " fill-opacity="1" fill-rule="nonzero"/><path fill="rgb(82.749939%, 82.749939%, 82.749939%)" d="M 258.613281 234.140625 C 258.332031 234.136719 258.097656 233.890625 258.109375 233.617188 C 258.121094 233.34375 258.355469 233.121094 258.625 233.125 C 258.902344 233.128906 259.136719 233.375 259.125 233.648438 C 259.117188 233.921875 258.878906 234.144531 258.613281 234.140625 " fill-opacity="1" fill-rule="nonzero"/><path fill="rgb(82.749939%, 82.749939%, 82.749939%)" d="M 260.710938 237.34375 C 260.984375 237.347656 261.214844 237.582031 261.210938 237.851562 C 261.210938 238.132812 260.964844 238.367188 260.6875 238.355469 C 260.414062 238.347656 260.191406 238.105469 260.199219 237.839844 C 260.207031 237.566406 260.441406 237.339844 260.710938 237.34375 " fill-opacity="1" fill-rule="nonzero"/><path fill="rgb(82.749939%, 82.749939%, 82.749939%)" d="M 254.90625 231.503906 C 254.90625 231.777344 254.675781 232.007812 254.402344 232.007812 C 254.125 232.011719 253.886719 231.765625 253.894531 231.488281 C 253.902344 231.21875 254.136719 230.992188 254.40625 230.996094 C 254.679688 231 254.910156 231.234375 254.90625 231.503906 " fill-opacity="1" fill-rule="nonzero"/><path fill="rgb(82.749939%, 82.749939%, 82.749939%)" d="M 252.269531 232.003906 C 252 232.003906 251.765625 231.769531 251.769531 231.5 C 251.769531 231.230469 252.003906 231 252.273438 231 C 252.542969 231.003906 252.773438 231.234375 252.773438 231.503906 C 252.769531 231.773438 252.539062 232.003906 252.269531 232.003906 " fill-opacity="1" fill-rule="nonzero"/><path fill="rgb(82.749939%, 82.749939%, 82.749939%)" d="M 261.207031 239.929688 C 261.214844 240.199219 260.984375 240.4375 260.714844 240.441406 C 260.445312 240.445312 260.207031 240.214844 260.203125 239.945312 C 260.195312 239.675781 260.429688 239.441406 260.699219 239.433594 C 260.964844 239.429688 261.203125 239.660156 261.207031 239.929688 " fill-opacity="1" fill-rule="nonzero"/><path fill="rgb(82.749939%, 82.749939%, 82.749939%)" d="M 259.113281 244.164062 C 259.105469 244.441406 258.867188 244.664062 258.597656 244.648438 C 258.328125 244.636719 258.117188 244.410156 258.125 244.144531 C 258.128906 243.871094 258.367188 243.648438 258.640625 243.660156 C 258.90625 243.675781 259.117188 243.902344 259.113281 244.164062 " fill-opacity="1" fill-rule="nonzero"/><path fill="rgb(82.749939%, 82.749939%, 82.749939%)" d="M 248.539062 233.640625 C 248.535156 233.910156 248.320312 234.121094 248.050781 234.121094 C 247.769531 234.117188 247.554688 233.890625 247.566406 233.613281 C 247.578125 233.34375 247.796875 233.140625 248.066406 233.144531 C 248.335938 233.152344 248.542969 233.371094 248.539062 233.640625 " fill-opacity="1" fill-rule="nonzero"/><path fill="rgb(82.749939%, 82.749939%, 82.749939%)" d="M 261.1875 235.726562 C 261.1875 236 260.972656 236.207031 260.699219 236.203125 C 260.425781 236.199219 260.21875 235.988281 260.222656 235.714844 C 260.226562 235.441406 260.4375 235.234375 260.710938 235.238281 C 260.984375 235.238281 261.191406 235.453125 261.1875 235.726562 " fill-opacity="1" fill-rule="nonzero"/><path fill="rgb(82.749939%, 82.749939%, 82.749939%)" d="M 256.496094 231.980469 C 256.222656 231.984375 256.011719 231.78125 256.007812 231.507812 C 256.007812 231.230469 256.214844 231.023438 256.488281 231.023438 C 256.753906 231.023438 256.960938 231.226562 256.964844 231.488281 C 256.972656 231.765625 256.769531 231.976562 256.496094 231.980469 " fill-opacity="1" fill-rule="nonzero"/><path fill="rgb(82.749939%, 82.749939%, 82.749939%)" d="M 250.175781 231.976562 C 249.914062 231.972656 249.710938 231.765625 249.710938 231.503906 C 249.710938 231.230469 249.925781 231.023438 250.199219 231.03125 C 250.460938 231.039062 250.660156 231.25 250.65625 231.515625 C 250.648438 231.777344 250.441406 231.976562 250.175781 231.976562 " fill-opacity="1" fill-rule="nonzero"/><path fill="rgb(82.749939%, 82.749939%, 82.749939%)" d="M 246.4375 237.855469 C 246.4375 238.121094 246.230469 238.324219 245.964844 238.324219 C 245.691406 238.324219 245.484375 238.109375 245.492188 237.835938 C 245.496094 237.570312 245.707031 237.371094 245.976562 237.375 C 246.238281 237.382812 246.441406 237.589844 246.4375 237.855469 " fill-opacity="1" fill-rule="nonzero"/><path fill="rgb(82.749939%, 82.749939%, 82.749939%)" d="M 260.699219 242.542969 C 260.433594 242.539062 260.230469 242.332031 260.230469 242.066406 C 260.230469 241.792969 260.445312 241.585938 260.722656 241.59375 C 260.984375 241.601562 261.183594 241.8125 261.179688 242.078125 C 261.175781 242.34375 260.964844 242.542969 260.699219 242.542969 " fill-opacity="1" fill-rule="nonzero"/><path fill="rgb(82.749939%, 82.749939%, 82.749939%)" d="M 252.261719 245.8125 C 252.527344 245.808594 252.738281 246.007812 252.742188 246.273438 C 252.75 246.546875 252.539062 246.761719 252.265625 246.757812 C 252 246.757812 251.796875 246.554688 251.796875 246.289062 C 251.796875 246.023438 252 245.816406 252.261719 245.8125 " fill-opacity="1" fill-rule="nonzero"/><path fill="rgb(82.749939%, 82.749939%, 82.749939%)" d="M 254.878906 246.273438 C 254.882812 246.550781 254.675781 246.761719 254.398438 246.761719 C 254.132812 246.761719 253.925781 246.5625 253.921875 246.296875 C 253.917969 246.019531 254.125 245.808594 254.402344 245.808594 C 254.667969 245.808594 254.871094 246.011719 254.878906 246.273438 " fill-opacity="1" fill-rule="nonzero"/><path fill="rgb(82.749939%, 82.749939%, 82.749939%)" d="M 245.492188 239.90625 C 245.507812 239.648438 245.726562 239.453125 245.992188 239.464844 C 246.257812 239.476562 246.457031 239.707031 246.4375 239.980469 C 246.417969 240.238281 246.195312 240.425781 245.929688 240.410156 C 245.667969 240.394531 245.476562 240.171875 245.492188 239.90625 " fill-opacity="1" fill-rule="nonzero"/><path fill="rgb(82.749939%, 82.749939%, 82.749939%)" d="M 248.523438 244.15625 C 248.519531 244.417969 248.3125 244.625 248.050781 244.625 C 247.789062 244.625 247.582031 244.414062 247.582031 244.152344 C 247.582031 243.890625 247.792969 243.683594 248.054688 243.6875 C 248.316406 243.6875 248.523438 243.894531 248.523438 244.15625 " fill-opacity="1" fill-rule="nonzero"/><path fill="rgb(82.749939%, 82.749939%, 82.749939%)" d="M 256.953125 246.273438 C 256.960938 246.53125 256.746094 246.75 256.488281 246.75 C 256.238281 246.75 256.027344 246.542969 256.023438 246.296875 C 256.015625 246.039062 256.230469 245.820312 256.488281 245.820312 C 256.738281 245.820312 256.945312 246.027344 256.953125 246.273438 " fill-opacity="1" fill-rule="nonzero"/><path fill="rgb(82.749939%, 82.749939%, 82.749939%)" d="M 245.972656 235.257812 C 246.222656 235.261719 246.433594 235.484375 246.425781 235.730469 C 246.421875 235.976562 246.203125 236.1875 245.957031 236.183594 C 245.707031 236.179688 245.496094 235.957031 245.503906 235.710938 C 245.507812 235.464844 245.726562 235.253906 245.972656 235.257812 " fill-opacity="1" fill-rule="nonzero"/><path fill="rgb(82.749939%, 82.749939%, 82.749939%)" d="M 250.171875 245.828125 C 250.417969 245.820312 250.640625 246.039062 250.640625 246.285156 C 250.640625 246.527344 250.433594 246.734375 250.191406 246.742188 C 249.945312 246.75 249.726562 246.53125 249.726562 246.285156 C 249.726562 246.046875 249.929688 245.835938 250.171875 245.828125 " fill-opacity="1" fill-rule="nonzero"/><path fill="rgb(82.749939%, 82.749939%, 82.749939%)" d="M 246.421875 242.070312 C 246.421875 242.316406 246.199219 242.53125 245.953125 242.523438 C 245.710938 242.515625 245.507812 242.304688 245.507812 242.066406 C 245.507812 241.820312 245.730469 241.605469 245.976562 241.613281 C 246.21875 241.621094 246.421875 241.828125 246.421875 242.070312 " fill-opacity="1" fill-rule="nonzero"/><path fill="rgb(82.749939%, 82.749939%, 82.749939%)" d="M 259.0625 231.496094 C 259.066406 231.742188 258.871094 231.945312 258.625 231.949219 C 258.375 231.953125 258.175781 231.753906 258.171875 231.507812 C 258.167969 231.261719 258.367188 231.058594 258.613281 231.058594 C 258.859375 231.054688 259.0625 231.25 259.0625 231.496094 " fill-opacity="1" fill-rule="nonzero"/><path fill="rgb(82.749939%, 82.749939%, 82.749939%)" d="M 261.152344 233.628906 C 261.152344 233.875 260.957031 234.074219 260.710938 234.078125 C 260.464844 234.082031 260.261719 233.886719 260.257812 233.636719 C 260.257812 233.390625 260.453125 233.191406 260.699219 233.1875 C 260.945312 233.183594 261.148438 233.382812 261.152344 233.628906 " fill-opacity="1" fill-rule="nonzero"/><path fill="rgb(82.749939%, 82.749939%, 82.749939%)" d="M 259.042969 246.292969 C 259.042969 246.53125 258.847656 246.71875 258.605469 246.710938 C 258.367188 246.707031 258.183594 246.507812 258.191406 246.269531 C 258.199219 246.039062 258.386719 245.859375 258.617188 245.859375 C 258.859375 245.859375 259.046875 246.050781 259.042969 246.292969 " fill-opacity="1" fill-rule="nonzero"/><path fill="rgb(82.749939%, 82.749939%, 82.749939%)" d="M 248.042969 231.074219 C 248.28125 231.070312 248.476562 231.257812 248.480469 231.5 C 248.480469 231.738281 248.292969 231.929688 248.050781 231.929688 C 247.820312 231.929688 247.632812 231.75 247.625 231.519531 C 247.617188 231.277344 247.804688 231.082031 248.042969 231.074219 " fill-opacity="1" fill-rule="nonzero"/><path fill="rgb(82.749939%, 82.749939%, 82.749939%)" d="M 245.972656 233.207031 C 246.210938 233.210938 246.398438 233.414062 246.390625 233.648438 C 246.382812 233.878906 246.1875 234.0625 245.957031 234.058594 C 245.71875 234.054688 245.53125 233.851562 245.539062 233.617188 C 245.546875 233.386719 245.742188 233.203125 245.972656 233.207031 " fill-opacity="1" fill-rule="nonzero"/><path fill="rgb(82.749939%, 82.749939%, 82.749939%)" d="M 263.261719 237.84375 C 263.265625 238.082031 263.078125 238.277344 262.839844 238.277344 C 262.597656 238.28125 262.40625 238.085938 262.410156 237.847656 C 262.410156 237.617188 262.589844 237.429688 262.820312 237.421875 C 263.0625 237.417969 263.257812 237.601562 263.261719 237.84375 " fill-opacity="1" fill-rule="nonzero"/><path fill="rgb(82.749939%, 82.749939%, 82.749939%)" d="M 254.824219 229.414062 C 254.828125 229.652344 254.628906 229.847656 254.390625 229.839844 C 254.160156 229.835938 253.976562 229.648438 253.972656 229.417969 C 253.972656 229.179688 254.171875 228.984375 254.410156 228.988281 C 254.640625 228.996094 254.824219 229.183594 254.824219 229.414062 " fill-opacity="1" fill-rule="nonzero"/><path fill="rgb(82.749939%, 82.749939%, 82.749939%)" d="M 260.714844 243.722656 C 260.957031 243.726562 261.136719 243.914062 261.136719 244.160156 C 261.136719 244.410156 260.9375 244.597656 260.6875 244.585938 C 260.445312 244.578125 260.265625 244.386719 260.273438 244.140625 C 260.28125 243.902344 260.472656 243.71875 260.714844 243.722656 " fill-opacity="1" fill-rule="nonzero"/><path fill="rgb(82.749939%, 82.749939%, 82.749939%)" d="M 252.695312 229.421875 C 252.6875 229.652344 252.492188 229.839844 252.265625 229.839844 C 252.03125 229.835938 251.835938 229.628906 251.847656 229.398438 C 251.859375 229.167969 252.058594 228.984375 252.285156 228.992188 C 252.511719 229 252.699219 229.199219 252.695312 229.421875 " fill-opacity="1" fill-rule="nonzero"/><path fill="rgb(82.749939%, 82.749939%, 82.749939%)" d="M 263.257812 239.941406 C 263.257812 240.167969 263.0625 240.359375 262.835938 240.359375 C 262.601562 240.363281 262.402344 240.15625 262.410156 239.921875 C 262.421875 239.695312 262.621094 239.507812 262.84375 239.515625 C 263.074219 239.519531 263.261719 239.714844 263.257812 239.941406 " fill-opacity="1" fill-rule="nonzero"/><path fill="rgb(82.749939%, 82.749939%, 82.749939%)" d="M 248.050781 246.695312 C 247.832031 246.695312 247.644531 246.511719 247.644531 246.289062 C 247.640625 246.0625 247.835938 245.867188 248.0625 245.875 C 248.285156 245.882812 248.464844 246.070312 248.460938 246.292969 C 248.457031 246.511719 248.269531 246.695312 248.050781 246.695312 " fill-opacity="1" fill-rule="nonzero"/><path fill="rgb(82.749939%, 82.749939%, 82.749939%)" d="M 256.898438 229.414062 C 256.898438 229.632812 256.714844 229.820312 256.496094 229.824219 C 256.269531 229.832031 256.074219 229.636719 256.078125 229.40625 C 256.082031 229.1875 256.269531 229.003906 256.488281 229.003906 C 256.710938 229.007812 256.894531 229.191406 256.898438 229.414062 " fill-opacity="1" fill-rule="nonzero"/><path fill="rgb(82.749939%, 82.749939%, 82.749939%)" d="M 246.375 244.160156 C 246.371094 244.378906 246.183594 244.566406 245.964844 244.566406 C 245.738281 244.566406 245.546875 244.367188 245.554688 244.140625 C 245.566406 243.917969 245.757812 243.738281 245.976562 243.746094 C 246.195312 243.753906 246.378906 243.941406 246.375 244.160156 " fill-opacity="1" fill-rule="nonzero"/><path fill="rgb(82.749939%, 82.749939%, 82.749939%)" d="M 262.839844 236.128906 C 262.621094 236.132812 262.433594 235.953125 262.425781 235.730469 C 262.417969 235.503906 262.613281 235.308594 262.839844 235.3125 C 263.058594 235.3125 263.246094 235.5 263.246094 235.71875 C 263.246094 235.9375 263.0625 236.125 262.839844 236.128906 " fill-opacity="1" fill-rule="nonzero"/><path fill="rgb(82.749939%, 82.749939%, 82.749939%)" d="M 263.234375 242.066406 C 263.234375 242.292969 263.058594 242.46875 262.832031 242.464844 C 262.605469 242.464844 262.433594 242.289062 262.4375 242.058594 C 262.441406 241.839844 262.609375 241.675781 262.828125 241.667969 C 263.054688 241.667969 263.230469 241.839844 263.234375 242.066406 " fill-opacity="1" fill-rule="nonzero"/><path fill="rgb(82.749939%, 82.749939%, 82.749939%)" d="M 254.796875 248.378906 C 254.792969 248.609375 254.613281 248.777344 254.382812 248.769531 C 254.164062 248.761719 254 248.589844 254.003906 248.367188 C 254.007812 248.136719 254.1875 247.96875 254.417969 247.976562 C 254.636719 247.984375 254.796875 248.15625 254.796875 248.378906 " fill-opacity="1" fill-rule="nonzero"/><path fill="rgb(82.749939%, 82.749939%, 82.749939%)" d="M 250.578125 229.421875 C 250.574219 229.648438 250.394531 229.820312 250.167969 229.8125 C 249.945312 229.804688 249.785156 229.632812 249.785156 229.410156 C 249.789062 229.179688 249.96875 229.011719 250.199219 229.019531 C 250.417969 229.027344 250.582031 229.199219 250.578125 229.421875 " fill-opacity="1" fill-rule="nonzero"/><path fill="rgb(82.749939%, 82.749939%, 82.749939%)" d="M 252.660156 248.371094 C 252.660156 248.59375 252.496094 248.761719 252.277344 248.761719 C 252.046875 248.765625 251.875 248.59375 251.878906 248.363281 C 251.882812 248.144531 252.054688 247.980469 252.273438 247.980469 C 252.496094 247.984375 252.660156 248.152344 252.660156 248.371094 " fill-opacity="1" fill-rule="nonzero"/><path fill="rgb(82.749939%, 82.749939%, 82.749939%)" d="M 243.839844 238.242188 C 243.621094 238.246094 243.449219 238.082031 243.445312 237.863281 C 243.4375 237.632812 243.609375 237.457031 243.839844 237.460938 C 244.058594 237.460938 244.226562 237.628906 244.226562 237.847656 C 244.226562 238.070312 244.0625 238.238281 243.839844 238.242188 " fill-opacity="1" fill-rule="nonzero"/><path fill="rgb(82.749939%, 82.749939%, 82.749939%)" d="M 261.09375 231.511719 C 261.089844 231.730469 260.917969 231.894531 260.699219 231.890625 C 260.480469 231.886719 260.3125 231.714844 260.316406 231.496094 C 260.320312 231.277344 260.492188 231.109375 260.710938 231.113281 C 260.933594 231.117188 261.097656 231.289062 261.09375 231.511719 " fill-opacity="1" fill-rule="nonzero"/><path fill="rgb(82.749939%, 82.749939%, 82.749939%)" d="M 244.222656 239.925781 C 244.226562 240.148438 244.0625 240.320312 243.84375 240.328125 C 243.625 240.332031 243.449219 240.167969 243.445312 239.949219 C 243.441406 239.726562 243.605469 239.554688 243.824219 239.550781 C 244.042969 239.542969 244.21875 239.710938 244.222656 239.925781 " fill-opacity="1" fill-rule="nonzero"/><path fill="rgb(82.749939%, 82.749939%, 82.749939%)" d="M 244.207031 242.066406 C 244.210938 242.265625 244.027344 242.445312 243.828125 242.441406 C 243.632812 242.4375 243.464844 242.265625 243.460938 242.070312 C 243.460938 241.871094 243.640625 241.691406 243.84375 241.695312 C 244.035156 241.699219 244.207031 241.871094 244.207031 242.066406 " fill-opacity="1" fill-rule="nonzero"/><path fill="rgb(82.749939%, 82.749939%, 82.749939%)" d="M 256.472656 248.753906 C 256.265625 248.746094 256.101562 248.566406 256.105469 248.363281 C 256.113281 248.148438 256.304688 247.976562 256.515625 247.992188 C 256.71875 248.007812 256.882812 248.191406 256.867188 248.394531 C 256.855469 248.597656 256.675781 248.765625 256.472656 248.753906 " fill-opacity="1" fill-rule="nonzero"/><path fill="rgb(82.749939%, 82.749939%, 82.749939%)" d="M 246.335938 231.507812 C 246.332031 231.703125 246.160156 231.871094 245.964844 231.871094 C 245.761719 231.875 245.585938 231.6875 245.59375 231.488281 C 245.605469 231.292969 245.78125 231.125 245.976562 231.132812 C 246.171875 231.140625 246.339844 231.3125 246.335938 231.507812 " fill-opacity="1" fill-rule="nonzero"/><path fill="rgb(82.749939%, 82.749939%, 82.749939%)" d="M 261.078125 246.285156 C 261.078125 246.484375 260.894531 246.664062 260.695312 246.660156 C 260.5 246.652344 260.332031 246.480469 260.332031 246.285156 C 260.332031 246.085938 260.515625 245.90625 260.714844 245.914062 C 260.910156 245.917969 261.078125 246.09375 261.078125 246.285156 " fill-opacity="1" fill-rule="nonzero"/><path fill="rgb(82.749939%, 82.749939%, 82.749939%)" d="M 250.558594 248.378906 C 250.554688 248.582031 250.371094 248.757812 250.171875 248.75 C 249.96875 248.742188 249.796875 248.554688 249.808594 248.355469 C 249.816406 248.164062 249.992188 247.996094 250.183594 247.996094 C 250.382812 247.996094 250.5625 248.179688 250.558594 248.378906 " fill-opacity="1" fill-rule="nonzero"/><path fill="rgb(82.749939%, 82.749939%, 82.749939%)" d="M 258.621094 229.792969 C 258.421875 229.792969 258.242188 229.613281 258.242188 229.414062 C 258.242188 229.210938 258.425781 229.035156 258.625 229.039062 C 258.816406 229.042969 258.988281 229.214844 258.992188 229.40625 C 259 229.605469 258.824219 229.789062 258.621094 229.792969 " fill-opacity="1" fill-rule="nonzero"/><path fill="rgb(82.749939%, 82.749939%, 82.749939%)" d="M 263.210938 233.621094 C 263.21875 233.820312 263.042969 234.003906 262.839844 234.007812 C 262.640625 234.011719 262.460938 233.832031 262.460938 233.632812 C 262.460938 233.441406 262.625 233.265625 262.820312 233.257812 C 263.019531 233.246094 263.203125 233.421875 263.210938 233.621094 " fill-opacity="1" fill-rule="nonzero"/><path fill="rgb(82.749939%, 82.749939%, 82.749939%)" d="M 244.214844 235.710938 C 244.21875 235.914062 244.050781 236.09375 243.84375 236.101562 C 243.640625 236.105469 243.460938 235.933594 243.453125 235.730469 C 243.449219 235.527344 243.621094 235.347656 243.824219 235.339844 C 244.027344 235.335938 244.207031 235.503906 244.214844 235.710938 " fill-opacity="1" fill-rule="nonzero"/><path fill="rgb(82.749939%, 82.749939%, 82.749939%)" d="M 263.1875 244.144531 C 263.195312 244.351562 263.039062 244.507812 262.835938 244.507812 C 262.636719 244.507812 262.488281 244.363281 262.480469 244.164062 C 262.476562 243.960938 262.628906 243.800781 262.835938 243.800781 C 263.03125 243.800781 263.183594 243.949219 263.1875 244.144531 " fill-opacity="1" fill-rule="nonzero"/><path fill="rgb(82.749939%, 82.749939%, 82.749939%)" d="M 248.402344 229.414062 C 248.402344 229.613281 248.257812 229.761719 248.058594 229.765625 C 247.851562 229.769531 247.695312 229.613281 247.703125 229.40625 C 247.707031 229.207031 247.859375 229.0625 248.058594 229.066406 C 248.253906 229.066406 248.402344 229.214844 248.402344 229.414062 " fill-opacity="1" fill-rule="nonzero"/><path fill="rgb(82.749939%, 82.749939%, 82.749939%)" d="M 245.972656 246.628906 C 245.773438 246.632812 245.621094 246.484375 245.621094 246.289062 C 245.621094 246.089844 245.769531 245.941406 245.96875 245.941406 C 246.15625 245.941406 246.304688 246.085938 246.308594 246.273438 C 246.316406 246.46875 246.167969 246.625 245.972656 246.628906 " fill-opacity="1" fill-rule="nonzero"/><path fill="rgb(82.749939%, 82.749939%, 82.749939%)" d="M 258.617188 248.03125 C 258.8125 248.03125 258.964844 248.1875 258.960938 248.382812 C 258.957031 248.570312 258.804688 248.714844 258.617188 248.714844 C 258.421875 248.714844 258.269531 248.558594 258.273438 248.363281 C 258.28125 248.175781 258.429688 248.03125 258.617188 248.03125 " fill-opacity="1" fill-rule="nonzero"/><path fill="rgb(82.749939%, 82.749939%, 82.749939%)" d="M 254.070312 227.269531 C 254.078125 227.097656 254.242188 226.949219 254.410156 226.953125 C 254.589844 226.960938 254.746094 227.136719 254.730469 227.3125 C 254.714844 227.484375 254.546875 227.628906 254.378906 227.617188 C 254.207031 227.601562 254.058594 227.4375 254.070312 227.269531 " fill-opacity="1" fill-rule="nonzero"/><path fill="rgb(82.749939%, 82.749939%, 82.749939%)" d="M 248.382812 248.375 C 248.382812 248.542969 248.230469 248.699219 248.058594 248.703125 C 247.878906 248.707031 247.714844 248.542969 247.722656 248.363281 C 247.726562 248.191406 247.886719 248.039062 248.058594 248.042969 C 248.230469 248.046875 248.382812 248.203125 248.382812 248.375 " fill-opacity="1" fill-rule="nonzero"/><path fill="rgb(82.749939%, 82.749939%, 82.749939%)" d="M 264.929688 237.515625 C 265.109375 237.519531 265.265625 237.691406 265.257812 237.867188 C 265.246094 238.039062 265.085938 238.1875 264.917969 238.183594 C 264.738281 238.179688 264.578125 238.011719 264.589844 237.832031 C 264.597656 237.660156 264.757812 237.511719 264.929688 237.515625 " fill-opacity="1" fill-rule="nonzero"/><path fill="rgb(82.749939%, 82.749939%, 82.749939%)" d="M 265.253906 239.9375 C 265.253906 240.109375 265.101562 240.265625 264.929688 240.269531 C 264.75 240.273438 264.585938 240.105469 264.59375 239.925781 C 264.597656 239.753906 264.757812 239.605469 264.929688 239.605469 C 265.101562 239.609375 265.253906 239.765625 265.253906 239.9375 " fill-opacity="1" fill-rule="nonzero"/><path fill="rgb(82.749939%, 82.749939%, 82.749939%)" d="M 243.839844 233.292969 C 244.023438 233.296875 244.175781 233.453125 244.175781 233.636719 C 244.171875 233.824219 244.007812 233.984375 243.816406 233.972656 C 243.632812 233.960938 243.488281 233.800781 243.496094 233.621094 C 243.503906 233.4375 243.660156 233.289062 243.839844 233.292969 " fill-opacity="1" fill-rule="nonzero"/><path fill="rgb(82.749939%, 82.749939%, 82.749939%)" d="M 244.15625 244.148438 C 244.160156 244.324219 244.011719 244.476562 243.835938 244.476562 C 243.667969 244.480469 243.523438 244.339844 243.511719 244.171875 C 243.503906 243.996094 243.644531 243.839844 243.824219 243.832031 C 244 243.824219 244.152344 243.972656 244.15625 244.148438 " fill-opacity="1" fill-rule="nonzero"/><path fill="rgb(82.749939%, 82.749939%, 82.749939%)" d="M 252.59375 227.289062 C 252.589844 227.464844 252.4375 227.613281 252.261719 227.609375 C 252.085938 227.601562 251.9375 227.449219 251.949219 227.273438 C 251.953125 227.101562 252.097656 226.964844 252.269531 226.960938 C 252.445312 226.960938 252.59375 227.113281 252.59375 227.289062 " fill-opacity="1" fill-rule="nonzero"/><path fill="rgb(82.749939%, 82.749939%, 82.749939%)" d="M 264.921875 235.410156 C 265.097656 235.410156 265.230469 235.539062 265.230469 235.714844 C 265.234375 235.898438 265.097656 236.035156 264.914062 236.03125 C 264.738281 236.023438 264.613281 235.890625 264.613281 235.714844 C 264.617188 235.539062 264.746094 235.414062 264.921875 235.410156 " fill-opacity="1" fill-rule="nonzero"/><path fill="rgb(82.749939%, 82.749939%, 82.749939%)" d="M 262.835938 231.195312 C 263.011719 231.195312 263.140625 231.320312 263.144531 231.496094 C 263.148438 231.679688 263.011719 231.816406 262.824219 231.8125 C 262.652344 231.808594 262.523438 231.675781 262.527344 231.496094 C 262.527344 231.320312 262.660156 231.195312 262.835938 231.195312 " fill-opacity="1" fill-rule="nonzero"/><path fill="rgb(82.749939%, 82.749939%, 82.749939%)" d="M 261.015625 229.40625 C 261.019531 229.582031 260.894531 229.71875 260.71875 229.722656 C 260.535156 229.730469 260.394531 229.597656 260.398438 229.414062 C 260.398438 229.238281 260.523438 229.109375 260.699219 229.105469 C 260.878906 229.105469 261.007812 229.230469 261.015625 229.40625 " fill-opacity="1" fill-rule="nonzero"/><path fill="rgb(82.749939%, 82.749939%, 82.749939%)" d="M 256.792969 227.292969 C 256.789062 227.46875 256.65625 227.597656 256.476562 227.589844 C 256.304688 227.585938 256.175781 227.453125 256.183594 227.277344 C 256.1875 227.101562 256.320312 226.972656 256.496094 226.980469 C 256.671875 226.984375 256.796875 227.117188 256.792969 227.292969 " fill-opacity="1" fill-rule="nonzero"/><path fill="rgb(82.749939%, 82.749939%, 82.749939%)" d="M 264.921875 242.367188 C 264.757812 242.367188 264.625 242.234375 264.625 242.070312 C 264.621094 241.898438 264.761719 241.761719 264.933594 241.769531 C 265.097656 241.773438 265.226562 241.910156 265.222656 242.074219 C 265.21875 242.238281 265.085938 242.367188 264.921875 242.367188 " fill-opacity="1" fill-rule="nonzero"/><path fill="rgb(82.749939%, 82.749939%, 82.749939%)" d="M 241.761719 239.648438 C 241.914062 239.660156 242.042969 239.800781 242.035156 239.949219 C 242.027344 240.109375 241.878906 240.242188 241.722656 240.226562 C 241.570312 240.207031 241.445312 240.066406 241.460938 239.917969 C 241.472656 239.765625 241.613281 239.640625 241.761719 239.648438 " fill-opacity="1" fill-rule="nonzero"/><path fill="rgb(82.749939%, 82.749939%, 82.749939%)" d="M 245.960938 229.703125 C 245.808594 229.703125 245.675781 229.566406 245.675781 229.417969 C 245.675781 229.257812 245.824219 229.117188 245.980469 229.128906 C 246.128906 229.136719 246.257812 229.273438 246.253906 229.425781 C 246.246094 229.574219 246.109375 229.707031 245.960938 229.703125 " fill-opacity="1" fill-rule="nonzero"/><path fill="rgb(82.749939%, 82.749939%, 82.749939%)" d="M 262.828125 245.996094 C 262.984375 245.988281 263.128906 246.128906 263.125 246.289062 C 263.125 246.4375 262.996094 246.570312 262.84375 246.578125 C 262.6875 246.582031 262.542969 246.441406 262.542969 246.285156 C 262.546875 246.132812 262.675781 246 262.828125 245.996094 " fill-opacity="1" fill-rule="nonzero"/><path fill="rgb(82.749939%, 82.749939%, 82.749939%)" d="M 252.558594 250.503906 C 252.558594 250.65625 252.425781 250.789062 252.273438 250.792969 C 252.117188 250.792969 251.976562 250.648438 251.980469 250.492188 C 251.988281 250.339844 252.125 250.210938 252.277344 250.214844 C 252.425781 250.21875 252.558594 250.355469 252.558594 250.503906 " fill-opacity="1" fill-rule="nonzero"/><path fill="rgb(82.749939%, 82.749939%, 82.749939%)" d="M 250.480469 227.277344 C 250.484375 227.433594 250.347656 227.578125 250.191406 227.582031 C 250.03125 227.585938 249.890625 227.453125 249.886719 227.292969 C 249.882812 227.136719 250.015625 226.992188 250.175781 226.988281 C 250.332031 226.984375 250.472656 227.121094 250.480469 227.277344 " fill-opacity="1" fill-rule="nonzero"/><path fill="rgb(82.749939%, 82.749939%, 82.749939%)" d="M 242.035156 237.855469 C 242.03125 238.003906 241.898438 238.136719 241.75 238.140625 C 241.589844 238.140625 241.449219 237.992188 241.457031 237.835938 C 241.46875 237.683594 241.605469 237.558594 241.757812 237.5625 C 241.90625 237.566406 242.039062 237.703125 242.035156 237.855469 " fill-opacity="1" fill-rule="nonzero"/><path fill="rgb(82.749939%, 82.749939%, 82.749939%)" d="M 260.992188 248.378906 C 260.988281 248.53125 260.855469 248.660156 260.703125 248.660156 C 260.546875 248.660156 260.40625 248.511719 260.417969 248.355469 C 260.425781 248.207031 260.566406 248.078125 260.714844 248.085938 C 260.867188 248.089844 260.996094 248.230469 260.992188 248.378906 " fill-opacity="1" fill-rule="nonzero"/><path fill="rgb(82.749939%, 82.749939%, 82.749939%)" d="M 254.390625 250.792969 C 254.230469 250.789062 254.097656 250.636719 254.109375 250.480469 C 254.121094 250.332031 254.261719 250.207031 254.410156 250.210938 C 254.570312 250.21875 254.703125 250.367188 254.691406 250.523438 C 254.679688 250.675781 254.539062 250.800781 254.390625 250.792969 " fill-opacity="1" fill-rule="nonzero"/><path fill="rgb(82.749939%, 82.749939%, 82.749939%)" d="M 244.109375 231.503906 C 244.09375 231.671875 244.003906 231.765625 243.835938 231.773438 C 243.675781 231.78125 243.550781 231.648438 243.5625 231.488281 C 243.578125 231.320312 243.675781 231.226562 243.84375 231.234375 C 244.011719 231.238281 244.097656 231.339844 244.109375 231.503906 " fill-opacity="1" fill-rule="nonzero"/><path fill="rgb(82.749939%, 82.749939%, 82.749939%)" d="M 256.496094 250.773438 C 256.332031 250.761719 256.226562 250.683594 256.222656 250.511719 C 256.21875 250.34375 256.308594 250.242188 256.480469 250.238281 C 256.648438 250.230469 256.75 250.324219 256.753906 250.496094 C 256.757812 250.664062 256.664062 250.753906 256.496094 250.773438 " fill-opacity="1" fill-rule="nonzero"/><path fill="rgb(82.749939%, 82.749939%, 82.749939%)" d="M 241.777344 235.980469 C 241.59375 235.984375 241.476562 235.867188 241.488281 235.710938 C 241.496094 235.550781 241.585938 235.464844 241.746094 235.460938 C 241.898438 235.453125 242.015625 235.574219 242.007812 235.730469 C 242 235.890625 241.90625 235.96875 241.777344 235.980469 " fill-opacity="1" fill-rule="nonzero"/><path fill="rgb(82.749939%, 82.749939%, 82.749939%)" d="M 265.1875 233.621094 C 265.191406 233.777344 265.082031 233.894531 264.929688 233.898438 C 264.773438 233.898438 264.65625 233.785156 264.660156 233.632812 C 264.664062 233.472656 264.75 233.382812 264.90625 233.371094 C 265.0625 233.355469 265.183594 233.46875 265.1875 233.621094 " fill-opacity="1" fill-rule="nonzero"/><path fill="rgb(82.749939%, 82.749939%, 82.749939%)" d="M 258.617188 227.023438 C 258.769531 227.023438 258.886719 227.140625 258.878906 227.292969 C 258.867188 227.453125 258.777344 227.539062 258.621094 227.546875 C 258.464844 227.550781 258.351562 227.429688 258.355469 227.277344 C 258.359375 227.132812 258.472656 227.023438 258.617188 227.023438 " fill-opacity="1" fill-rule="nonzero"/><path fill="rgb(82.749939%, 82.749939%, 82.749939%)" d="M 250.441406 250.496094 C 250.425781 250.652344 250.351562 250.746094 250.191406 250.757812 C 250.042969 250.769531 249.917969 250.644531 249.925781 250.496094 C 249.9375 250.339844 250.027344 250.25 250.183594 250.25 C 250.34375 250.25 250.421875 250.347656 250.441406 250.496094 " fill-opacity="1" fill-rule="nonzero"/><path fill="rgb(82.749939%, 82.749939%, 82.749939%)" d="M 241.757812 241.8125 C 241.910156 241.835938 242.007812 241.921875 242 242.078125 C 241.992188 242.234375 241.894531 242.328125 241.738281 242.320312 C 241.582031 242.3125 241.488281 242.214844 241.496094 242.058594 C 241.5 241.902344 241.601562 241.824219 241.757812 241.8125 " fill-opacity="1" fill-rule="nonzero"/><path fill="rgb(82.749939%, 82.749939%, 82.749939%)" d="M 244.089844 246.285156 C 244.070312 246.4375 243.988281 246.539062 243.832031 246.535156 C 243.675781 246.53125 243.582031 246.433594 243.585938 246.277344 C 243.589844 246.132812 243.683594 246.039062 243.828125 246.035156 C 243.984375 246.035156 244.066406 246.132812 244.089844 246.285156 " fill-opacity="1" fill-rule="nonzero"/><path fill="rgb(82.749939%, 82.749939%, 82.749939%)" d="M 265.179688 244.144531 C 265.160156 244.300781 265.082031 244.402344 264.925781 244.40625 C 264.769531 244.40625 264.675781 244.308594 264.671875 244.152344 C 264.671875 244.007812 264.765625 243.914062 264.910156 243.90625 C 265.066406 243.898438 265.148438 243.996094 265.179688 244.144531 " fill-opacity="1" fill-rule="nonzero"/><path fill="rgb(82.749939%, 82.749939%, 82.749939%)" d="M 246.222656 248.359375 C 246.203125 248.523438 246.125 248.625 245.96875 248.625 C 245.8125 248.625 245.714844 248.53125 245.714844 248.375 C 245.710938 248.21875 245.804688 248.125 245.960938 248.121094 C 246.121094 248.117188 246.199219 248.222656 246.222656 248.359375 " fill-opacity="1" fill-rule="nonzero"/><path fill="rgb(82.749939%, 82.749939%, 82.749939%)" d="M 248.300781 227.289062 C 248.277344 227.433594 248.195312 227.53125 248.046875 227.527344 C 247.902344 227.523438 247.808594 227.425781 247.808594 227.28125 C 247.8125 227.132812 247.910156 227.039062 248.058594 227.042969 C 248.203125 227.046875 248.28125 227.144531 248.300781 227.289062 " fill-opacity="1" fill-rule="nonzero"/><path fill="rgb(82.749939%, 82.749939%, 82.749939%)" d="M 263.058594 229.417969 C 263.042969 229.558594 262.96875 229.640625 262.824219 229.632812 C 262.6875 229.628906 262.617188 229.546875 262.617188 229.414062 C 262.621094 229.269531 262.703125 229.191406 262.847656 229.199219 C 262.984375 229.203125 263.046875 229.285156 263.058594 229.417969 " fill-opacity="1" fill-rule="nonzero"/><path fill="rgb(82.749939%, 82.749939%, 82.749939%)" d="M 241.726562 233.410156 C 241.871094 233.417969 241.957031 233.480469 241.964844 233.617188 C 241.972656 233.757812 241.898438 233.847656 241.753906 233.851562 C 241.621094 233.855469 241.539062 233.785156 241.53125 233.648438 C 241.519531 233.503906 241.601562 233.429688 241.726562 233.410156 " fill-opacity="1" fill-rule="nonzero"/><path fill="rgb(82.749939%, 82.749939%, 82.749939%)" d="M 258.632812 250.28125 C 258.765625 250.300781 258.839844 250.371094 258.835938 250.507812 C 258.832031 250.652344 258.746094 250.726562 258.601562 250.722656 C 258.46875 250.714844 258.398438 250.632812 258.398438 250.5 C 258.402344 250.351562 258.492188 250.285156 258.632812 250.28125 " fill-opacity="1" fill-rule="nonzero"/><path fill="rgb(82.749939%, 82.749939%, 82.749939%)" d="M 241.742188 244.359375 C 241.621094 244.339844 241.542969 244.273438 241.546875 244.148438 C 241.550781 244.027344 241.632812 243.949219 241.753906 243.953125 C 241.875 243.957031 241.953125 244.039062 241.949219 244.160156 C 241.945312 244.28125 241.863281 244.347656 241.742188 244.359375 " fill-opacity="1" fill-rule="nonzero"/><path fill="rgb(82.749939%, 82.749939%, 82.749939%)" d="M 248.257812 250.5 C 248.242188 250.617188 248.179688 250.699219 248.058594 250.703125 C 247.933594 250.707031 247.855469 250.628906 247.851562 250.507812 C 247.847656 250.386719 247.925781 250.304688 248.046875 250.300781 C 248.167969 250.296875 248.238281 250.378906 248.257812 250.5 " fill-opacity="1" fill-rule="nonzero"/><path fill="rgb(82.749939%, 82.749939%, 82.749939%)" d="M 264.921875 231.304688 C 265.046875 231.320312 265.121094 231.386719 265.117188 231.507812 C 265.113281 231.628906 265.03125 231.703125 264.910156 231.699219 C 264.800781 231.691406 264.726562 231.617188 264.726562 231.507812 C 264.726562 231.386719 264.804688 231.320312 264.921875 231.304688 " fill-opacity="1" fill-rule="nonzero"/><path fill="rgb(82.749939%, 82.749939%, 82.749939%)" d="M 260.707031 227.085938 C 260.828125 227.101562 260.90625 227.171875 260.902344 227.292969 C 260.894531 227.414062 260.8125 227.488281 260.691406 227.480469 C 260.582031 227.472656 260.507812 227.398438 260.511719 227.289062 C 260.511719 227.164062 260.585938 227.101562 260.707031 227.085938 " fill-opacity="1" fill-rule="nonzero"/><g clip-path="url(#id4)"><path fill="rgb(82.749939%, 82.749939%, 82.749939%)" d="M 267.238281 237.847656 C 267.230469 237.964844 267.171875 238.03125 267.050781 238.03125 C 266.945312 238.03125 266.878906 237.972656 266.871094 237.863281 C 266.863281 237.75 266.921875 237.675781 267.042969 237.667969 C 267.160156 237.664062 267.226562 237.726562 267.238281 237.847656 " fill-opacity="1" fill-rule="nonzero"/></g><path fill="rgb(82.749939%, 82.749939%, 82.749939%)" d="M 252.449219 225.1875 C 252.441406 225.3125 252.382812 225.378906 252.261719 225.375 C 252.15625 225.371094 252.09375 225.308594 252.09375 225.203125 C 252.09375 225.082031 252.160156 225.019531 252.277344 225.023438 C 252.386719 225.023438 252.4375 225.089844 252.449219 225.1875 " fill-opacity="1" fill-rule="nonzero"/><path fill="rgb(82.749939%, 82.749939%, 82.749939%)" d="M 243.839844 229.59375 C 243.726562 229.585938 243.65625 229.53125 243.660156 229.410156 C 243.660156 229.304688 243.722656 229.242188 243.828125 229.238281 C 243.945312 229.238281 244.011719 229.300781 244.011719 229.417969 C 244.011719 229.527344 243.945312 229.582031 243.839844 229.59375 " fill-opacity="1" fill-rule="nonzero"/><path fill="rgb(82.749939%, 82.749939%, 82.749939%)" d="M 254.402344 225.375 C 254.289062 225.371094 254.222656 225.308594 254.222656 225.191406 C 254.226562 225.085938 254.289062 225.023438 254.394531 225.023438 C 254.515625 225.019531 254.578125 225.085938 254.578125 225.203125 C 254.574219 225.3125 254.511719 225.367188 254.402344 225.375 " fill-opacity="1" fill-rule="nonzero"/><path fill="rgb(82.749939%, 82.749939%, 82.749939%)" d="M 265.09375 246.289062 C 265.074219 246.390625 265.019531 246.457031 264.914062 246.449219 C 264.816406 246.445312 264.753906 246.382812 264.757812 246.285156 C 264.761719 246.179688 264.828125 246.113281 264.933594 246.121094 C 265.03125 246.125 265.078125 246.191406 265.09375 246.289062 " fill-opacity="1" fill-rule="nonzero"/><path fill="rgb(82.749939%, 82.749939%, 82.749939%)" d="M 263.015625 248.363281 C 263.003906 248.488281 262.945312 248.554688 262.828125 248.550781 C 262.71875 248.546875 262.660156 248.480469 262.660156 248.375 C 262.660156 248.257812 262.726562 248.195312 262.84375 248.195312 C 262.953125 248.199219 263.003906 248.265625 263.015625 248.363281 " fill-opacity="1" fill-rule="nonzero"/><path fill="rgb(82.749939%, 82.749939%, 82.749939%)" d="M 256.480469 225.367188 C 256.390625 225.351562 256.324219 225.300781 256.324219 225.203125 C 256.320312 225.097656 256.386719 225.03125 256.492188 225.035156 C 256.597656 225.039062 256.660156 225.109375 256.652344 225.214844 C 256.644531 225.308594 256.578125 225.359375 256.480469 225.367188 " fill-opacity="1" fill-rule="nonzero"/><path fill="rgb(82.749939%, 82.749939%, 82.749939%)" d="M 245.96875 227.453125 C 245.867188 227.441406 245.796875 227.390625 245.800781 227.28125 C 245.800781 227.1875 245.863281 227.121094 245.957031 227.121094 C 246.0625 227.117188 246.128906 227.183594 246.128906 227.289062 C 246.128906 227.386719 246.066406 227.4375 245.96875 227.453125 " fill-opacity="1" fill-rule="nonzero"/><g clip-path="url(#id5)"><path fill="rgb(82.749939%, 82.749939%, 82.749939%)" d="M 267.050781 235.890625 C 266.949219 235.875 266.882812 235.816406 266.886719 235.710938 C 266.894531 235.617188 266.957031 235.554688 267.050781 235.554688 C 267.15625 235.558594 267.222656 235.625 267.21875 235.730469 C 267.214844 235.824219 267.148438 235.875 267.050781 235.890625 " fill-opacity="1" fill-rule="nonzero"/></g><g clip-path="url(#id6)"><path fill="rgb(82.749939%, 82.749939%, 82.749939%)" d="M 267.046875 239.757812 C 267.164062 239.765625 267.230469 239.824219 267.230469 239.941406 C 267.226562 240.050781 267.167969 240.113281 267.058594 240.113281 C 266.941406 240.117188 266.875 240.050781 266.878906 239.933594 C 266.878906 239.828125 266.941406 239.769531 267.046875 239.757812 " fill-opacity="1" fill-rule="nonzero"/></g><g clip-path="url(#id7)"><path fill="rgb(82.749939%, 82.749939%, 82.749939%)" d="M 267.210938 242.0625 C 267.199219 242.152344 267.152344 242.214844 267.066406 242.21875 C 266.96875 242.226562 266.90625 242.167969 266.898438 242.070312 C 266.894531 241.984375 266.953125 241.921875 267.039062 241.914062 C 267.136719 241.90625 267.191406 241.96875 267.210938 242.0625 " fill-opacity="1" fill-rule="nonzero"/></g><g clip-path="url(#id8)"><path fill="rgb(82.749939%, 82.749939%, 82.749939%)" d="M 239.625 240.066406 C 239.542969 240.058594 239.492188 240.019531 239.492188 239.933594 C 239.492188 239.863281 239.535156 239.816406 239.609375 239.8125 C 239.691406 239.808594 239.742188 239.855469 239.742188 239.941406 C 239.742188 240.015625 239.695312 240.054688 239.625 240.066406 " fill-opacity="1" fill-rule="nonzero"/></g><g clip-path="url(#id9)"><path fill="rgb(82.749939%, 82.749939%, 82.749939%)" d="M 239.746094 237.855469 C 239.730469 237.9375 239.683594 237.984375 239.601562 237.976562 C 239.53125 237.96875 239.488281 237.917969 239.492188 237.847656 C 239.496094 237.761719 239.550781 237.714844 239.632812 237.726562 C 239.703125 237.734375 239.742188 237.78125 239.746094 237.855469 " fill-opacity="1" fill-rule="nonzero"/></g><path fill="rgb(82.749939%, 82.749939%, 82.749939%)" d="M 258.746094 225.195312 C 258.730469 225.285156 258.683594 225.332031 258.601562 225.324219 C 258.53125 225.316406 258.488281 225.265625 258.492188 225.191406 C 258.5 225.109375 258.550781 225.0625 258.632812 225.074219 C 258.707031 225.078125 258.738281 225.132812 258.746094 225.195312 " fill-opacity="1" fill-rule="nonzero"/><path fill="rgb(82.749939%, 82.749939%, 82.749939%)" d="M 243.832031 248.226562 C 243.933594 248.242188 243.984375 248.296875 243.976562 248.386719 C 243.96875 248.476562 243.90625 248.523438 243.816406 248.515625 C 243.734375 248.507812 243.6875 248.453125 243.691406 248.371094 C 243.695312 248.277344 243.753906 248.234375 243.832031 248.226562 " fill-opacity="1" fill-rule="nonzero"/><path fill="rgb(82.749939%, 82.749939%, 82.749939%)" d="M 241.734375 246.15625 C 241.828125 246.167969 241.878906 246.210938 241.871094 246.296875 C 241.867188 246.367188 241.820312 246.414062 241.75 246.410156 C 241.664062 246.410156 241.617188 246.359375 241.621094 246.277344 C 241.625 246.199219 241.679688 246.167969 241.734375 246.15625 " fill-opacity="1" fill-rule="nonzero"/><path fill="rgb(82.749939%, 82.749939%, 82.749939%)" d="M 250.328125 225.195312 C 250.320312 225.285156 250.277344 225.339844 250.183594 225.339844 C 250.089844 225.339844 250.039062 225.285156 250.039062 225.191406 C 250.039062 225.113281 250.089844 225.058594 250.171875 225.054688 C 250.261719 225.050781 250.316406 225.101562 250.328125 225.195312 " fill-opacity="1" fill-rule="nonzero"/><path fill="rgb(82.749939%, 82.749939%, 82.749939%)" d="M 241.746094 231.648438 C 241.652344 231.636719 241.597656 231.585938 241.605469 231.496094 C 241.609375 231.402344 241.667969 231.355469 241.761719 231.359375 C 241.839844 231.367188 241.890625 231.417969 241.890625 231.5 C 241.890625 231.59375 241.835938 231.640625 241.746094 231.648438 " fill-opacity="1" fill-rule="nonzero"/><g clip-path="url(#id10)"><path fill="rgb(82.749939%, 82.749939%, 82.749939%)" d="M 267.046875 233.761719 C 266.964844 233.746094 266.917969 233.699219 266.929688 233.617188 C 266.9375 233.546875 266.984375 233.5 267.058594 233.507812 C 267.144531 233.511719 267.1875 233.566406 267.179688 233.648438 C 267.171875 233.71875 267.121094 233.757812 267.046875 233.761719 " fill-opacity="1" fill-rule="nonzero"/></g><path fill="rgb(82.749939%, 82.749939%, 82.749939%)" d="M 245.972656 250.632812 C 245.890625 250.625 245.839844 250.585938 245.839844 250.5 C 245.839844 250.425781 245.882812 250.378906 245.957031 250.378906 C 246.039062 250.375 246.089844 250.421875 246.089844 250.507812 C 246.089844 250.578125 246.042969 250.621094 245.972656 250.632812 " fill-opacity="1" fill-rule="nonzero"/><path fill="rgb(82.749939%, 82.749939%, 82.749939%)" d="M 260.558594 250.507812 C 260.574219 250.402344 260.628906 250.351562 260.71875 250.359375 C 260.8125 250.367188 260.855469 250.429688 260.847656 250.519531 C 260.839844 250.601562 260.785156 250.648438 260.703125 250.644531 C 260.609375 250.644531 260.566406 250.585938 260.558594 250.507812 " fill-opacity="1" fill-rule="nonzero"/><g clip-path="url(#id11)"><path fill="rgb(82.749939%, 82.749939%, 82.749939%)" d="M 252.398438 252.589844 C 252.390625 252.667969 252.347656 252.71875 252.261719 252.714844 C 252.191406 252.710938 252.144531 252.667969 252.144531 252.59375 C 252.144531 252.507812 252.195312 252.460938 252.277344 252.464844 C 252.351562 252.46875 252.390625 252.515625 252.398438 252.589844 " fill-opacity="1" fill-rule="nonzero"/></g><g clip-path="url(#id12)"><path fill="rgb(82.749939%, 82.749939%, 82.749939%)" d="M 254.539062 252.597656 C 254.527344 252.691406 254.472656 252.734375 254.382812 252.726562 C 254.300781 252.71875 254.257812 252.664062 254.265625 252.582031 C 254.269531 252.488281 254.328125 252.445312 254.417969 252.453125 C 254.5 252.460938 254.539062 252.515625 254.539062 252.597656 " fill-opacity="1" fill-rule="nonzero"/></g><g clip-path="url(#id13)"><path fill="rgb(82.749939%, 82.749939%, 82.749939%)" d="M 256.480469 252.460938 C 256.554688 252.464844 256.605469 252.503906 256.613281 252.574219 C 256.621094 252.65625 256.578125 252.710938 256.492188 252.714844 C 256.410156 252.71875 256.359375 252.667969 256.363281 252.585938 C 256.363281 252.511719 256.410156 252.472656 256.480469 252.460938 " fill-opacity="1" fill-rule="nonzero"/></g><path fill="rgb(82.749939%, 82.749939%, 82.749939%)" d="M 265.023438 229.417969 C 265.015625 229.492188 264.972656 229.519531 264.910156 229.515625 C 264.851562 229.507812 264.824219 229.472656 264.824219 229.417969 C 264.824219 229.351562 264.859375 229.316406 264.925781 229.316406 C 264.996094 229.316406 265.023438 229.359375 265.023438 229.417969 " fill-opacity="1" fill-rule="nonzero"/><g clip-path="url(#id14)"><path fill="rgb(82.749939%, 82.749939%, 82.749939%)" d="M 239.71875 242.066406 C 239.710938 242.144531 239.667969 242.171875 239.605469 242.167969 C 239.546875 242.164062 239.519531 242.128906 239.519531 242.070312 C 239.515625 242.003906 239.554688 241.96875 239.621094 241.96875 C 239.6875 241.96875 239.71875 242.011719 239.71875 242.066406 " fill-opacity="1" fill-rule="nonzero"/></g><g clip-path="url(#id15)"><path fill="rgb(82.749939%, 82.749939%, 82.749939%)" d="M 239.621094 235.820312 C 239.554688 235.820312 239.519531 235.789062 239.519531 235.71875 C 239.519531 235.652344 239.554688 235.621094 239.621094 235.621094 C 239.679688 235.621094 239.714844 235.65625 239.714844 235.710938 C 239.71875 235.773438 239.695312 235.820312 239.621094 235.820312 " fill-opacity="1" fill-rule="nonzero"/></g><path fill="rgb(82.749939%, 82.749939%, 82.749939%)" d="M 262.835938 227.183594 C 262.914062 227.191406 262.941406 227.238281 262.933594 227.300781 C 262.929688 227.355469 262.894531 227.386719 262.835938 227.386719 C 262.769531 227.382812 262.734375 227.347656 262.734375 227.28125 C 262.738281 227.214844 262.78125 227.183594 262.835938 227.183594 " fill-opacity="1" fill-rule="nonzero"/><path fill="rgb(82.749939%, 82.749939%, 82.749939%)" d="M 248.058594 225.296875 C 247.992188 225.296875 247.953125 225.265625 247.953125 225.199219 C 247.953125 225.128906 247.992188 225.097656 248.058594 225.097656 C 248.113281 225.101562 248.148438 225.132812 248.152344 225.1875 C 248.15625 225.253906 248.125 225.292969 248.058594 225.296875 " fill-opacity="1" fill-rule="nonzero"/><g clip-path="url(#id16)"><path fill="rgb(82.749939%, 82.749939%, 82.749939%)" d="M 267.046875 244.058594 C 267.109375 244.054688 267.152344 244.085938 267.152344 244.152344 C 267.152344 244.21875 267.117188 244.253906 267.050781 244.253906 C 266.996094 244.253906 266.957031 244.226562 266.953125 244.167969 C 266.949219 244.105469 266.972656 244.058594 267.046875 244.058594 " fill-opacity="1" fill-rule="nonzero"/></g><g clip-path="url(#id17)"><path fill="rgb(82.749939%, 82.749939%, 82.749939%)" d="M 250.28125 252.628906 C 250.28125 252.65625 250.246094 252.691406 250.179688 252.691406 C 250.109375 252.6875 250.082031 252.648438 250.082031 252.582031 C 250.085938 252.527344 250.121094 252.492188 250.175781 252.492188 C 250.238281 252.488281 250.28125 252.519531 250.28125 252.628906 " fill-opacity="1" fill-rule="nonzero"/></g></svg>